<?xml version="1.0" encoding="UTF-8"?>
<svg xmlns="http://www.w3.org/2000/svg" xmlns:xlink="http://www.w3.org/1999/xlink" viewBox="0 0 929.91 495.09">
  <defs>
    <style>
      .cls-1 {
        fill: url(#_Áåçûìÿííûé_ãðàäèåíò_126-53);
      }

      .cls-1, .cls-2, .cls-3, .cls-4, .cls-5, .cls-6, .cls-7, .cls-8, .cls-9, .cls-10, .cls-11, .cls-12, .cls-13, .cls-14, .cls-15, .cls-16, .cls-17, .cls-18, .cls-19, .cls-20, .cls-21, .cls-22, .cls-23, .cls-24, .cls-25, .cls-26, .cls-27, .cls-28, .cls-29, .cls-30, .cls-31, .cls-32, .cls-33, .cls-34, .cls-35, .cls-36, .cls-37, .cls-38, .cls-39, .cls-40, .cls-41, .cls-42, .cls-43, .cls-44, .cls-45, .cls-46, .cls-47, .cls-48, .cls-49, .cls-50, .cls-51, .cls-52, .cls-53, .cls-54, .cls-55, .cls-56, .cls-57, .cls-58, .cls-59, .cls-60, .cls-61, .cls-62, .cls-63, .cls-64, .cls-65, .cls-66, .cls-67, .cls-68, .cls-69, .cls-70, .cls-71, .cls-72, .cls-73, .cls-74, .cls-75, .cls-76, .cls-77, .cls-78 {
        opacity: .5;
      }

      .cls-1, .cls-2, .cls-3, .cls-4, .cls-5, .cls-6, .cls-7, .cls-8, .cls-9, .cls-10, .cls-11, .cls-12, .cls-13, .cls-14, .cls-15, .cls-16, .cls-17, .cls-18, .cls-19, .cls-20, .cls-21, .cls-22, .cls-23, .cls-24, .cls-25, .cls-26, .cls-27, .cls-28, .cls-30, .cls-32, .cls-33, .cls-34, .cls-35, .cls-36, .cls-37, .cls-38, .cls-39, .cls-40, .cls-41, .cls-42, .cls-43, .cls-44, .cls-45, .cls-46, .cls-48, .cls-49, .cls-50, .cls-51, .cls-79, .cls-52, .cls-53, .cls-54, .cls-55, .cls-56, .cls-57, .cls-58, .cls-80, .cls-59, .cls-60, .cls-61, .cls-62, .cls-63, .cls-64, .cls-65, .cls-66, .cls-67, .cls-68, .cls-69, .cls-70, .cls-71, .cls-72, .cls-73, .cls-74, .cls-75, .cls-76, .cls-77, .cls-78 {
        mix-blend-mode: screen;
      }

      .cls-2 {
        fill: url(#_Áåçûìÿííûé_ãðàäèåíò_394-2);
      }

      .cls-2, .cls-7, .cls-8, .cls-81, .cls-10, .cls-82, .cls-11, .cls-12, .cls-13, .cls-83, .cls-16, .cls-18, .cls-84, .cls-21, .cls-22, .cls-23, .cls-24, .cls-85, .cls-29, .cls-30, .cls-31, .cls-33, .cls-36, .cls-37, .cls-39, .cls-86, .cls-87, .cls-88, .cls-45, .cls-47, .cls-49, .cls-89, .cls-90, .cls-52, .cls-56, .cls-80, .cls-60, .cls-62, .cls-91, .cls-92, .cls-64, .cls-65, .cls-66, .cls-70, .cls-93, .cls-73, .cls-75, .cls-76, .cls-77, .cls-78 {
        fill-rule: evenodd;
      }

      .cls-3 {
        fill: url(#_Áåçûìÿííûé_ãðàäèåíò_126-45);
      }

      .cls-4 {
        fill: url(#_Áåçûìÿííûé_ãðàäèåíò_126-3);
      }

      .cls-5 {
        fill: url(#_Áåçûìÿííûé_ãðàäèåíò_126-61);
      }

      .cls-6 {
        fill: url(#_Áåçûìÿííûé_ãðàäèåíò_126-55);
      }

      .cls-7 {
        fill: url(#_Áåçûìÿííûé_ãðàäèåíò_126-66);
      }

      .cls-8 {
        fill: url(#_Áåçûìÿííûé_ãðàäèåíò_126-47);
      }

      .cls-9 {
        fill: url(#_Áåçûìÿííûé_ãðàäèåíò_126-23);
      }

      .cls-81 {
        fill: url(#_Áåçûìÿííûé_ãðàäèåíò_487-2);
      }

      .cls-10 {
        fill: url(#_Áåçûìÿííûé_ãðàäèåíò_126-52);
      }

      .cls-82 {
        fill: #bbc5e3;
      }

      .cls-82, .cls-89 {
        mix-blend-mode: soft-light;
      }

      .cls-11 {
        fill: url(#_Áåçûìÿííûé_ãðàäèåíò_126-42);
      }

      .cls-12 {
        fill: url(#_Áåçûìÿííûé_ãðàäèåíò_126-12);
      }

      .cls-13 {
        fill: url(#_Áåçûìÿííûé_ãðàäèåíò_126-4);
      }

      .cls-14 {
        fill: url(#_Áåçûìÿííûé_ãðàäèåíò_126-43);
      }

      .cls-15 {
        fill: url(#_Áåçûìÿííûé_ãðàäèåíò_126-35);
      }

      .cls-83 {
        fill: #9d89b8;
      }

      .cls-16 {
        fill: url(#_Áåçûìÿííûé_ãðàäèåíò_126-69);
      }

      .cls-17 {
        fill: url(#_Áåçûìÿííûé_ãðàäèåíò_126-17);
      }

      .cls-18 {
        fill: url(#_Áåçûìÿííûé_ãðàäèåíò_126-65);
      }

      .cls-19 {
        fill: url(#_Áåçûìÿííûé_ãðàäèåíò_126-10);
      }

      .cls-84 {
        fill: url(#_Áåçûìÿííûé_ãðàäèåíò_252);
      }

      .cls-20 {
        fill: url(#_Áåçûìÿííûé_ãðàäèåíò_126-72);
      }

      .cls-94, .cls-85, .cls-89 {
        fill: #fff;
      }

      .cls-21 {
        fill: url(#_Áåçûìÿííûé_ãðàäèåíò_126-14);
      }

      .cls-22 {
        fill: url(#_Áåçûìÿííûé_ãðàäèåíò_126-8);
      }

      .cls-23 {
        fill: url(#_Áåçûìÿííûé_ãðàäèåíò_126-60);
      }

      .cls-24 {
        fill: url(#_Áåçûìÿííûé_ãðàäèåíò_126-56);
      }

      .cls-25 {
        fill: url(#_Áåçûìÿííûé_ãðàäèåíò_126-9);
      }

      .cls-26 {
        fill: url(#_Áåçûìÿííûé_ãðàäèåíò_126-19);
      }

      .cls-27 {
        fill: url(#_Áåçûìÿííûé_ãðàäèåíò_126-2);
      }

      .cls-28 {
        fill: url(#_Áåçûìÿííûé_ãðàäèåíò_126-51);
      }

      .cls-29 {
        fill: url(#_Áåçûìÿííûé_ãðàäèåíò_3);
      }

      .cls-29, .cls-31, .cls-88, .cls-47 {
        mix-blend-mode: multiply;
      }

      .cls-30 {
        fill: url(#_Áåçûìÿííûé_ãðàäèåíò_126-26);
      }

      .cls-31, .cls-88 {
        fill: #864577;
      }

      .cls-32 {
        fill: url(#_Áåçûìÿííûé_ãðàäèåíò_126-58);
      }

      .cls-33 {
        fill: url(#_Áåçûìÿííûé_ãðàäèåíò_126-68);
      }

      .cls-34 {
        fill: url(#_Áåçûìÿííûé_ãðàäèåíò_126-31);
      }

      .cls-35 {
        fill: url(#_Áåçûìÿííûé_ãðàäèåíò_126-49);
      }

      .cls-36 {
        fill: url(#_Áåçûìÿííûé_ãðàäèåíò_126-22);
      }

      .cls-37 {
        fill: url(#_Áåçûìÿííûé_ãðàäèåíò_126-6);
      }

      .cls-38 {
        fill: url(#_Áåçûìÿííûé_ãðàäèåíò_126-25);
      }

      .cls-39 {
        fill: url(#_Áåçûìÿííûé_ãðàäèåíò_126-67);
      }

      .cls-86 {
        fill: url(#_Áåçûìÿííûé_ãðàäèåíò_487);
      }

      .cls-40 {
        fill: url(#_Áåçûìÿííûé_ãðàäèåíò_126-46);
      }

      .cls-41 {
        fill: url(#_Áåçûìÿííûé_ãðàäèåíò_126-20);
      }

      .cls-87 {
        fill: url(#_Áåçûìÿííûé_ãðàäèåíò_288);
      }

      .cls-42 {
        fill: url(#_Áåçûìÿííûé_ãðàäèåíò_126-29);
      }

      .cls-95 {
        isolation: isolate;
      }

      .cls-43 {
        fill: url(#_Áåçûìÿííûé_ãðàäèåíò_126-71);
      }

      .cls-44 {
        fill: url(#_Áåçûìÿííûé_ãðàäèåíò_126-5);
      }

      .cls-88 {
        opacity: .7;
      }

      .cls-96 {
        fill: #5c396b;
      }

      .cls-45 {
        fill: url(#_Áåçûìÿííûé_ãðàäèåíò_126-62);
      }

      .cls-46 {
        fill: url(#_Áåçûìÿííûé_ãðàäèåíò_126-33);
      }

      .cls-47 {
        fill: url(#_Áåçûìÿííûé_ãðàäèåíò_149);
      }

      .cls-48 {
        fill: url(#_Áåçûìÿííûé_ãðàäèåíò_126-11);
      }

      .cls-49 {
        fill: url(#_Áåçûìÿííûé_ãðàäèåíò_126-40);
      }

      .cls-50 {
        fill: url(#_Áåçûìÿííûé_ãðàäèåíò_126-38);
      }

      .cls-51 {
        fill: url(#_Áåçûìÿííûé_ãðàäèåíò_126-57);
      }

      .cls-79 {
        fill: url(#_Áåçûìÿííûé_ãðàäèåíò_287);
      }

      .cls-90 {
        fill: url(#_Áåçûìÿííûé_ãðàäèåíò_270-2);
      }

      .cls-52 {
        fill: url(#_Áåçûìÿííûé_ãðàäèåíò_394);
      }

      .cls-53 {
        fill: url(#_Áåçûìÿííûé_ãðàäèåíò_126-32);
      }

      .cls-54 {
        fill: url(#_Áåçûìÿííûé_ãðàäèåíò_126-70);
      }

      .cls-55 {
        fill: url(#_Áåçûìÿííûé_ãðàäèåíò_126-41);
      }

      .cls-56 {
        fill: url(#_Áåçûìÿííûé_ãðàäèåíò_126-28);
      }

      .cls-57 {
        fill: url(#_Áåçûìÿííûé_ãðàäèåíò_126-59);
      }

      .cls-58 {
        fill: url(#_Áåçûìÿííûé_ãðàäèåíò_126-7);
      }

      .cls-80 {
        fill: url(#_Áåçûìÿííûé_ãðàäèåíò_287-2);
      }

      .cls-59 {
        fill: url(#_Áåçûìÿííûé_ãðàäèåíò_126-21);
      }

      .cls-60 {
        fill: url(#_Áåçûìÿííûé_ãðàäèåíò_126-24);
      }

      .cls-61 {
        fill: url(#_Áåçûìÿííûé_ãðàäèåíò_126-39);
      }

      .cls-62 {
        fill: url(#_Áåçûìÿííûé_ãðàäèåíò_126-18);
      }

      .cls-91 {
        fill: url(#_Áåçûìÿííûé_ãðàäèåíò_270);
      }

      .cls-92 {
        fill: url(#_Áåçûìÿííûé_ãðàäèåíò_487-3);
      }

      .cls-63 {
        fill: url(#_Áåçûìÿííûé_ãðàäèåíò_126-37);
      }

      .cls-64 {
        fill: url(#_Áåçûìÿííûé_ãðàäèåíò_126-48);
      }

      .cls-65 {
        fill: url(#_Áåçûìÿííûé_ãðàäèåíò_126-34);
      }

      .cls-66 {
        fill: url(#_Áåçûìÿííûé_ãðàäèåíò_126-30);
      }

      .cls-67 {
        fill: url(#_Áåçûìÿííûé_ãðàäèåíò_126-64);
      }

      .cls-68 {
        fill: url(#_Áåçûìÿííûé_ãðàäèåíò_122);
      }

      .cls-69 {
        fill: url(#_Áåçûìÿííûé_ãðàäèåíò_126-63);
      }

      .cls-70 {
        fill: url(#_Áåçûìÿííûé_ãðàäèåíò_126-44);
      }

      .cls-71 {
        fill: url(#_Áåçûìÿííûé_ãðàäèåíò_126-15);
      }

      .cls-93 {
        fill: #361537;
      }

      .cls-72 {
        fill: url(#_Áåçûìÿííûé_ãðàäèåíò_126);
      }

      .cls-73 {
        fill: url(#_Áåçûìÿííûé_ãðàäèåíò_126-36);
      }

      .cls-74 {
        fill: url(#_Áåçûìÿííûé_ãðàäèåíò_126-27);
      }

      .cls-75 {
        fill: url(#_Áåçûìÿííûé_ãðàäèåíò_126-54);
      }

      .cls-76 {
        fill: url(#_Áåçûìÿííûé_ãðàäèåíò_126-50);
      }

      .cls-77 {
        fill: url(#_Áåçûìÿííûé_ãðàäèåíò_126-16);
      }

      .cls-78 {
        fill: url(#_Áåçûìÿííûé_ãðàäèåíò_126-13);
      }
    </style>
    <radialGradient id="_Áåçûìÿííûé_ãðàäèåíò_126" data-name="Áåçûìÿííûé ãðàäèåíò 126" cx="124.57" cy="29.5" fx="124.57" fy="29.5" r="9.97" gradientTransform="translate(133.74 -98.18) rotate(80.78)" gradientUnits="userSpaceOnUse">
      <stop offset="0" stop-color="#9815a4"/>
      <stop offset=".25" stop-color="#640d6c"/>
      <stop offset=".49" stop-color="#39073d"/>
      <stop offset=".71" stop-color="#19031c"/>
      <stop offset=".88" stop-color="#060007"/>
      <stop offset="1" stop-color="#000"/>
    </radialGradient>
    <radialGradient id="_Áåçûìÿííûé_ãðàäèåíò_126-2" data-name="Áåçûìÿííûé ãðàäèåíò 126" cy="29.5" fy="29.5" r="3.55" gradientTransform="matrix(1,0,0,1,0,0)" xlink:href="#_Áåçûìÿííûé_ãðàäèåíò_126"/>
    <radialGradient id="_Áåçûìÿííûé_ãðàäèåíò_126-3" data-name="Áåçûìÿííûé ãðàäèåíò 126" cx="221.88" cy="13.69" fx="221.88" fy="13.69" r="7.36" gradientTransform="matrix(1,0,0,1,0,0)" xlink:href="#_Áåçûìÿííûé_ãðàäèåíò_126"/>
    <radialGradient id="_Áåçûìÿííûé_ãðàäèåíò_126-4" data-name="Áåçûìÿííûé ãðàäèåíò 126" cx="221.88" cy="13.69" fx="221.88" fy="13.69" r="2.62" gradientTransform="matrix(1,0,0,1,0,0)" xlink:href="#_Áåçûìÿííûé_ãðàäèåíò_126"/>
    <radialGradient id="_Áåçûìÿííûé_ãðàäèåíò_126-5" data-name="Áåçûìÿííûé ãðàäèåíò 126" cx="553.41" cy="233.69" fx="553.41" fy="233.69" r="7.36" gradientTransform="matrix(1,0,0,1,0,0)" xlink:href="#_Áåçûìÿííûé_ãðàäèåíò_126"/>
    <radialGradient id="_Áåçûìÿííûé_ãðàäèåíò_126-6" data-name="Áåçûìÿííûé ãðàäèåíò 126" cx="553.41" cy="233.69" fx="553.41" fy="233.69" r="2.62" gradientTransform="matrix(1,0,0,1,0,0)" xlink:href="#_Áåçûìÿííûé_ãðàäèåíò_126"/>
    <radialGradient id="_Áåçûìÿííûé_ãðàäèåíò_126-7" data-name="Áåçûìÿííûé ãðàäèåíò 126" cx="568.06" cy="206.79" fx="568.06" fy="206.79" r="7.36" gradientTransform="matrix(1,0,0,1,0,0)" xlink:href="#_Áåçûìÿííûé_ãðàäèåíò_126"/>
    <radialGradient id="_Áåçûìÿííûé_ãðàäèåíò_126-8" data-name="Áåçûìÿííûé ãðàäèåíò 126" cx="568.06" cy="206.79" fx="568.06" fy="206.79" r="2.62" gradientTransform="matrix(1,0,0,1,0,0)" xlink:href="#_Áåçûìÿííûé_ãðàäèåíò_126"/>
    <radialGradient id="_Áåçûìÿííûé_ãðàäèåíò_126-9" data-name="Áåçûìÿííûé ãðàäèåíò 126" cx="566.07" cy="243.49" fx="566.07" fy="243.49" r="11.33" gradientTransform="matrix(1,0,0,1,0,0)" xlink:href="#_Áåçûìÿííûé_ãðàäèåíò_126"/>
    <radialGradient id="_Áåçûìÿííûé_ãðàäèåíò_126-10" data-name="Áåçûìÿííûé ãðàäèåíò 126" cx="566.07" cy="243.49" fx="566.07" fy="243.49" r="4.03" gradientTransform="matrix(1,0,0,1,0,0)" xlink:href="#_Áåçûìÿííûé_ãðàäèåíò_126"/>
    <radialGradient id="_Áåçûìÿííûé_ãðàäèåíò_126-11" data-name="Áåçûìÿííûé ãðàäèåíò 126" cx="550.65" cy="213.03" fx="550.65" fy="213.03" r="3.68" gradientTransform="matrix(1,0,0,1,0,0)" xlink:href="#_Áåçûìÿííûé_ãðàäèåíò_126"/>
    <radialGradient id="_Áåçûìÿííûé_ãðàäèåíò_126-12" data-name="Áåçûìÿííûé ãðàäèåíò 126" cx="550.65" cy="213.03" fx="550.65" fy="213.03" r="1.31" gradientTransform="matrix(1,0,0,1,0,0)" xlink:href="#_Áåçûìÿííûé_ãðàäèåíò_126"/>
    <radialGradient id="_Áåçûìÿííûé_ãðàäèåíò_126-13" data-name="Áåçûìÿííûé ãðàäèåíò 126" cx="567.26" cy="199.61" fx="567.26" fy="199.61" r="3.68" gradientTransform="matrix(1,0,0,1,0,0)" xlink:href="#_Áåçûìÿííûé_ãðàäèåíò_126"/>
    <radialGradient id="_Áåçûìÿííûé_ãðàäèåíò_126-14" data-name="Áåçûìÿííûé ãðàäèåíò 126" cx="567.26" cy="199.61" fx="567.26" fy="199.61" r="1.31" gradientTransform="matrix(1,0,0,1,0,0)" xlink:href="#_Áåçûìÿííûé_ãðàäèåíò_126"/>
    <radialGradient id="_Áåçûìÿííûé_ãðàäèåíò_126-15" data-name="Áåçûìÿííûé ãðàäèåíò 126" cx="740.52" cy="208.89" fx="740.52" fy="208.89" r="7.36" gradientTransform="matrix(1,0,0,1,0,0)" xlink:href="#_Áåçûìÿííûé_ãðàäèåíò_126"/>
    <radialGradient id="_Áåçûìÿííûé_ãðàäèåíò_126-16" data-name="Áåçûìÿííûé ãðàäèåíò 126" cx="740.52" cy="208.89" fx="740.52" fy="208.89" r="2.62" gradientTransform="matrix(1,0,0,1,0,0)" xlink:href="#_Áåçûìÿííûé_ãðàäèåíò_126"/>
    <radialGradient id="_Áåçûìÿííûé_ãðàäèåíò_126-17" data-name="Áåçûìÿííûé ãðàäèåíò 126" cx="745.36" cy="167.08" fx="745.36" fy="167.08" r="7.36" gradientTransform="matrix(1,0,0,1,0,0)" xlink:href="#_Áåçûìÿííûé_ãðàäèåíò_126"/>
    <radialGradient id="_Áåçûìÿííûé_ãðàäèåíò_126-18" data-name="Áåçûìÿííûé ãðàäèåíò 126" cx="745.36" cy="167.08" fx="745.36" fy="167.08" r="2.62" gradientTransform="matrix(1,0,0,1,0,0)" xlink:href="#_Áåçûìÿííûé_ãðàäèåíò_126"/>
    <radialGradient id="_Áåçûìÿííûé_ãðàäèåíò_126-19" data-name="Áåçûìÿííûé ãðàäèåíò 126" cx="748.23" cy="184.5" fx="748.23" fy="184.5" r="11.33" gradientTransform="matrix(1,0,0,1,0,0)" xlink:href="#_Áåçûìÿííûé_ãðàäèåíò_126"/>
    <radialGradient id="_Áåçûìÿííûé_ãðàäèåíò_126-20" data-name="Áåçûìÿííûé ãðàäèåíò 126" cx="748.23" cy="184.5" fx="748.23" fy="184.5" r="4.03" gradientTransform="matrix(1,0,0,1,0,0)" xlink:href="#_Áåçûìÿííûé_ãðàäèåíò_126"/>
    <radialGradient id="_Áåçûìÿííûé_ãðàäèåíò_126-21" data-name="Áåçûìÿííûé ãðàäèåíò 126" cx="727.95" cy="173.32" fx="727.95" fy="173.32" r="3.68" gradientTransform="matrix(1,0,0,1,0,0)" xlink:href="#_Áåçûìÿííûé_ãðàäèåíò_126"/>
    <radialGradient id="_Áåçûìÿííûé_ãðàäèåíò_126-22" data-name="Áåçûìÿííûé ãðàäèåíò 126" cx="727.95" cy="173.32" fx="727.95" fy="173.32" r="1.31" gradientTransform="matrix(1,0,0,1,0,0)" xlink:href="#_Áåçûìÿííûé_ãðàäèåíò_126"/>
    <radialGradient id="_Áåçûìÿííûé_ãðàäèåíò_126-23" data-name="Áåçûìÿííûé ãðàäèåíò 126" cx="906.26" cy="101.43" fx="906.26" fy="101.43" r="3.68" gradientTransform="matrix(1,0,0,1,0,0)" xlink:href="#_Áåçûìÿííûé_ãðàäèåíò_126"/>
    <radialGradient id="_Áåçûìÿííûé_ãðàäèåíò_126-24" data-name="Áåçûìÿííûé ãðàäèåíò 126" cx="906.26" cy="101.43" fx="906.26" fy="101.43" r="1.31" gradientTransform="matrix(1,0,0,1,0,0)" xlink:href="#_Áåçûìÿííûé_ãðàäèåíò_126"/>
    <radialGradient id="_Áåçûìÿííûé_ãðàäèåíò_126-25" data-name="Áåçûìÿííûé ãðàäèåíò 126" cx="737.58" cy="200.69" fx="737.58" fy="200.69" r="3.68" gradientTransform="matrix(1,0,0,1,0,0)" xlink:href="#_Áåçûìÿííûé_ãðàäèåíò_126"/>
    <radialGradient id="_Áåçûìÿííûé_ãðàäèåíò_126-26" data-name="Áåçûìÿííûé ãðàäèåíò 126" cx="737.58" cy="200.69" fx="737.58" fy="200.69" r="1.31" gradientTransform="matrix(1,0,0,1,0,0)" xlink:href="#_Áåçûìÿííûé_ãðàäèåíò_126"/>
    <radialGradient id="_Áåçûìÿííûé_ãðàäèåíò_126-27" data-name="Áåçûìÿííûé ãðàäèåíò 126" cx="756.56" cy="205.41" fx="756.56" fy="205.41" r="3.68" gradientTransform="matrix(1,0,0,1,0,0)" xlink:href="#_Áåçûìÿííûé_ãðàäèåíò_126"/>
    <radialGradient id="_Áåçûìÿííûé_ãðàäèåíò_126-28" data-name="Áåçûìÿííûé ãðàäèåíò 126" cx="756.56" cy="205.41" fx="756.56" fy="205.41" r="1.31" gradientTransform="matrix(1,0,0,1,0,0)" xlink:href="#_Áåçûìÿííûé_ãðàäèåíò_126"/>
    <radialGradient id="_Áåçûìÿííûé_ãðàäèåíò_126-29" data-name="Áåçûìÿííûé ãðàäèåíò 126" cx="923.12" cy="101.74" fx="923.12" fy="101.74" r="3.68" gradientTransform="matrix(1,0,0,1,0,0)" xlink:href="#_Áåçûìÿííûé_ãðàäèåíò_126"/>
    <radialGradient id="_Áåçûìÿííûé_ãðàäèåíò_126-30" data-name="Áåçûìÿííûé ãðàäèåíò 126" cx="923.12" cy="101.74" fx="923.12" fy="101.74" r="1.31" gradientTransform="matrix(1,0,0,1,0,0)" xlink:href="#_Áåçûìÿííûé_ãðàäèåíò_126"/>
    <radialGradient id="_Áåçûìÿííûé_ãðàäèåíò_126-31" data-name="Áåçûìÿííûé ãðàäèåíò 126" cx="752.88" cy="219.35" fx="752.88" fy="219.35" r="3.68" gradientTransform="matrix(1,0,0,1,0,0)" xlink:href="#_Áåçûìÿííûé_ãðàäèåíò_126"/>
    <radialGradient id="_Áåçûìÿííûé_ãðàäèåíò_126-32" data-name="Áåçûìÿííûé ãðàäèåíò 126" cx="752.88" cy="219.35" fx="752.88" fy="219.35" r="1.31" gradientTransform="matrix(1,0,0,1,0,0)" xlink:href="#_Áåçûìÿííûé_ãðàäèåíò_126"/>
    <radialGradient id="_Áåçûìÿííûé_ãðàäèåíò_126-33" data-name="Áåçûìÿííûé ãðàäèåíò 126" cx="165.27" cy="211.4" fx="165.27" fy="211.4" r="7.36" gradientTransform="matrix(1,0,0,1,0,0)" xlink:href="#_Áåçûìÿííûé_ãðàäèåíò_126"/>
    <radialGradient id="_Áåçûìÿííûé_ãðàäèåíò_126-34" data-name="Áåçûìÿííûé ãðàäèåíò 126" cx="165.27" cy="211.4" fx="165.27" fy="211.4" r="2.62" gradientTransform="matrix(1,0,0,1,0,0)" xlink:href="#_Áåçûìÿííûé_ãðàäèåíò_126"/>
    <radialGradient id="_Áåçûìÿííûé_ãðàäèåíò_126-35" data-name="Áåçûìÿííûé ãðàäèåíò 126" cx="179.92" cy="184.5" fx="179.92" fy="184.5" r="7.36" gradientTransform="matrix(1,0,0,1,0,0)" xlink:href="#_Áåçûìÿííûé_ãðàäèåíò_126"/>
    <radialGradient id="_Áåçûìÿííûé_ãðàäèåíò_126-36" data-name="Áåçûìÿííûé ãðàäèåíò 126" cx="179.92" cy="184.5" fx="179.92" fy="184.5" r="2.62" gradientTransform="matrix(1,0,0,1,0,0)" xlink:href="#_Áåçûìÿííûé_ãðàäèåíò_126"/>
    <radialGradient id="_Áåçûìÿííûé_ãðàäèåíò_126-37" data-name="Áåçûìÿííûé ãðàäèåíò 126" cx="177.93" cy="221.2" fx="177.93" fy="221.2" r="11.33" gradientTransform="matrix(1,0,0,1,0,0)" xlink:href="#_Áåçûìÿííûé_ãðàäèåíò_126"/>
    <radialGradient id="_Áåçûìÿííûé_ãðàäèåíò_126-38" data-name="Áåçûìÿííûé ãðàäèåíò 126" cx="177.93" cy="221.2" fx="177.93" fy="221.2" r="4.03" gradientTransform="matrix(1,0,0,1,0,0)" xlink:href="#_Áåçûìÿííûé_ãðàäèåíò_126"/>
    <radialGradient id="_Áåçûìÿííûé_ãðàäèåíò_126-39" data-name="Áåçûìÿííûé ãðàäèåíò 126" cx="246.66" cy="192.05" fx="246.66" fy="192.05" r="3.68" gradientTransform="matrix(1,0,0,1,0,0)" xlink:href="#_Áåçûìÿííûé_ãðàäèåíò_126"/>
    <radialGradient id="_Áåçûìÿííûé_ãðàäèåíò_126-40" data-name="Áåçûìÿííûé ãðàäèåíò 126" cx="246.66" cy="192.05" fx="246.66" fy="192.05" r="1.31" gradientTransform="matrix(1,0,0,1,0,0)" xlink:href="#_Áåçûìÿííûé_ãðàäèåíò_126"/>
    <radialGradient id="_Áåçûìÿííûé_ãðàäèåíò_126-41" data-name="Áåçûìÿííûé ãðàäèåíò 126" cx="219.8" cy="173.65" fx="219.8" fy="173.65" r="3.68" gradientTransform="matrix(1,0,0,1,0,0)" xlink:href="#_Áåçûìÿííûé_ãðàäèåíò_126"/>
    <radialGradient id="_Áåçûìÿííûé_ãðàäèåíò_126-42" data-name="Áåçûìÿííûé ãðàäèåíò 126" cx="219.8" cy="173.65" fx="219.8" fy="173.65" r="1.31" gradientTransform="matrix(1,0,0,1,0,0)" xlink:href="#_Áåçûìÿííûé_ãðàäèåíò_126"/>
    <radialGradient id="_Áåçûìÿííûé_ãðàäèåíò_126-43" data-name="Áåçûìÿííûé ãðàäèåíò 126" cx="27.12" cy="177.39" fx="27.12" fy="177.39" r="3.68" gradientTransform="matrix(1,0,0,1,0,0)" xlink:href="#_Áåçûìÿííûé_ãðàäèåíò_126"/>
    <radialGradient id="_Áåçûìÿííûé_ãðàäèåíò_126-44" data-name="Áåçûìÿííûé ãðàäèåíò 126" cx="27.12" cy="177.39" fx="27.12" fy="177.39" r="1.31" gradientTransform="matrix(1,0,0,1,0,0)" xlink:href="#_Áåçûìÿííûé_ãðàäèåíò_126"/>
    <radialGradient id="_Áåçûìÿííûé_ãðàäèåíò_126-45" data-name="Áåçûìÿííûé ãðàäèåíò 126" cx="607.03" cy="186.12" fx="607.03" fy="186.12" r="3.68" gradientTransform="matrix(1,0,0,1,0,0)" xlink:href="#_Áåçûìÿííûé_ãðàäèåíò_126"/>
    <radialGradient id="_Áåçûìÿííûé_ãðàäèåíò_126-46" data-name="Áåçûìÿííûé ãðàäèåíò 126" cx="607.03" cy="186.12" fx="607.03" fy="186.12" r="1.31" gradientTransform="matrix(1,0,0,1,0,0)" xlink:href="#_Áåçûìÿííûé_ãðàäèåíò_126"/>
    <radialGradient id="_Áåçûìÿííûé_ãðàäèåíò_126-47" data-name="Áåçûìÿííûé ãðàäèåíò 126" cx="261.89" cy="3.16" fx="261.89" fy="3.16" r="3.16" gradientTransform="matrix(1,0,0,1,0,0)" xlink:href="#_Áåçûìÿííûé_ãðàäèåíò_126"/>
    <radialGradient id="_Áåçûìÿííûé_ãðàäèåíò_126-48" data-name="Áåçûìÿííûé ãðàäèåíò 126" cx="261.89" cy="3.16" fx="261.89" fy="3.16" r="1.12" gradientTransform="matrix(1,0,0,1,0,0)" xlink:href="#_Áåçûìÿííûé_ãðàäèåíò_126"/>
    <radialGradient id="_Áåçûìÿííûé_ãðàäèåíò_126-49" data-name="Áåçûìÿííûé ãðàäèåíò 126" cx="572.46" cy="10.94" fx="572.46" fy="10.94" r="7.76" gradientTransform="translate(175.4 -401.59) rotate(45)" xlink:href="#_Áåçûìÿííûé_ãðàäèåíò_126"/>
    <radialGradient id="_Áåçûìÿííûé_ãðàäèåíò_126-50" data-name="Áåçûìÿííûé ãðàäèåíò 126" cx="572.46" cy="10.94" fx="572.46" fy="10.94" r="2.76" gradientTransform="matrix(1,0,0,1,0,0)" xlink:href="#_Áåçûìÿííûé_ãðàäèåíò_126"/>
    <radialGradient id="_Áåçûìÿííûé_ãðàäèåíò_126-51" data-name="Áåçûìÿííûé ãðàäèåíò 126" cx="631.98" cy="148.11" fx="631.98" fy="148.11" r="7.76" gradientTransform="translate(289.83 -403.49) rotate(45)" xlink:href="#_Áåçûìÿííûé_ãðàäèåíò_126"/>
    <radialGradient id="_Áåçûìÿííûé_ãðàäèåíò_126-52" data-name="Áåçûìÿííûé ãðàäèåíò 126" cx="631.98" cy="148.11" fx="631.98" fy="148.11" r="2.76" gradientTransform="matrix(1,0,0,1,0,0)" xlink:href="#_Áåçûìÿííûé_ãðàäèåíò_126"/>
    <radialGradient id="_Áåçûìÿííûé_ãðàäèåíò_126-53" data-name="Áåçûìÿííûé ãðàäèåíò 126" cx="559.99" cy="21.45" fx="559.99" fy="21.45" r="7.76" gradientTransform="translate(39.02 -185.04) rotate(19.43)" xlink:href="#_Áåçûìÿííûé_ãðàäèåíò_126"/>
    <radialGradient id="_Áåçûìÿííûé_ãðàäèåíò_126-54" data-name="Áåçûìÿííûé ãðàäèåíò 126" cx="559.99" cy="21.45" fx="559.99" fy="21.45" r="2.76" gradientTransform="matrix(1,0,0,1,0,0)" xlink:href="#_Áåçûìÿííûé_ãðàäèåíò_126"/>
    <radialGradient id="_Áåçûìÿííûé_ãðàäèåíò_126-55" data-name="Áåçûìÿííûé ãðàäèåíò 126" cx="371.76" cy="81.06" fx="371.76" fy="81.06" r="12.43" gradientTransform="translate(60.01 -137.08) rotate(22.68)" xlink:href="#_Áåçûìÿííûé_ãðàäèåíò_126"/>
    <radialGradient id="_Áåçûìÿííûé_ãðàäèåíò_126-56" data-name="Áåçûìÿííûé ãðàäèåíò 126" cx="371.76" cy="81.06" fx="371.76" fy="81.06" r="4.42" gradientTransform="matrix(1,0,0,1,0,0)" xlink:href="#_Áåçûìÿííûé_ãðàäèåíò_126"/>
    <radialGradient id="_Áåçûìÿííûé_ãðàäèåíò_126-57" data-name="Áåçûìÿííûé ãðàäèåíò 126" cx="180.44" cy="43.71" fx="180.44" fy="43.71" r="14.17" gradientTransform="matrix(1,0,0,1,0,0)" xlink:href="#_Áåçûìÿííûé_ãðàäèåíò_126"/>
    <radialGradient id="_Áåçûìÿííûé_ãðàäèåíò_126-58" data-name="Áåçûìÿííûé ãðàäèåíò 126" cx="180.44" cy="43.71" fx="180.44" fy="43.71" r="5.04" gradientTransform="matrix(1,0,0,1,0,0)" xlink:href="#_Áåçûìÿííûé_ãðàäèåíò_126"/>
    <radialGradient id="_Áåçûìÿííûé_ãðàäèåíò_126-59" data-name="Áåçûìÿííûé ãðàäèåíò 126" cx="101.14" cy="107.75" fx="101.14" fy="107.75" r="9.75" gradientTransform="matrix(1,0,0,1,0,0)" xlink:href="#_Áåçûìÿííûé_ãðàäèåíò_126"/>
    <radialGradient id="_Áåçûìÿííûé_ãðàäèåíò_126-60" data-name="Áåçûìÿííûé ãðàäèåíò 126" cx="101.14" cy="107.75" fx="101.14" fy="107.75" r="3.46" gradientTransform="matrix(1,0,0,1,0,0)" xlink:href="#_Áåçûìÿííûé_ãðàäèåíò_126"/>
    <radialGradient id="_Áåçûìÿííûé_ãðàäèåíò_126-61" data-name="Áåçûìÿííûé ãðàäèåíò 126" cx="723.22" cy="70.74" fx="723.22" fy="70.74" r="12.43" gradientTransform="matrix(1,0,0,1,0,0)" xlink:href="#_Áåçûìÿííûé_ãðàäèåíò_126"/>
    <radialGradient id="_Áåçûìÿííûé_ãðàäèåíò_126-62" data-name="Áåçûìÿííûé ãðàäèåíò 126" cx="723.22" cy="70.74" fx="723.22" fy="70.74" r="4.42" gradientTransform="matrix(1,0,0,1,0,0)" xlink:href="#_Áåçûìÿííûé_ãðàäèåíò_126"/>
    <radialGradient id="_Áåçûìÿííûé_ãðàäèåíò_126-63" data-name="Áåçûìÿííûé ãðàäèåíò 126" cx="837.99" cy="212.59" fx="837.99" fy="212.59" r="7.18" gradientTransform="matrix(1,0,0,1,0,0)" xlink:href="#_Áåçûìÿííûé_ãðàäèåíò_126"/>
    <radialGradient id="_Áåçûìÿííûé_ãðàäèåíò_126-64" data-name="Áåçûìÿííûé ãðàäèåíò 126" cx="837.99" cy="212.59" fx="837.99" fy="212.59" r="2.55" gradientTransform="matrix(1,0,0,1,0,0)" xlink:href="#_Áåçûìÿííûé_ãðàäèåíò_126"/>
    <radialGradient id="_Áåçûìÿííûé_ãðàäèåíò_126-65" data-name="Áåçûìÿííûé ãðàäèåíò 126" cx="855.42" cy="11.84" fx="855.42" fy="11.84" r="5.91" gradientTransform="matrix(1,0,0,1,0,0)" xlink:href="#_Áåçûìÿííûé_ãðàäèåíò_126"/>
    <radialGradient id="_Áåçûìÿííûé_ãðàäèåíò_126-66" data-name="Áåçûìÿííûé ãðàäèåíò 126" cx="855.42" cy="11.84" fx="855.42" fy="11.84" r="2.1" gradientTransform="matrix(1,0,0,1,0,0)" xlink:href="#_Áåçûìÿííûé_ãðàäèåíò_126"/>
    <radialGradient id="_Áåçûìÿííûé_ãðàäèåíò_126-67" data-name="Áåçûìÿííûé ãðàäèåíò 126" cx="5.91" cy="174.86" fx="5.91" fy="174.86" r="5.91" gradientTransform="matrix(1,0,0,1,0,0)" xlink:href="#_Áåçûìÿííûé_ãðàäèåíò_126"/>
    <radialGradient id="_Áåçûìÿííûé_ãðàäèåíò_126-68" data-name="Áåçûìÿííûé ãðàäèåíò 126" cx="5.91" cy="174.86" fx="5.91" fy="174.86" r="2.1" gradientTransform="matrix(1,0,0,1,0,0)" xlink:href="#_Áåçûìÿííûé_ãðàäèåíò_126"/>
    <radialGradient id="_Áåçûìÿííûé_ãðàäèåíò_126-69" data-name="Áåçûìÿííûé ãðàäèåíò 126" cx="837.99" cy="157.5" fx="837.99" fy="157.5" r="7.18" gradientTransform="matrix(1,0,0,1,0,0)" xlink:href="#_Áåçûìÿííûé_ãðàäèåíò_126"/>
    <radialGradient id="_Áåçûìÿííûé_ãðàäèåíò_126-70" data-name="Áåçûìÿííûé ãðàäèåíò 126" cx="837.99" cy="157.5" fx="837.99" fy="157.5" r="2.55" gradientTransform="matrix(1,0,0,1,0,0)" xlink:href="#_Áåçûìÿííûé_ãðàäèåíò_126"/>
    <radialGradient id="_Áåçûìÿííûé_ãðàäèåíò_126-71" data-name="Áåçûìÿííûé ãðàäèåíò 126" cx="880.56" cy="146.94" fx="880.56" fy="146.94" r="7.18" gradientTransform="matrix(1,0,0,1,0,0)" xlink:href="#_Áåçûìÿííûé_ãðàäèåíò_126"/>
    <radialGradient id="_Áåçûìÿííûé_ãðàäèåíò_126-72" data-name="Áåçûìÿííûé ãðàäèåíò 126" cx="880.56" cy="146.94" fx="880.56" fy="146.94" r="2.55" gradientTransform="matrix(1,0,0,1,0,0)" xlink:href="#_Áåçûìÿííûé_ãðàäèåíò_126"/>
    <linearGradient id="_Áåçûìÿííûé_ãðàäèåíò_394" data-name="Áåçûìÿííûé ãðàäèåíò 394" x1="398.76" y1="202.3" x2="398.76" y2="88.95" gradientUnits="userSpaceOnUse">
      <stop offset="0" stop-color="#000"/>
      <stop offset="1" stop-color="#4a59d6"/>
    </linearGradient>
    <linearGradient id="_Áåçûìÿííûé_ãðàäèåíò_394-2" data-name="Áåçûìÿííûé ãðàäèåíò 394" x1="411.84" y1="198.65" x2="411.84" y2="92.23" xlink:href="#_Áåçûìÿííûé_ãðàäèåíò_394"/>
    <linearGradient id="_Áåçûìÿííûé_ãðàäèåíò_252" data-name="Áåçûìÿííûé ãðàäèåíò 252" x1="429.86" y1="105.47" x2="429.86" y2="70.18" gradientUnits="userSpaceOnUse">
      <stop offset="0" stop-color="#9089bf"/>
      <stop offset="1" stop-color="#d1bdf1"/>
    </linearGradient>
    <linearGradient id="_Áåçûìÿííûé_ãðàäèåíò_487" data-name="Áåçûìÿííûé ãðàäèåíò 487" x1="463.57" y1="103.09" x2="463.57" y2="43.44" gradientUnits="userSpaceOnUse">
      <stop offset="0" stop-color="#aea9ed"/>
      <stop offset="1" stop-color="#eae1f9"/>
    </linearGradient>
    <linearGradient id="_Áåçûìÿííûé_ãðàäèåíò_288" data-name="Áåçûìÿííûé ãðàäèåíò 288" x1="470.07" y1="77.4" x2="470.07" y2="45.41" gradientUnits="userSpaceOnUse">
      <stop offset="0" stop-color="#6a6fe2"/>
      <stop offset="1" stop-color="#5b2d74"/>
    </linearGradient>
    <linearGradient id="_Áåçûìÿííûé_ãðàäèåíò_3" data-name="Áåçûìÿííûé ãðàäèåíò 3" x1="419.48" y1="73.75" x2="507.66" y2="73.75" gradientUnits="userSpaceOnUse">
      <stop offset="0" stop-color="#8b7cbd"/>
      <stop offset="1" stop-color="#724577"/>
    </linearGradient>
    <linearGradient id="_Áåçûìÿííûé_ãðàäèåíò_487-2" data-name="Áåçûìÿííûé ãðàäèåíò 487" x1="374.34" y1="93.34" x2="435.34" y2="93.34" xlink:href="#_Áåçûìÿííûé_ãðàäèåíò_487"/>
    <linearGradient id="_Áåçûìÿííûé_ãðàäèåíò_487-3" data-name="Áåçûìÿííûé ãðàäèåíò 487" x1="503.72" y1="88.95" x2="543.43" y2="88.95" xlink:href="#_Áåçûìÿííûé_ãðàäèåíò_487"/>
    <radialGradient id="_Áåçûìÿííûé_ãðàäèåíò_270" data-name="Áåçûìÿííûé ãðàäèåíò 270" cx="404.25" cy="88.37" fx="404.25" fy="88.37" r="6.85" gradientUnits="userSpaceOnUse">
      <stop offset="0" stop-color="#55dbd6"/>
      <stop offset="1" stop-color="#4aa1ff"/>
    </radialGradient>
    <radialGradient id="_Áåçûìÿííûé_ãðàäèåíò_270-2" data-name="Áåçûìÿííûé ãðàäèåíò 270" cx="525.58" cy="87.45" fx="525.58" fy="87.45" r="5.94" xlink:href="#_Áåçûìÿííûé_ãðàäèåíò_270"/>
    <linearGradient id="_Áåçûìÿííûé_ãðàäèåíò_149" data-name="Áåçûìÿííûé ãðàäèåíò 149" x1="443.06" y1="60.52" x2="474.82" y2="60.52" gradientUnits="userSpaceOnUse">
      <stop offset="0" stop-color="#c77cbd"/>
      <stop offset="1" stop-color="#974577"/>
    </linearGradient>
    <radialGradient id="_Áåçûìÿííûé_ãðàäèåíò_287" data-name="Áåçûìÿííûé ãðàäèåíò 287" cx="500.4" cy="79.85" fx="500.4" fy="79.85" r="10.02" gradientTransform="translate(443.93 -423.72) rotate(74.54)" gradientUnits="userSpaceOnUse">
      <stop offset="0" stop-color="#0056ff"/>
      <stop offset="1" stop-color="#000"/>
    </radialGradient>
    <radialGradient id="_Áåçûìÿííûé_ãðàäèåíò_287-2" data-name="Áåçûìÿííûé ãðàäèåíò 287" cx="457.29" cy="82.42" fx="457.29" fy="82.42" r="10.02" gradientTransform="matrix(1,0,0,1,0,0)" xlink:href="#_Áåçûìÿííûé_ãðàäèåíò_287"/>
    <radialGradient id="_Áåçûìÿííûé_ãðàäèåíò_122" data-name="Áåçûìÿííûé ãðàäèåíò 122" cx="522.34" cy="286.23" fx="522.34" fy="286.23" r="18.89" gradientTransform="translate(-12323.63 -1474.14) scale(24.49 6.45)" gradientUnits="userSpaceOnUse">
      <stop offset="0" stop-color="#ff4d2f"/>
      <stop offset="1" stop-color="#000"/>
    </radialGradient>
  </defs>
  <g class="cls-95">
    <g id="Layer_2" data-name="Layer 2">
      <g id="Layer_1-2" data-name="Layer 1">
        <g>
          <g id="dust">
            <g>
              <circle class="cls-72" cx="124.57" cy="29.5" r="9.97" transform="translate(75.49 147.74) rotate(-80.78)"/>
              <circle class="cls-27" cx="124.57" cy="29.5" r="3.55"/>
              <path class="cls-85" d="M125.82,29.5c0,.65-.52,1.17-1.17,1.17s-1.17-.52-1.17-1.17.52-1.17,1.17-1.17,1.17.52,1.17,1.17Z"/>
            </g>
            <g>
              <circle class="cls-4" cx="221.88" cy="13.69" r="7.36"/>
              <path class="cls-13" d="M224.5,13.69c0,1.44-1.17,2.62-2.62,2.62s-2.62-1.17-2.62-2.62,1.17-2.62,2.62-2.62,2.62,1.17,2.62,2.62Z"/>
              <circle class="cls-94" cx="221.94" cy="13.69" r=".86"/>
            </g>
            <g>
              <circle class="cls-44" cx="553.41" cy="233.69" r="7.36"/>
              <path class="cls-37" d="M556.03,233.69c0,1.44-1.17,2.62-2.62,2.62s-2.62-1.17-2.62-2.62,1.17-2.62,2.62-2.62,2.62,1.17,2.62,2.62Z"/>
              <path class="cls-85" d="M554.33,233.69c0,.48-.39.86-.86.86s-.86-.39-.86-.86.39-.86.86-.86.86.39.86.86Z"/>
            </g>
            <g>
              <circle class="cls-58" cx="568.06" cy="206.79" r="7.36"/>
              <path class="cls-22" d="M570.68,206.79c0,1.44-1.17,2.62-2.62,2.62s-2.62-1.17-2.62-2.62,1.17-2.62,2.62-2.62,2.62,1.17,2.62,2.62Z"/>
              <path class="cls-85" d="M568.98,206.79c0,.48-.39.86-.86.86s-.86-.39-.86-.86.39-.86.86-.86.86.39.86.86Z"/>
            </g>
            <g>
              <circle class="cls-25" cx="566.07" cy="243.49" r="11.33"/>
              <circle class="cls-19" cx="566.07" cy="243.49" r="4.03"/>
              <path class="cls-85" d="M567.49,243.49c0,.73-.59,1.33-1.33,1.33s-1.33-.59-1.33-1.33.59-1.33,1.33-1.33,1.33.59,1.33,1.33Z"/>
            </g>
            <g>
              <circle class="cls-48" cx="550.65" cy="213.03" r="3.68"/>
              <path class="cls-12" d="M551.96,213.03c0,.72-.59,1.31-1.31,1.31s-1.31-.59-1.31-1.31.59-1.31,1.31-1.31,1.31.59,1.31,1.31Z"/>
              <path class="cls-85" d="M551.11,213.03c0,.24-.19.43-.43.43s-.43-.19-.43-.43.19-.43.43-.43.43.19.43.43Z"/>
            </g>
            <g>
              <path class="cls-78" d="M570.94,199.61c0,2.03-1.65,3.68-3.68,3.68s-3.68-1.65-3.68-3.68,1.65-3.68,3.68-3.68,3.68,1.65,3.68,3.68Z"/>
              <path class="cls-21" d="M568.56,199.61c0,.72-.59,1.31-1.31,1.31s-1.31-.59-1.31-1.31.59-1.31,1.31-1.31,1.31.59,1.31,1.31Z"/>
              <path class="cls-85" d="M567.72,199.61c0,.24-.19.43-.43.43s-.43-.19-.43-.43.19-.43.43-.43.43.19.43.43Z"/>
            </g>
            <g>
              <circle class="cls-71" cx="740.52" cy="208.89" r="7.36"/>
              <path class="cls-77" d="M743.13,208.89c0,1.44-1.17,2.62-2.62,2.62s-2.62-1.17-2.62-2.62,1.17-2.62,2.62-2.62,2.62,1.17,2.62,2.62Z"/>
              <path class="cls-85" d="M741.44,208.89c0,.48-.39.86-.86.86s-.86-.39-.86-.86.39-.86.86-.86.86.39.86.86Z"/>
            </g>
            <g>
              <circle class="cls-17" cx="745.36" cy="167.08" r="7.36"/>
              <path class="cls-62" d="M747.97,167.08c0,1.44-1.17,2.62-2.62,2.62s-2.62-1.17-2.62-2.62,1.17-2.62,2.62-2.62,2.62,1.17,2.62,2.62Z"/>
              <path class="cls-85" d="M746.28,167.08c0,.48-.39.86-.86.86s-.86-.39-.86-.86.39-.86.86-.86.86.39.86.86Z"/>
            </g>
            <g>
              <circle class="cls-26" cx="748.23" cy="184.5" r="11.33"/>
              <circle class="cls-41" cx="748.23" cy="184.5" r="4.03"/>
              <path class="cls-85" d="M749.65,184.5c0,.73-.59,1.33-1.33,1.33s-1.33-.59-1.33-1.33.59-1.33,1.33-1.33,1.33.59,1.33,1.33Z"/>
            </g>
            <g>
              <circle class="cls-59" cx="727.95" cy="173.32" r="3.68"/>
              <path class="cls-36" d="M729.26,173.32c0,.72-.59,1.31-1.31,1.31s-1.31-.59-1.31-1.31.59-1.31,1.31-1.31,1.31.59,1.31,1.31Z"/>
              <path class="cls-85" d="M728.41,173.32c0,.24-.19.43-.43.43s-.43-.19-.43-.43.19-.43.43-.43.43.19.43.43Z"/>
            </g>
            <g>
              <circle class="cls-9" cx="906.26" cy="101.43" r="3.68"/>
              <path class="cls-60" d="M907.57,101.43c0,.72-.59,1.31-1.31,1.31s-1.31-.59-1.31-1.31.59-1.31,1.31-1.31,1.31.59,1.31,1.31Z"/>
              <path class="cls-85" d="M906.72,101.43c0,.24-.19.43-.43.43s-.43-.19-.43-.43.19-.43.43-.43.43.19.43.43Z"/>
            </g>
            <g>
              <circle class="cls-38" cx="737.58" cy="200.69" r="3.68"/>
              <path class="cls-30" d="M738.89,200.69c0,.72-.59,1.31-1.31,1.31s-1.31-.59-1.31-1.31.59-1.31,1.31-1.31,1.31.59,1.31,1.31Z"/>
              <path class="cls-85" d="M738.04,200.69c0,.24-.19.43-.43.43s-.43-.19-.43-.43.19-.43.43-.43.43.19.43.43Z"/>
            </g>
            <g>
              <circle class="cls-74" cx="756.56" cy="205.41" r="3.68"/>
              <path class="cls-56" d="M757.87,205.41c0,.72-.59,1.31-1.31,1.31s-1.31-.59-1.31-1.31.59-1.31,1.31-1.31,1.31.59,1.31,1.31Z"/>
              <path class="cls-85" d="M757.02,205.41c0,.24-.19.43-.43.43s-.43-.19-.43-.43.19-.43.43-.43.43.19.43.43Z"/>
            </g>
            <g>
              <circle class="cls-42" cx="923.12" cy="101.74" r="3.68"/>
              <path class="cls-66" d="M924.42,101.74c0,.72-.59,1.31-1.31,1.31s-1.31-.59-1.31-1.31.59-1.31,1.31-1.31,1.31.59,1.31,1.31Z"/>
              <path class="cls-85" d="M923.58,101.74c0,.24-.19.43-.43.43s-.43-.19-.43-.43.19-.43.43-.43.43.19.43.43Z"/>
            </g>
            <g>
              <circle class="cls-34" cx="752.88" cy="219.35" r="3.68"/>
              <circle class="cls-53" cx="752.88" cy="219.35" r="1.31"/>
              <circle class="cls-94" cx="752.91" cy="219.35" r=".43"/>
            </g>
            <g>
              <circle class="cls-46" cx="165.27" cy="211.4" r="7.36"/>
              <path class="cls-65" d="M167.88,211.4c0,1.44-1.17,2.62-2.62,2.62s-2.62-1.17-2.62-2.62,1.17-2.62,2.62-2.62,2.62,1.17,2.62,2.62Z"/>
              <path class="cls-85" d="M166.19,211.4c0,.48-.39.86-.86.86s-.86-.39-.86-.86.39-.86.86-.86.86.39.86.86Z"/>
            </g>
            <g>
              <circle class="cls-15" cx="179.92" cy="184.5" r="7.36"/>
              <path class="cls-73" d="M182.53,184.5c0,1.44-1.17,2.62-2.62,2.62s-2.62-1.17-2.62-2.62,1.17-2.62,2.62-2.62,2.62,1.17,2.62,2.62Z"/>
              <path class="cls-85" d="M180.84,184.5c0,.48-.39.86-.86.86s-.86-.39-.86-.86.39-.86.86-.86.86.39.86.86Z"/>
            </g>
            <g>
              <circle class="cls-63" cx="177.93" cy="221.2" r="11.33"/>
              <circle class="cls-50" cx="177.93" cy="221.2" r="4.03"/>
              <circle class="cls-94" cx="178.02" cy="221.2" r="1.33"/>
            </g>
            <g>
              <circle class="cls-61" cx="246.66" cy="192.05" r="3.68"/>
              <path class="cls-49" d="M247.97,192.05c0,.72-.59,1.31-1.31,1.31s-1.31-.59-1.31-1.31.59-1.31,1.31-1.31,1.31.59,1.31,1.31Z"/>
              <path class="cls-85" d="M247.12,192.05c0,.24-.19.43-.43.43s-.43-.19-.43-.43.19-.43.43-.43.43.19.43.43Z"/>
            </g>
            <g>
              <circle class="cls-55" cx="219.8" cy="173.65" r="3.68"/>
              <path class="cls-11" d="M221.11,173.65c0,.72-.59,1.31-1.31,1.31s-1.31-.59-1.31-1.31.59-1.31,1.31-1.31,1.31.59,1.31,1.31Z"/>
              <path class="cls-85" d="M220.26,173.65c0,.24-.19.43-.43.43s-.43-.19-.43-.43.19-.43.43-.43.43.19.43.43Z"/>
            </g>
            <g>
              <circle class="cls-14" cx="27.12" cy="177.39" r="3.68"/>
              <path class="cls-70" d="M28.42,177.39c0,.72-.59,1.31-1.31,1.31s-1.31-.59-1.31-1.31.59-1.31,1.31-1.31,1.31.59,1.31,1.31Z"/>
              <path class="cls-85" d="M27.58,177.39c0,.24-.19.43-.43.43s-.43-.19-.43-.43.19-.43.43-.43.43.19.43.43Z"/>
            </g>
            <g>
              <circle class="cls-3" cx="607.03" cy="186.12" r="3.68"/>
              <circle class="cls-40" cx="607.03" cy="186.12" r="1.31"/>
              <path class="cls-85" d="M607.49,186.12c0,.24-.19.43-.43.43s-.43-.19-.43-.43.19-.43.43-.43.43.19.43.43Z"/>
            </g>
            <g>
              <path class="cls-8" d="M265.04,3.16c0,1.74-1.41,3.16-3.16,3.16s-3.16-1.41-3.16-3.16,1.41-3.16,3.16-3.16,3.16,1.41,3.16,3.16Z"/>
              <path class="cls-64" d="M263.01,3.16c0,.62-.5,1.12-1.12,1.12s-1.12-.5-1.12-1.12.5-1.12,1.12-1.12,1.12.5,1.12,1.12Z"/>
              <path class="cls-85" d="M262.28,3.16c0,.2-.17.37-.37.37s-.37-.17-.37-.37.17-.37.37-.37.37.17.37.37Z"/>
            </g>
            <g>
              <circle class="cls-35" cx="572.46" cy="10.94" r="7.76" transform="translate(159.94 407.99) rotate(-45)"/>
              <path class="cls-76" d="M575.22,10.94c0,1.52-1.23,2.76-2.76,2.76s-2.76-1.23-2.76-2.76,1.23-2.76,2.76-2.76,2.76,1.23,2.76,2.76Z"/>
              <path class="cls-85" d="M573.43,10.94c0,.5-.41.91-.91.91s-.91-.41-.91-.91.41-.91.91-.91.91.41.91.91Z"/>
            </g>
            <g>
              <circle class="cls-28" cx="631.98" cy="148.11" r="7.76" transform="translate(80.37 490.25) rotate(-45)"/>
              <path class="cls-10" d="M634.73,148.11c0,1.52-1.23,2.76-2.76,2.76s-2.76-1.23-2.76-2.76,1.23-2.76,2.76-2.76,2.76,1.23,2.76,2.76Z"/>
              <path class="cls-85" d="M632.94,148.11c0,.5-.41.91-.91.91s-.91-.41-.91-.91.41-.91.91-.91.91.41.91.91Z"/>
            </g>
            <g>
              <circle class="cls-1" cx="559.99" cy="21.45" r="7.76" transform="translate(24.75 187.48) rotate(-19.43)"/>
              <path class="cls-75" d="M562.75,21.45c0,1.52-1.23,2.76-2.76,2.76s-2.76-1.23-2.76-2.76,1.23-2.76,2.76-2.76,2.76,1.23,2.76,2.76Z"/>
              <path class="cls-85" d="M560.96,21.45c0,.5-.41.91-.91.91s-.91-.41-.91-.91.41-.91.91-.91.91.41.91.91Z"/>
            </g>
            <g>
              <circle class="cls-6" cx="371.76" cy="81.06" r="12.43" transform="translate(-2.51 149.62) rotate(-22.68)"/>
              <path class="cls-24" d="M376.18,81.06c0,2.44-1.98,4.42-4.42,4.42s-4.42-1.98-4.42-4.42,1.98-4.42,4.42-4.42,4.42,1.98,4.42,4.42Z"/>
              <path class="cls-85" d="M373.32,81.06c0,.8-.65,1.46-1.46,1.46s-1.46-.65-1.46-1.46.65-1.46,1.46-1.46,1.46.65,1.46,1.46Z"/>
            </g>
            <g>
              <circle class="cls-51" cx="180.44" cy="43.71" r="14.17"/>
              <circle class="cls-32" cx="180.44" cy="43.71" r="5.04"/>
              <circle class="cls-94" cx="180.55" cy="43.71" r="1.66"/>
            </g>
            <g>
              <circle class="cls-57" cx="101.14" cy="107.75" r="9.75"/>
              <path class="cls-23" d="M104.6,107.75c0,1.91-1.55,3.46-3.46,3.46s-3.46-1.55-3.46-3.46,1.55-3.46,3.46-3.46,3.46,1.55,3.46,3.46Z"/>
              <path class="cls-85" d="M102.36,107.75c0,.63-.51,1.14-1.14,1.14s-1.14-.51-1.14-1.14.51-1.14,1.14-1.14,1.14.51,1.14,1.14Z"/>
            </g>
            <g>
              <circle class="cls-5" cx="723.22" cy="70.74" r="12.43"/>
              <path class="cls-45" d="M727.64,70.74c0,2.44-1.98,4.42-4.42,4.42s-4.42-1.98-4.42-4.42,1.98-4.42,4.42-4.42,4.42,1.98,4.42,4.42Z"/>
              <path class="cls-85" d="M724.77,70.74c0,.8-.65,1.46-1.46,1.46s-1.46-.65-1.46-1.46.65-1.46,1.46-1.46,1.46.65,1.46,1.46Z"/>
            </g>
            <g>
              <circle class="cls-69" cx="837.99" cy="212.59" r="7.18"/>
              <circle class="cls-67" cx="837.99" cy="212.59" r="2.55"/>
              <path class="cls-85" d="M838.88,212.59c0,.46-.38.84-.84.84s-.84-.38-.84-.84.38-.84.84-.84.84.38.84.84Z"/>
            </g>
            <g>
              <path class="cls-18" d="M861.33,11.84c0,3.26-2.65,5.91-5.91,5.91s-5.91-2.65-5.91-5.91,2.65-5.91,5.91-5.91,5.91,2.65,5.91,5.91Z"/>
              <path class="cls-7" d="M857.52,11.84c0,1.16-.94,2.1-2.1,2.1s-2.1-.94-2.1-2.1.94-2.1,2.1-2.1,2.1.94,2.1,2.1Z"/>
              <path class="cls-85" d="M856.16,11.84c0,.38-.31.69-.69.69s-.69-.31-.69-.69.31-.69.69-.69.69.31.69.69Z"/>
            </g>
            <g>
              <path class="cls-39" d="M11.82,174.86c0,3.26-2.65,5.91-5.91,5.91s-5.91-2.65-5.91-5.91,2.65-5.91,5.91-5.91,5.91,2.65,5.91,5.91Z"/>
              <path class="cls-33" d="M8.01,174.86c0,1.16-.94,2.1-2.1,2.1s-2.1-.94-2.1-2.1.94-2.1,2.1-2.1,2.1.94,2.1,2.1Z"/>
              <path class="cls-85" d="M6.65,174.86c0,.38-.31.69-.69.69s-.69-.31-.69-.69.31-.69.69-.69.69.31.69.69Z"/>
            </g>
            <g>
              <path class="cls-16" d="M845.17,157.5c0,3.96-3.21,7.18-7.18,7.18s-7.18-3.21-7.18-7.18,3.21-7.18,7.18-7.18,7.18,3.21,7.18,7.18Z"/>
              <circle class="cls-54" cx="837.99" cy="157.5" r="2.55"/>
              <path class="cls-85" d="M838.88,157.5c0,.46-.38.84-.84.84s-.84-.38-.84-.84.38-.84.84-.84.84.38.84.84Z"/>
            </g>
            <g>
              <circle class="cls-43" cx="880.56" cy="146.94" r="7.18"/>
              <circle class="cls-20" cx="880.56" cy="146.94" r="2.55"/>
              <path class="cls-85" d="M881.45,146.94c0,.46-.38.84-.84.84s-.84-.38-.84-.84.38-.84.84-.84.84.38.84.84Z"/>
            </g>
          </g>
          <g id="spaceship">
            <path class="cls-52" d="M409.9,88.95s-37.71,56.02-29.08,113.35c0,0,2.37-60.18,37.17-99.43l-8.09-13.92Z"/>
            <path class="cls-2" d="M430.4,92.23s-50.75,49.09-42.12,106.42c0,0,0-52.02,48.1-93.45l-5.99-12.97Z"/>
            <g>
              <path class="cls-84" d="M418.07,73.27s-8.15,7.65-13.21,25.6l2.94,6.6h15.71l31.35-2.38-27.97-32.91-8.81,3.09Z"/>
              <path class="cls-86" d="M507.66,95.49s-7.4-36.18-34.47-49.01c0,0-13.91-5.11-36.74-2.07,0,0-10.11,9.13-16.96,23.92l4.02,34.76h31.35l52.81-7.6Z"/>
              <path class="cls-87" d="M496.35,75.64c-3.62,2.11-27.1,2.58-37.15-.01-1.92-.5-3.35-1.1-4.06-1.82-4.46-4.52-13.67-26.49-11.85-27.11,6.23-2.12,22.92-1.58,31.53,1.38,10.2,3.51,25.83,25.05,21.53,27.56Z"/>
              <path class="cls-29" d="M436.44,44.41s13.44,15.39,18.41,50.37l52.81.71-52.81,7.6h-31.35l-4.02-34.76s8.15-16.2,16.96-23.92Z"/>
              <polygon class="cls-88" points="454.85 94.78 423.51 103.09 454.85 103.09 507.66 95.49 454.85 94.78"/>
              <path class="cls-31" d="M419.98,72.6l-1.91.67s-9.02,10.05-13.21,25.6l2.94,6.6h15.71l31.35-2.38h-31.35l-3.53-30.49Z"/>
              <polygon class="cls-31" points="418.07 73.27 422.2 103.09 407.79 105.47 423.51 105.47 454.85 103.09 423.51 103.09 419.98 72.6 418.07 73.27"/>
              <path class="cls-31" d="M419.48,68.33s2.42-6.31,10.37-5.49c7.95.82,11.83,35.43,11.83,35.43l-18.18,4.82-4.02-34.76Z"/>
              <path class="cls-82" d="M432.24,64.16l9.44-11.74s2.62,4.67,4.32,8.99l-12.02,5.16-1.74-2.41Z"/>
              <path class="cls-82" d="M435.34,69.37l12.27-3.92s2.63,7.11,3.92,12.51l-12.69,3.25s-1.96-8.41-3.49-11.84Z"/>
              <path class="cls-96" d="M441.61,98.28c-.04-.28-4.14-28.45-9.05-33.56-1.47-1.53-3.36-2.16-5.48-1.84-3.37.51-6.4,3.21-7.54,5.48l-.13-.07c1.15-2.3,4.22-5.03,7.65-5.56,2.16-.33,4.1.32,5.6,1.88,4.94,5.14,9.05,33.35,9.09,33.64l-.14.02Z"/>
              <path class="cls-81" d="M435.34,89.03l-.74-7.82s-23.48-.4-59.58,19.18l-.67,2.87.84,2.2s25.46-6,47.46-8.76l12.7-7.67Z"/>
              <path class="cls-92" d="M503.72,82.93s23.33,2.98,39.71,8.86l-.65,3.18c-13.94-1.71-25.3-2.37-35.97-2.85l-3.09-9.18Z"/>
              <path class="cls-31" d="M375.01,100.4l1.63,1.35s34.37-12.77,58.69-12.71l-12.7,7.67s-17.26,2.02-47.46,8.76l-.84-2.2.67-2.87Z"/>
              <path class="cls-88" d="M542.78,94.97s-10.66-2.62-36.97-5.93l1,3.08c11.02.49,22.07,1.18,35.97,2.85Z"/>
              <path class="cls-88" d="M435.34,89.03l-11.83,14.06-15.71,2.38-2.68-6.03-29.93,6.03,1.47-3.72s28.5-10.82,58.69-12.71Z"/>
              <path class="cls-31" d="M462.66,93.76s1.83-4.89,4.31-6.9c2.48-2.01,27.43-2.63,30.12-2.4s7.86,9.77,7.86,9.77l-42.29-.47Z"/>
              <path class="cls-93" d="M462.66,93.76l39.65.47s-3.83-6.69-7.18-7.75c-3.34-1.06-28.03.22-29.11,1.34s-3.36,5.94-3.36,5.94Z"/>
              <polygon class="cls-96" points="482.53 86.14 482.43 86.04 483.72 84.71 481.17 77.41 481.31 77.36 483.89 84.75 482.53 86.14"/>
              <polygon class="cls-96" points="516.18 92.66 516.17 92.52 525.58 91.75 525.74 86.87 525.89 86.88 525.72 91.88 525.66 91.89 516.18 92.66"/>
              <polygon class="cls-96" points="404.34 93.7 402.86 87.94 403 87.9 404.49 93.66 404.34 93.7"/>
              <path class="cls-91" d="M395.28,90.8l3.04,1.2,11.58-3.05,3.33-4.22s-11.41,3.28-17.95,6.07Z"/>
              <path class="cls-90" d="M517.49,85.17l1.99,2.66,11.29,1.91,2.89-.95s-9.09-2.38-16.17-3.62Z"/>
              <path class="cls-47" d="M474.82,48.08s-12.61,8.38-15.62,27.55c-1.92-.5-3.35-1.1-4.06-1.82-4.46-4.52-13.67-26.49-11.85-27.11,6.23-2.12,22.92-1.58,31.53,1.38Z"/>
              <path class="cls-89" d="M466.2,48.11s11.05,4.77,21.22,16.59l5.53.22s-6.23-11.72-16.79-16.33c0,0-4.36-1.38-9.96-.49Z"/>
              <path class="cls-89" d="M464.31,48.11s8.4,2.78,21.17,16.82l-11.48.53s-7.45-13.04-19.81-16.96c0,0,4.33-.39,10.12-.39Z"/>
              <circle class="cls-79" cx="500.4" cy="79.85" r="10.02" transform="translate(290.01 540.84) rotate(-74.54)"/>
              <path class="cls-80" d="M467.31,82.42c0,5.54-4.49,10.02-10.02,10.02s-10.02-4.49-10.02-10.02,4.49-10.02,10.02-10.02,10.02,4.49,10.02,10.02Z"/>
              <path class="cls-83" d="M432.16,64.58s4.98,4.54,7.34,24.19c0,0-1.96-16.17-7.34-24.19Z"/>
              <path class="cls-85" d="M451.75,78.85s9.22,1.97,10.91,3.53c1.69,1.55-9.47,2.8-9.47,2.8,0,0-.68-3.16-1.44-6.32Z"/>
              <path class="cls-85" d="M501.68,78.14s-4.42,2.07-4.6,3.08c-.18,1.01,6.63,1.72,6.63,1.72,0,0-1.2-3.01-2.03-4.79Z"/>
            </g>
          </g>
          <ellipse id="shadow" class="cls-68" cx="467.34" cy="373.18" rx="462.57" ry="121.91"/>
        </g>
      </g>
    </g>
  </g>
</svg>