<?xml version="1.0" encoding="UTF-8"?>
<svg xmlns="http://www.w3.org/2000/svg" xmlns:xlink="http://www.w3.org/1999/xlink" viewBox="0 0 142.33 143.51">
  <defs>
    <style>
      .cls-1 {
        fill: #54577f;
      }

      .cls-1, .cls-2, .cls-3, .cls-4 {
        fill-rule: evenodd;
      }

      .cls-1, .cls-3 {
        mix-blend-mode: multiply;
        opacity: .3;
      }

      .cls-2 {
        fill: url(#_Áåçûìÿííûé_ãðàäèåíò_79);
      }

      .cls-3 {
        fill: #5457a7;
      }

      .cls-5 {
        fill: url(#_Áåçûìÿííûé_ãðàäèåíò_131);
      }

      .cls-5, .cls-6, .cls-7 {
        mix-blend-mode: screen;
      }

      .cls-8 {
        isolation: isolate;
      }

      .cls-6 {
        fill: url(#_Áåçûìÿííûé_ãðàäèåíò_165-2);
      }

      .cls-6, .cls-7 {
        opacity: .5;
      }

      .cls-7 {
        fill: url(#_Áåçûìÿííûé_ãðàäèåíò_165);
      }

      .cls-4 {
        fill: url(#_Áåçûìÿííûé_ãðàäèåíò_5);
        mix-blend-mode: soft-light;
      }
    </style>
    <radialGradient id="_Áåçûìÿííûé_ãðàäèåíò_131" data-name="Áåçûìÿííûé ãðàäèåíò 131" cx="-1242.82" cy="-274.75" fx="-1242.82" fy="-274.75" r="29.97" gradientTransform="translate(723.33 -2903.64) rotate(-90) scale(2.39 2.37)" gradientUnits="userSpaceOnUse">
      <stop offset="0" stop-color="#ab6886"/>
      <stop offset=".15" stop-color="#a66582"/>
      <stop offset=".3" stop-color="#9a5d79"/>
      <stop offset=".46" stop-color="#855168"/>
      <stop offset=".61" stop-color="#683f52"/>
      <stop offset=".77" stop-color="#432935"/>
      <stop offset=".93" stop-color="#160d11"/>
      <stop offset="1" stop-color="#000"/>
    </radialGradient>
    <radialGradient id="_Áåçûìÿííûé_ãðàäèåíò_79" data-name="Áåçûìÿííûé ãðàäèåíò 79" cx="103.3" cy="-257.49" fx="103.3" fy="-257.49" r="104.97" gradientTransform="translate(59.67 339.99) rotate(-30.29)" gradientUnits="userSpaceOnUse">
      <stop offset="0" stop-color="#8a2e7a"/>
      <stop offset=".26" stop-color="#872c78"/>
      <stop offset=".45" stop-color="#7d2672"/>
      <stop offset=".62" stop-color="#6d1c69"/>
      <stop offset=".78" stop-color="#570f5b"/>
      <stop offset=".85" stop-color="#4a0754"/>
    </radialGradient>
    <radialGradient id="_Áåçûìÿííûé_ãðàäèåíò_5" data-name="Áåçûìÿííûé ãðàäèåíò 5" cx="-568.92" cy="-773.74" fx="-568.92" fy="-773.74" r="41.88" gradientTransform="translate(971.76 114.36) rotate(-51.74)" gradientUnits="userSpaceOnUse">
      <stop offset="0" stop-color="#fff"/>
      <stop offset="1" stop-color="#a192cc"/>
    </radialGradient>
    <radialGradient id="_Áåçûìÿííûé_ãðàäèåíò_165" data-name="Áåçûìÿííûé ãðàäèåíò 165" cx="45.27" cy="49.27" fx="45.27" fy="49.27" r="44.72" gradientUnits="userSpaceOnUse">
      <stop offset="0" stop-color="#d86084"/>
      <stop offset="1" stop-color="#000"/>
    </radialGradient>
    <radialGradient id="_Áåçûìÿííûé_ãðàäèåíò_165-2" data-name="Áåçûìÿííûé ãðàäèåíò 165" cx="45.27" fx="45.27" r="18.7" xlink:href="#_Áåçûìÿííûé_ãðàäèåíò_165"/>
  </defs>
  <g class="cls-8">
    <g id="Layer_2" data-name="Layer 2">
      <g id="Layer_1-2" data-name="Layer 1">
        <g id="planet-3">
          <ellipse class="cls-5" cx="71.16" cy="71.76" rx="71.15" ry="71.76" transform="translate(-7.94 8.86) rotate(-6.75)"/>
          <path class="cls-2" d="M132.59,55.16c1.73,6.64,2.39,13.52,1.96,20.39-.18,3.44-.66,6.89-1.43,10.29-2.08,9.24-6.2,18.2-12.46,26.12-6.63,8.43-14.94,14.78-24.08,18.95-1.57.72-3.17,1.37-4.8,1.96-12.83,4.72-26.99,5.29-40.28,1.52-1.27-.36-2.55-.77-3.8-1.2-6.63-2.33-12.97-5.76-18.8-10.36C2.25,101.81-3.64,64.22,14.37,36.24c.88-1.38,1.84-2.75,2.86-4.08v-.03c.28-.35.55-.71.84-1.07,2.34-2.97,4.88-5.67,7.61-8.13.79-.72,1.6-1.41,2.44-2.1,2.27-1.87,4.65-3.54,7.13-5.06,4.78-2.92,9.88-5.18,15.15-6.77h.02c8.3-2.54,17.04-3.37,25.69-2.48.85.09,1.73.21,2.6.33,11,1.57,21.73,5.98,31.12,13.36.52.41,1.03.83,1.52,1.26,5.07,4.22,9.33,9.06,12.75,14.33,3.92,6,6.77,12.55,8.51,19.36Z"/>
          <path class="cls-1" d="M29.58,71.31c-.19.39-.26.78-.21,1.19.6.08.93,1.01,1.65.9.18-.52.87-1.3.21-1.8-.09-.07-.34-.04-.46-.09-.16-.07-.27-.26-.44-.27-.37-.03-1.1.43-1.45.56l.7-.5Z"/>
          <path class="cls-4" d="M28.11,20.84c-.05.08-.09.17-.14.27-.57,1.28-1.4,2.39-2.29,3.51-.2.25-.4.65-.65.84-.19.16-.36.15-.55.34-.42.39-.85.79-1.28,1.12-.78.58-1.4,1.59-2.02,2.4-.76.98-2,1.61-2.65,2.64-.71,1.13-1.08,2.43-1.93,3.48l-.58.74c-.49.64-.34,1.2-.6,2.11.33.49,1,1.24,1.01,1.85,0,.21-.05.48-.11.67-.17.57-.26,1.15-.51,1.7-.45,1.03-.9,2.11-1.57,3.03-.56.76-1.23,1.35-1.88,2.03-1.28,1.34-2.56,2.55-3.02,4.42-.25,1.03-.46,2.08-.73,3.12-.16.59-.39,1.25-.42,1.85-.03.47.06.94.06,1.41,0,.56-.36,1.04-.52,1.57-.19.65-.1,1.2.06,1.84.23.87.96,1.33,1.26,2.1.17.47.05.93-.02,1.39-.31,2.16.88,3.87,1.2,5.94.24,1.51-.41,3.01-.28,4.55.11,1.55.49,3.07.79,4.58.22,1.03.06,1.59-.19,2.54-.24.92-.39,2.11-.2,3.05.19,1.02.4,2,.49,3.04.07.82-.14,1.62-.03,2.43.11.75.5,1.4.74,2.1.54,1.55,1.45,2.88,2.04,4.4.49,1.25.54,2.87,1.6,3.8.38.34.65.44,1.08.64.62.28,1.08.85,1.64,1.25.33.23.66.31,1.01.45.45.19.86.51,1.35.63.79.17,1.62-.07,2.42,0,.92.08,1.58.63,2.07,1.36.51.76,1,1.58,1.46,2.37.71,1.22.89,2.85,1.79,3.95.35.41.85.57,1.3.8.54.27,1.13.63,1.64.96.55.35.97.81,1.35,1.33.26.37.36.75.51,1.2.07.2.03.43.08.63.11.36.38.61.55.94.17.33.61,1.08.52,1.48-.18.83-1.54.1-1.48.77.03.47.82.77,1.12,1.07.39.38.78.97,1.02,1.46.51,1.01.47,1.49,1.52,1.95.85.38,1.68.58,2.6.7,1.12.14,1.75.9,2.71,1.34.51.24.9.68,1.35,1.01.45.32.93.4,1.42.64.34.17.88.5,1.07.85.14.25.04.61.08.88.1.54.43.82.75,1.24.46.64.93,1.08,1.55,1.57-6.62-2.32-12.97-5.76-18.78-10.35C2.25,101.82-3.63,64.22,14.37,36.25c.89-1.39,1.83-2.75,2.85-4.08v-.02c.28-.37.56-.72.84-1.08,3.03-3.84,6.41-7.25,10.06-10.23Z"/>
          <path class="cls-3" d="M134.55,75.55c-.18,3.44-.66,6.89-1.43,10.29-2.08,9.24-6.2,18.2-12.46,26.12-6.63,8.43-14.94,14.78-24.08,18.95-1.57.72-3.17,1.37-4.8,1.96-2.77-3.11-.99-12.05-.54-15.32,1.65-11.61,3.54-23.8,10.72-33.07,1.36-1.72,3.2-3.47,5.37-3.24,1.08.11,2.09.71,3.17.67,1.45-.04,2.68-1.17,4.12-1.23,1.09-.03,2.11.57,3.19.74,2.4.4,4.27-1.19,6.11-2.98,1.9-1.83,3.79-3.84,6.26-4.18.54-.08,1.07-.06,1.61.05.98.16,1.95.62,2.77,1.25Z"/>
          <path class="cls-3" d="M104.02,70.91c-1.09.68-.55,2.59.65,3.04,1.2.45,2.55-.11,3.61-.85,1.27-.89,2.42-2.21,2.42-3.76,0-2.61-3.55-4.11-5.83-2.84s-3.16,4.21-2.84,6.8l1.99-2.39Z"/>
          <path class="cls-3" d="M132.59,55.16c-.63.41-1.3.74-2.03.97-.12.05-.25.08-.39.12-2.06.53-4.22.21-6.32-.13-2.58-.4-5.22-.84-7.78-1.44-3.12-.74-6.11-1.77-8.83-3.43-4.36-2.68-7.68-6.79-11.91-9.66-2.12-1.43-4.46-2.55-6.34-4.25-3.43-3.09-4.99-7.69-6.39-12.1-1.69-5.34-5.8-12.68-3.89-18.39,11,1.57,21.73,5.98,31.12,13.36.52.41,1.03.83,1.52,1.26,5.07,4.22,9.33,9.06,12.75,14.33,3.92,6,6.77,12.55,8.51,19.36Z"/>
          <path class="cls-3" d="M83.7,55.34c-1.14-.41-.9-2.33.2-2.84,1.1-.51,2.42.03,3.36.8,1.95,1.59,3.01,4.49,1.85,6.72-1.16,2.23-4.86,2.8-6.2.67-.4-.63-.55-1.39-.65-2.13-.18-1.39-.18-2.8,0-4.19l1.42.97Z"/>
          <path class="cls-3" d="M79.06,120.41c2.79-2.26,5.61-4.55,7.77-7.42,2.16-2.87,3.64-6.41,3.35-9.99-.29-3.58-2.65-7.1-6.1-8.08-2.08-.59-4.31-.24-6.37.39-7.23,2.21-13.53,9.49-13.06,17.45.49,8.21,7.68,13.11,14.42,7.65Z"/>
          <path class="cls-3" d="M83.25,87.89c-1.02.67-2.37-.93-1.78-2,.59-1.07,2.18-1.2,3.23-.58,1.05.62,1.69,1.74,2.26,2.82-1.23.86-3.18.35-3.83-.99l.12.75Z"/>
          <path class="cls-3" d="M56.09,17.98c.74,1.6,1.48,3.28,1.59,5.06.16,2.83-1.39,5.56-3.5,7.49-2.11,1.92-4.72,3.17-7.3,4.39-2.47,1.16-5.24,2.35-7.82,1.47-1.58-.55-2.81-1.81-3.96-3.02-1.69-1.79-3.38-3.56-5.06-5.33-1.16-1.21-2.84-3.05-4.37-5.1.79-.72,1.6-1.41,2.44-2.1,2.27-1.87,4.65-3.54,7.13-5.06,4.78-2.92,9.88-5.18,15.15-6.77h.02c.2.18.39.37.59.56,2.32,2.33,3.72,5.4,5.09,8.41Z"/>
          <path class="cls-3" d="M29.13,46.48c-.89-.27-1.75.7-2.67.57-1.36-.19-1.27-2.21-.68-3.44,1.08-2.27,2.86-4.52,5.35-4.9,1.45-.23,2.91.22,4.28.75,1.45.57,2.94,1.3,3.79,2.62,1,1.55.86,3.63.12,5.32-.75,1.69-2.02,3.08-3.27,4.44-.9.98-2,2.03-3.32,1.91-.91-.08-1.68-.73-2.28-1.41-1.49-1.68-2.46-3.82-2.74-6.05l1.45.21Z"/>
          <path class="cls-3" d="M53.27,109.84c.6.28,1.24.53,1.91.54.64.01,1.26-.19,1.83-.47,3.28-1.56,5.1-5.28,5.4-8.91.29-3.63-.68-7.22-1.64-10.73-.67-2.42-1.5-5.08-3.65-6.37-5.87-3.53-14.78,2.31-15.17,8.73-.39,6.45,5.84,14.67,11.32,17.2Z"/>
          <circle class="cls-7" cx="45.27" cy="49.27" r="44.72"/>
          <circle class="cls-6" cx="45.27" cy="49.27" r="18.7"/>
        </g>
      </g>
    </g>
  </g>
</svg>