<?xml version="1.0" encoding="UTF-8"?>
<svg xmlns="http://www.w3.org/2000/svg" xmlns:xlink="http://www.w3.org/1999/xlink" viewBox="0 0 252.75 216.15">
  <defs>
    <style>
      .cls-1 {
        fill: url(#_Áåçûìÿííûé_ãðàäèåíò_376);
      }

      .cls-1, .cls-2, .cls-3, .cls-4, .cls-5, .cls-6, .cls-7, .cls-8, .cls-9, .cls-10, .cls-11, .cls-12, .cls-13, .cls-14, .cls-15, .cls-16 {
        fill-rule: evenodd;
      }

      .cls-1, .cls-2, .cls-4, .cls-7, .cls-17, .cls-18, .cls-19, .cls-10, .cls-20, .cls-13 {
        mix-blend-mode: screen;
        opacity: .5;
      }

      .cls-2 {
        fill: url(#_Áåçûìÿííûé_ãðàäèåíò_4);
      }

      .cls-3 {
        fill: #fff;
      }

      .cls-4 {
        fill: url(#_Áåçûìÿííûé_ãðàäèåíò_369);
      }

      .cls-5 {
        fill: url(#_Áåçûìÿííûé_ãðàäèåíò_559);
        opacity: .3;
      }

      .cls-5, .cls-8, .cls-11, .cls-12 {
        mix-blend-mode: multiply;
      }

      .cls-6 {
        fill: url(#_Áåçûìÿííûé_ãðàäèåíò_238);
      }

      .cls-7 {
        fill: url(#_Áåçûìÿííûé_ãðàäèåíò_108);
      }

      .cls-21 {
        isolation: isolate;
      }

      .cls-17 {
        fill: url(#_Áåçûìÿííûé_ãðàäèåíò_165-2);
      }

      .cls-18 {
        fill: url(#_Áåçûìÿííûé_ãðàäèåíò_243);
      }

      .cls-8 {
        opacity: .4;
      }

      .cls-8, .cls-12 {
        fill: #7e2654;
      }

      .cls-19 {
        fill: url(#_Áåçûìÿííûé_ãðàäèåíò_165);
      }

      .cls-9 {
        fill: url(#_Áåçûìÿííûé_ãðàäèåíò_158);
      }

      .cls-10 {
        fill: url(#_Áåçûìÿííûé_ãðàäèåíò_103);
      }

      .cls-11 {
        fill: #4d1154;
      }

      .cls-11, .cls-12 {
        opacity: .2;
      }

      .cls-20 {
        fill: url(#_Áåçûìÿííûé_ãðàäèåíò_173);
      }

      .cls-13 {
        fill: url(#_Áåçûìÿííûé_ãðàäèåíò_177);
      }

      .cls-14 {
        fill: #e9e8ec;
      }

      .cls-14, .cls-15, .cls-16 {
        mix-blend-mode: soft-light;
      }

      .cls-15 {
        fill: url(#_Áåçûìÿííûé_ãðàäèåíò_714);
      }

      .cls-16 {
        fill: #aba7b5;
      }
    </style>
    <radialGradient id="_Áåçûìÿííûé_ãðàäèåíò_369" data-name="Áåçûìÿííûé ãðàäèåíò 369" cx="-599.41" cy="-547.06" fx="-599.41" fy="-547.06" r="108.07" gradientTransform="translate(-650.09 -55.97) rotate(-125.95) scale(1 -1)" gradientUnits="userSpaceOnUse">
      <stop offset="0" stop-color="#0645ff"/>
      <stop offset=".11" stop-color="#0543fa"/>
      <stop offset=".24" stop-color="#0540ed"/>
      <stop offset=".37" stop-color="#053ad7"/>
      <stop offset=".5" stop-color="#0432b8"/>
      <stop offset=".64" stop-color="#032791"/>
      <stop offset=".77" stop-color="#021a61"/>
      <stop offset=".91" stop-color="#000b29"/>
      <stop offset="1" stop-color="#000"/>
    </radialGradient>
    <radialGradient id="_Áåçûìÿííûé_ãðàäèåíò_103" data-name="Áåçûìÿííûé ãðàäèåíò 103" cx="-599.41" cy="-547.06" fx="-599.41" fy="-547.06" r="101.62" gradientTransform="translate(-650.09 -55.97) rotate(-125.95) scale(1 -1)" gradientUnits="userSpaceOnUse">
      <stop offset=".65" stop-color="#ff1568"/>
      <stop offset=".69" stop-color="#fa1466"/>
      <stop offset=".74" stop-color="#ed1360"/>
      <stop offset=".78" stop-color="#d71157"/>
      <stop offset=".83" stop-color="#b80f4b"/>
      <stop offset=".87" stop-color="#910b3b"/>
      <stop offset=".92" stop-color="#610827"/>
      <stop offset=".97" stop-color="#290310"/>
      <stop offset="1" stop-color="#000"/>
    </radialGradient>
    <radialGradient id="_Áåçûìÿííûé_ãðàäèåíò_376" data-name="Áåçûìÿííûé ãðàäèåíò 376" cx="-599.41" cy="-547.06" fx="-599.41" fy="-547.06" r="92.89" gradientTransform="translate(-650.09 -55.97) rotate(-125.95) scale(1 -1)" gradientUnits="userSpaceOnUse">
      <stop offset=".83" stop-color="#06a2ff"/>
      <stop offset=".85" stop-color="#059ffa"/>
      <stop offset=".87" stop-color="#0596ed"/>
      <stop offset=".89" stop-color="#0588d7"/>
      <stop offset=".91" stop-color="#0475b8"/>
      <stop offset=".94" stop-color="#035c91"/>
      <stop offset=".96" stop-color="#023d61"/>
      <stop offset=".98" stop-color="#001a29"/>
      <stop offset="1" stop-color="#000"/>
    </radialGradient>
    <radialGradient id="_Áåçûìÿííûé_ãðàäèåíò_158" data-name="Áåçûìÿííûé ãðàäèåíò 158" cx="-579.53" cy="-550.29" fx="-579.53" fy="-550.29" r="96.38" gradientTransform="translate(-650.09 -55.97) rotate(-125.95) scale(1 -1)" gradientUnits="userSpaceOnUse">
      <stop offset="0" stop-color="#8b5eb8"/>
      <stop offset=".15" stop-color="#8557b2"/>
      <stop offset=".36" stop-color="#7645a2"/>
      <stop offset=".61" stop-color="#5e2889"/>
      <stop offset=".85" stop-color="#41046a"/>
      <stop offset=".99" stop-color="#7a1c5c"/>
    </radialGradient>
    <linearGradient id="_Áåçûìÿííûé_ãðàäèåíò_559" data-name="Áåçûìÿííûé ãðàäèåíò 559" x1="-650.44" y1="-562.93" x2="-650.44" y2="-566.32" gradientTransform="translate(-650.09 -55.97) rotate(-125.95) scale(1 -1)" gradientUnits="userSpaceOnUse">
      <stop offset="0" stop-color="#e8ddff"/>
      <stop offset="1" stop-color="#aa8ad8"/>
    </linearGradient>
    <radialGradient id="_Áåçûìÿííûé_ãðàäèåíò_714" data-name="Áåçûìÿííûé ãðàäèåíò 714" cx="-659.48" cy="-599.99" fx="-659.48" fy="-599.99" r="57.37" gradientTransform="translate(-650.09 -55.97) rotate(-125.95) scale(1 -1)" gradientUnits="userSpaceOnUse">
      <stop offset="0" stop-color="#fff"/>
      <stop offset="1" stop-color="#8b8dcc"/>
    </radialGradient>
    <radialGradient id="_Áåçûìÿííûé_ãðàäèåíò_165" data-name="Áåçûìÿííûé ãðàäèåíò 165" cx="117.71" cy="71.19" fx="117.71" fy="71.19" r="44.72" gradientTransform="translate(34.98 -38.72) rotate(21.87)" gradientUnits="userSpaceOnUse">
      <stop offset="0" stop-color="#d86084"/>
      <stop offset="1" stop-color="#000"/>
    </radialGradient>
    <radialGradient id="_Áåçûìÿííûé_ãðàäèåíò_165-2" data-name="Áåçûìÿííûé ãðàäèåíò 165" cy="71.19" fy="71.19" r="21.19" gradientTransform="matrix(1,0,0,1,0,0)" xlink:href="#_Áåçûìÿííûé_ãðàäèåíò_165"/>
    <radialGradient id="_Áåçûìÿííûé_ãðàäèåíò_108" data-name="Áåçûìÿííûé ãðàäèåíò 108" cx="45.21" cy="95.4" fx="45.21" fy="95.4" r="45.21" gradientUnits="userSpaceOnUse">
      <stop offset="0" stop-color="#9c1f59"/>
      <stop offset=".15" stop-color="#971e56"/>
      <stop offset=".31" stop-color="#8a1b4e"/>
      <stop offset=".48" stop-color="#741742"/>
      <stop offset=".65" stop-color="#561131"/>
      <stop offset=".83" stop-color="#2e091a"/>
      <stop offset="1" stop-color="#000"/>
    </radialGradient>
    <radialGradient id="_Áåçûìÿííûé_ãðàäèåíò_177" data-name="Áåçûìÿííûé ãðàäèåíò 177" cx="45.21" cy="95.4" fx="45.21" fy="95.4" r="40.2" gradientUnits="userSpaceOnUse">
      <stop offset=".65" stop-color="#0645ff"/>
      <stop offset=".69" stop-color="#0543fa"/>
      <stop offset=".74" stop-color="#0540ed"/>
      <stop offset=".78" stop-color="#053ad7"/>
      <stop offset=".83" stop-color="#0432b8"/>
      <stop offset=".87" stop-color="#032791"/>
      <stop offset=".92" stop-color="#021a61"/>
      <stop offset=".97" stop-color="#000b29"/>
      <stop offset="1" stop-color="#000"/>
    </radialGradient>
    <radialGradient id="_Áåçûìÿííûé_ãðàäèåíò_4" data-name="Áåçûìÿííûé ãðàäèåíò 4" cx="45.21" cy="95.4" fx="45.21" fy="95.4" r="38.54" gradientUnits="userSpaceOnUse">
      <stop offset="0" stop-color="#9c1f59"/>
      <stop offset="0" stop-color="#a01f56"/>
      <stop offset=".02" stop-color="#ad1f50"/>
      <stop offset=".03" stop-color="#c31f45"/>
      <stop offset=".04" stop-color="#db1f39"/>
      <stop offset=".15" stop-color="#d61e37"/>
      <stop offset=".28" stop-color="#c81c34"/>
      <stop offset=".42" stop-color="#b1192e"/>
      <stop offset=".56" stop-color="#911425"/>
      <stop offset=".71" stop-color="#670e1a"/>
      <stop offset=".86" stop-color="#35070d"/>
      <stop offset="1" stop-color="#000"/>
    </radialGradient>
    <radialGradient id="_Áåçûìÿííûé_ãðàäèåíò_238" data-name="Áåçûìÿííûé ãðàäèåíò 238" cx="41.09" cy="86.17" fx="41.09" fy="86.17" r="44.06" gradientUnits="userSpaceOnUse">
      <stop offset="0" stop-color="#6aa2ff"/>
      <stop offset=".77" stop-color="#5b2d74"/>
      <stop offset="1" stop-color="#9a3989"/>
    </radialGradient>
    <radialGradient id="_Áåçûìÿííûé_ãðàäèåíò_243" data-name="Áåçûìÿííûé ãðàäèåíò 243" cx="38.16" cy="86.2" fx="38.16" fy="86.2" r="18.89" gradientTransform="translate(0 2.11) scale(1 .94)" gradientUnits="userSpaceOnUse">
      <stop offset="0" stop-color="#ff6dff"/>
      <stop offset="1" stop-color="#000"/>
    </radialGradient>
    <radialGradient id="_Áåçûìÿííûé_ãðàäèåíò_173" data-name="Áåçûìÿííûé ãðàäèåíò 173" cx="59.21" cy="99.31" fx="59.21" fy="99.31" r="18.89" gradientTransform="translate(213.02 53.75) rotate(90) scale(1 1.41)" gradientUnits="userSpaceOnUse">
      <stop offset="0" stop-color="#ff4074"/>
      <stop offset="1" stop-color="#000"/>
    </radialGradient>
  </defs>
  <g class="cls-21">
    <g id="Layer_2" data-name="Layer 2">
      <g id="Layer_1-2" data-name="Layer 1">
        <g>
          <g id="planet-1">
            <path class="cls-4" d="M81.23,20.59c-.89.64-1.76,1.3-2.61,1.96-8.64,6.65-15.99,14.37-22.01,22.83-16.97,23.86-23.45,53.62-18.26,82.1,2.8,15.42,9.02,30.48,18.84,44.03,10.41,14.36,23.72,25.41,38.52,32.91,22.82,11.6,49.27,14.78,74.3,8.74,2.13-.51,4.26-1.08,6.37-1.74,11.1-3.39,21.82-8.66,31.74-15.85,45.45-32.96,57.69-94.71,29.8-142.14-1.37-2.36-2.85-4.67-4.44-6.93,0,0-.01-.01-.02-.03-.41-.63-.85-1.23-1.29-1.84-4.75-6.55-10.11-12.42-15.94-17.58-3.63-3.24-7.46-6.19-11.45-8.83C184.94,4.97,161.33-1.25,137.87.21c-19.76,1.22-39.42,7.89-56.64,20.38Z"/>
            <path class="cls-10" d="M85.01,25.81c-.83.6-1.66,1.22-2.45,1.84-8.13,6.25-15.04,13.51-20.7,21.47-15.96,22.43-22.05,50.42-17.17,77.2,2.64,14.5,8.48,28.66,17.72,41.4,9.79,13.5,22.3,23.89,36.22,30.94,21.46,10.91,46.33,13.9,69.86,8.22,2-.48,4-1.02,5.99-1.64,10.44-3.19,20.52-8.15,29.84-14.91,42.74-30.99,54.25-89.05,28.02-133.66-1.29-2.22-2.68-4.39-4.18-6.52,0,0,0-.01-.02-.03-.38-.59-.8-1.16-1.21-1.73-4.47-6.16-9.5-11.68-14.99-16.53-3.42-3.05-7.01-5.82-10.77-8.31-18.65-12.46-40.84-18.3-62.9-16.93-18.58,1.15-37.07,7.42-53.26,19.17Z"/>
            <path class="cls-1" d="M90.14,32.88c-.76.55-1.51,1.12-2.24,1.68-7.43,5.72-13.75,12.35-18.92,19.63-14.59,20.51-20.15,46.09-15.7,70.57,2.41,13.25,7.75,26.2,16.2,37.84,8.95,12.34,20.38,21.84,33.11,28.29,19.62,9.97,42.35,12.7,63.86,7.52,1.83-.44,3.66-.93,5.48-1.49,9.54-2.91,18.76-7.45,27.28-13.63,39.07-28.33,49.59-81.4,25.61-122.18-1.18-2.03-2.45-4.01-3.82-5.96,0,0,0-.01-.02-.03-.35-.54-.73-1.06-1.11-1.58-4.08-5.63-8.69-10.67-13.7-15.11-3.12-2.79-6.41-5.32-9.84-7.59-17.04-11.39-37.33-16.73-57.5-15.48-16.98,1.05-33.89,6.79-48.69,17.52Z"/>
            <path class="cls-9" d="M92.13,35.63c-.73.53-1.46,1.08-2.16,1.62-7.16,5.51-13.24,11.9-18.23,18.91-14.05,19.76-19.42,44.4-15.12,67.99,2.32,12.77,7.47,25.24,15.6,36.46,8.62,11.89,19.64,21.04,31.9,27.25,18.9,9.6,40.8,12.24,61.53,7.24,1.76-.42,3.53-.9,5.28-1.44,9.19-2.81,18.07-7.17,26.28-13.13,37.64-27.29,47.77-78.43,24.68-117.71-1.14-1.95-2.36-3.87-3.68-5.74,0,0,0-.01-.02-.02-.34-.52-.7-1.02-1.07-1.52-3.93-5.43-8.37-10.28-13.2-14.55-3.01-2.68-6.18-5.12-9.48-7.31-16.42-10.97-35.97-16.12-55.4-14.91-16.36,1.01-32.65,6.54-46.91,16.88Z"/>
            <path class="cls-11" d="M139.04,18.75c.23.06.46.12.67.18,1.16.37,2.5.91,3.56,1.52.94.55,1.62,1.36,2.43,1.91,1.4.96,3.05,1.69,4.66,2.31,1.97.76,3.58,1.93,5.52,2.73,5.06,2.07,10.9,1.17,16.23,1.09,1.29-.02,2.12.01,3.37-.17.85-.11,1.59.04,2.42.2,1.81.33,3.81.86,5.12,2.25.8.84.84,2,1.1,3.14.37,1.54.5,2.1-1.07,2.2-2.73.17-6-.22-6.87,3.17-.56,2.16-1.26,4.2-1.52,6.42-.27,2.45-1.36,5.25-.34,7.71.76,1.82,2.99,2.48,4.55,3.5,1.39.91,3,1.69,4.1,2.96.87.99,1.14,2.16,1.74,3.3.93,1.77,2.51,3.33,4.57,2.97.79-.12.83-.43,1.68-.15.78.25,1.62,1.08,2.22,1.6,1.81,1.6,3.12,3.76,4.94,5.32,1.22,1.04,2.74,1.87,4.07,2.76.88.57,1.62,1.55,2.51,1.92.52.22,1.25.31,1.81.52,1.69.58,2.64,1.2,3.68,2.7,2.07,2.96,3.97,7.49,4.53,11.13.36,2.37-.61,3.07-2.64,3.69-1.74.53-4.38.59-5.63,2.01-1.05,1.19-1.34,2.93-2.22,4.22-.86,1.28-1.66,2.49-3.24,2.83-2.65.58-5.55-.15-8.23.12-3.02.31-7.09,2.25-7.02,5.67.05,1.68-.6,3.1-1.16,4.68-.39,1.06-1.19,2.43-.11,3.36.71.62,2.13.52,2.89,1.08.87.64,1.08,1.59,1.14,2.6.1,1.55.51,3.47.19,5.01-.59,2.81-4.27,5.32-6.93,5.79-3.19.58-6.37,1.35-9.37-.25-1.91-1.02-3.34-2.96-5.75-2.63-1.48.22-2.41,1.15-3.7,1.71-1.29.56-2.59.78-3.84,1.52-1.17.7-2.33,1.26-3.61,1.74-1.77.65-3.63,1.45-5.47,1.87-2.18.5-4.33.05-6.5.07-1.94,0-3.4-.68-5.3-.91-2.08-.24-4.17-.99-6.26-.63-1.58.27-3.13.72-4.74.92-4.47.5-4.73-4.25-4.85-7.59-.1-2.32-.21-4.43.28-6.69.39-1.75.83-3.59.86-5.4.02-1.77.09-3.68-.15-5.43-.09-.7-.35-1.39-.19-2.12.24-1.14,1.02-2.09,2.01-2.84,2.09-1.59,4.55-3.99,6.98-4.98,2.64-1.11,4.25,1.56,5.58,3.32.76,1,1.86,2.16,3.18,1.97,1.23-.18,2.09-1.07,3.46-1.15,1.46-.07,2.53.61,3.12,1.99.25.58.26,1.13.57,1.71.31.56.89.81.76,1.54-.24,1.52-2.51.94-3.61.91-1.97-.06-2.32.04-3.24,1.79-.52,1.01-1.27,2.67-.05,3.43.87.53,2.95-.12,3.9-.07,4.05.21,8.15.45,9.72-4.21.49-1.46-.08-2.07-.11-3.44-.03-1.41.96-2.79.87-4.28-.14-1.97-2.07-3.74-3.19-5.3-1.32-1.84-3.04-3.76-4.71-5.29-1.2-1.11-2.23-1.46-3.64-2.06-1.39-.61-1.8-2.12-2.89-3.09-2.02-1.76-4.24-1.55-6.72-1.84-2.43-.29-3.94.43-6.22,1.34-4.59,1.85-9.31,4.08-13.32,7.01-3.48,2.56-6.89,5.44-10.83,7.15-1.92.83-3.77,1.39-5.76,1.88-.64.15-.61-.15-1.18.45-.34.36-1.06,1.8-1.23,2.29-.44,1.29-.2,3.2-.38,4.59-.19,1.35.08,2.65.11,4.01.06,1.95.25,3.81.36,5.74.19,3.12-2.69,5.16-3.08,8.3-.56,4.45,1.21,7.87,2.39,12.06.95,3.36,2.13,6.57,2.67,9.98.34,2.14.17,4.11.71,6.25.69,2.7,2.01,5.14,3.02,7.71.8,2.03,1.85,3.97,3.33,5.6.97,1.05,1.94,1.65,2.82,2.89,1.57,2.16,3.12,4.38,4.73,6.53.87,1.14,2.15,1.73,3.34,2.52,1.2.81,2.5,1.52,3.72,2.33,3.2,2.1,6.72,5.83,10.77,5.88,1.19.02,2.4-.25,3.58-.15.99.1,1.8.56,2.75.81.8.2,1.46.34,2.2.64,1.2.49,2.1.51,3.4.67,1.05.13,2.06.48,3.03.92.49.22,1.22.83,1.74.88.69.08.75-.3,1.34-.6.65-.34,1.31-.41,1.98-.69,1.79-.77,4.27-1.25,6.29-.38,1.09.48,1.61.98,2.8,1.23,2.2.51,3.31.55,5.54-.18-.03.06-.06.12-.09.16-20.73,5-42.63,2.36-61.53-7.24-.15-.67-.3-1.33-.41-1.98-.36-2.01-1.35-3.33-2.53-4.93-1.54-2.13-2.82-4.3-3.95-6.68-1.02-2.1-2.27-3.87-3.66-5.77-1.73-2.33-2.85-4.98-4.59-7.34-1.67-2.22-3.82-3.8-5.88-5.62-2.96-2.61-4.48-6.56-6.08-10.1-.73-1.6-.9-3.45-1.71-5.01-.5-.94-1.15-1.74-1.6-2.74-1.08-2.33-2.91-5.2-4.72-7.08-1.24-1.28-2.77-1.05-4.25-1.6-1.56-.58-2.05-2.52-3.09-3.65-1.22-1.32-3.26-1.59-5.03-1.22-4.29-23.59,1.07-48.23,15.12-67.99,1.45,2.03,2,6.23,2.94,7.32.58.66,1.41.97,1.97,1.74.53.73.7,1.45,1.06,2.25.55,1.19,1.26,2.67,2.66,2.51,1.39-.17,2.55-2.52,3.91-1.16.67.69.6,1.82,1.38,2.58.68.63,1.21,1.1,1.75,1.87.92,1.29,1.35,2.51,2.06,3.87.35.69.88.98,1.45,1.46.45.38,1.07,1.37,1.55,1.6,1.73.85,2.27-1.39,2.71-2.54.21-.6.41-1.39.7-1.96.35-.67.72-.75,1.21-1.27,1.26-1.3,1.58-3.09,1.74-4.86.22-2.58.5-5.32,1.44-7.74.42-1.09.53-1.87,1.33-2.7.6-.62,1.17-1.24,1.75-1.88.71-.77,1.2-1.48,1.78-2.35.78-1.14,1.88-1.96,2.69-3.07.69-.95,1.81-3.29,1.71-4.5-.06-.57-.48-1.03-.47-1.65,0-.62.38-.99.23-1.62-.35-1.44-2.83-2.82-3.93-3.57-1.68-1.13-3.95-2-5.94-2.35-2.18-.38-4.02-.2-6.16-.19-.76,0-2.31-.15-3.28-.7.7-.55,1.43-1.09,2.16-1.62,14.26-10.34,30.54-15.86,46.91-16.88ZM132.54,80.48c-.36.53.08,1.71.49,2.11.81.83,2.41.77,3.49,1.05,1.16.29,2.31.25,3.38-.35l-.96-.35c1.43-.01,3.12.42,3.77-1.3.36-.97-.13-1.67-.94-2.15-1.34-.76-2.83-1.66-4.4-1.73-1.08-.05-1.88.6-2.71,1.22-.55.4-1.69.93-2.11,1.49ZM162.49,35.44c-.48.98-.45,2.26-.19,3.29.19.78.77,2.04,1.25,2.7,1.12,1.57,3.4,2.12,5.12,2.59.99.29,3.54.62,1.4-.96.75-.19,1.44-.26,2-.74.39-.32.76-.83,1.08-1.21.78-.9,1.14-2.02,1.84-2.96.53-.7,1.2-1.58,1.89-2.15.62-.53,1.34-.75,1.37-1.68.02-.59-.22-.89-.71-1.09-.52-.22-1.4-.08-1.99-.14-.66-.06-1.31-.11-1.98-.13-1.93-.11-3.83.54-5.75.59-1.07.01-1.92-.08-3,.24-.93.26-1.86.77-2.33,1.67ZM106.53,33.8c-.74,1.68.28,3.88,1.08,5.37,1.18,2.2,3.52,4.16,5.44,5.75.81.68,1.49,1.08,2.5,1.36,1.04.31,2.02,1.01.99-.08,1.44-.46,2.61-.98,3.96-1.58,1.62-.75,3.43-1.13,5.13-1.72,2.81-.99,6.2-2.15,8.16-4.54,1.28-1.56,2.09-4.03,1.4-5.96-.49-1.34-1.48-2.81-2.64-3.64-1.45-1.07-3.26-1.53-4.97-1.97-1.68-.42-3.59-.47-5.25.09-1.19.42-2.29,1.08-3.51,1.41-.62.17-1.19.31-1.8.52-.76.29-1.53.18-2.33.21-1.2.05-2.13-.04-3.14.63-.94.63-1.82,1.34-2.74,2.01-.87.63-1.82,1.12-2.27,2.13Z"/>
            <path class="cls-11" d="M191.3,128.35c-.44.77-1.54,2.43-1.35,3.43.21,1.14,1.89,1.48,2.73,1.9.69.34,1.47.53,2.1.99.52.38.91.9,1.49,1.21.42.23,1.2.62,1.67.67.55.06,1-.2,1.53-.35,1.3-.35,2.52-1.2,3.75-1.74.78-.34,1.21-.86,1.73-1.52.69-.88,1.45-1.7,2.1-2.6.94-1.29,2.01-2.62,2.63-4.1.57-1.37.54-2.52.21-3.96-.13-.59-.44-1.11-.56-1.71-.15-.72-.25-1.48-.57-2.16-.18-.37-.4-.79-.69-1.08-.4-.41-.74-.41-1.2-.63-.67-.32-.92-.53-1.69-.55-.57-.01-1.16.06-1.7.25-1.11.39-2.32.58-3.39,1.05-1.43.63-2.44,1.34-3.31,2.68-.76,1.17-1.68,2.19-2.63,3.22-.78.85-1.91,2.04-2.32,3.18-.3.83-.33,1.62-.53,1.82Z"/>
            <path class="cls-5" d="M190.51,138.47c-.06.59-.28,1.1-.64,1.53-.74-.35-1.82.48-2.57-.18.17-.73-.05-2.15,1.08-2.23.16-.01.42.21.59.24.24.04.51-.09.71.01.45.23.96,1.31,1.26,1.72l-.44-1.09Z"/>
            <path class="cls-11" d="M173.8,127.61c-.88.13-1.3.21-2.1.04-.63-.14-1.33-.37-1.96-.53-1.13-.29-2.5-.87-3.66-.93-1.16-.06-1.65.6-2.55,1.11-.54.3-1.16.53-1.72.8-.32.15-.63.2-.95.4-.36.24-.63.53-1.03.69-.81.32-1.69.21-2.5.55-.62.26-1.21.65-1.93.65-.55,0-.95-.33-1.46-.48-.64-.19-1.27-.2-1.94-.2-2.25,0-4.16,1.2-6.35,1.37-1.99.15-3.27-2.4-4.5-3.56-.2-.19-.52-.26-.68-.5-.16-.26-.14-.67-.21-.96-.15-.58-.4-.98-.82-1.37-.25-.23-.32.07-.52-.4-.12-.28.08-.87.19-1.13.34-.84.96-1.16,1.77-1.45.83-.3,1.66-.63,2.49-.93.77-.28,1.58-.37,2.32-.74.72-.37,1.27-.96,2-1.32,1.76-.87,3.16-.53,5.07-.19,1.73.3,3.72,1.3,5.28.03.63-.51.45-.81.67-1.47.24-.71.81-1.4.85-2.2.02-.3-.25-1.1-.35-1.43-.18-.64-.48-1.31-.58-1.98-.11-.77.31-1.06.47-1.73.1-.42-.06-.31-.12-.71-.07-.52-.04-.63.08-1.18.17-.83.35-1.55.78-2.29.37-.63.66-1.14.78-1.88.14-.85.25-1.8.26-2.66.02-.88-.17-1.88-.57-2.67-.2-.41-.53-.71-.79-1.08-.76-1.06-.89-2.46-1.16-3.71-.4-1.84-.28-5.16-2.78-5.41-.75-.07-1.41.39-2.16.18-1.62-.46-1.91-2.26-2.25-3.67-.56-2.37-.37-4.78-.11-7.18.17-1.53.34-2.84,1.61-3.85,2.45-1.97,5.68-1.14,8.36-2.56,2.59-1.37,4.33-4.24,6.38-6.26,1.03-1.02,2.67-2.06,4.15-2.07.5,0,1.23.11,1.73.27,1.16.39,1.28,1.17,2.04,1.94.52.52.95.55,1.59.71,1.72.43,2.72,2.84,3.68,4.13,1.41,1.89,3.17,3.83,5.34,4.83,2.55,1.18,5.12,2.26,7.8,3.12,1.94.62,4.03,1.28,5.86,2.19,1.3.65,2.35,1.79,3.25,2.91,1.27,1.58,1.91,3.36,1.39,5.38-.48,1.91-1.56,1.86-3.24,2.41-.54.18-1.71.45-1.97,1.05-.4.91.75,2.09,1.24,2.75.43.59,1.6,1.67,1.13,2.51-.35.62-1.69,1.26-2.26,1.68-.56.41-1.08,1.02-1.79.95-.55-.05-.9-.48-1.36-.71-.82-.4-1.53-.12-2.39-.09-.64.02-1.23-.25-1.85-.37-.76-.15-1.68-.08-2.38-.43-1.2-.6-1.62-1.74-3.09-1.99-.49-.08-1.05-.05-1.52-.24-.38-.16-.68-.48-1.01-.7-.81-.55-2.1-1.32-3.09-.74-1.01.59-.72,2.28-.39,3.15.3.79,1,1.83.38,2.59-.52.65-1.41.67-1.72,1.54-.98,2.73,2.47,4.23,3.74,6.08,1.91,2.79.68,5.92-.32,8.77-.1.27-.06.59-.16.85-.17.47-.44.5-.68.89-.32.52-.22,1.21-.11,1.78.14.79.2,1.32.65,1.99.49.72,1.17,1.39,1.58,2.16.82,1.53-.39,3.16-1.91,3.7-.98.35-2.28-.18-3.31-.04-.82.11-1.61.33-2.45.29-.46-.02-.96-.22-1.42-.29-.69-.11-1.34.14-.75-.16Z"/>
            <path class="cls-11" d="M128.42,82.09c-.67.68-1.07,1.18-1.84,1.62-.64.37-1.29.64-1.91,1.06-1.62,1.11-3.02,2.57-4.62,3.74-.94.69-1.91.98-2.93,1.48-1.34.65-2.16,1.88-3.35,2.72-1.64,1.16-3.35,2.34-5.45,2.27-.82-.03-1.42-.21-1.97-.89-.49-.6-.53-1.37-1.04-1.99-.43-.52-1.03-.59-1.61-.92-.74-.41-1.45-.87-2.15-1.33-.68-.44-1.15-.54-1.92-.68-.66-.12-1.27-.56-1.96-.28-.73.3-.61,1.23-.79,1.91-.37,1.38-.67,2.62-.4,4.05.17.9.4,1.2,1.12,1.73.66.49,1.31.91,1.36,1.85.07,1.21-.14,2.55-.64,3.65-.07.15-.4.64-.49.71-.44.39-.14.13-.63.18-.54.05-.97-.03-1.45.32-.7.51-1.45,1.6-1.81,2.38-.25.55-.46,1.17-.49,1.79-.03.72-.25,1.33-.22,2.07.06,1.43-.33,2.69-.1,4.16.26,1.7.24,3.43.2,5.15-.08,3.63.48,7.03-1.09,10.45-.38.83-1.52,2.16-2.51,2.26-.4.04-.95-.23-1.37-.26-.79-.06-1.36.2-2.12.41-.81.22-2.04.59-2.89.35-.83-.24-1.8-1.11-2.34-1.79-.32-.4-.55-.8-.91-1.18-.27-.28-.55-.4-.82-.73-.94-1.16-1.64-2.21-3.13-2.81-.51-.2-1.02-.27-1.56-.28-.63-.02-1.4.23-2.02.11-1.25-.24-1.72-2.31-1.98-3.27-.37-1.4-.56-3.16-1.68-4.22-.67-.64-1.64-.76-2.4-1.31-1.05-.75-1.91-1.26-3.1-1.74-.51-.2-.79-.27-1.15-.71-1.09-1.35-1.28-3.31-1.48-4.98-.24-1.99-.17-3.98-.42-5.96-.27-2.18-.18-3.85.14-6.01.29-1.94.08-3.84.13-5.79.04-1.48.13-2.95.19-4.43.07-1.51.49-2.99.78-4.46.23-1.17.3-2.3.74-3.42.48-1.24,1.08-2.5,1.42-3.78.37-1.39.77-2.56,1.39-3.85.57-1.18,1.81-3.33,3.51-2.51,1.21.58,1.98,2.25,2.75,3.28,1.24,1.66,3.25,2.14,5.22,2.31,1.59.14,3.17,0,4.75.27.78.13,1.91.1,2.56.6.49.38.94,1.13,1.19,1.67.6,1.33,1.39,2.53,2.47,3.53.95.88,2.33,2.09,3.64,2.31.84.14,1.77.02,2.62.05,1.26.05,2.57-1.25,3.23-2.26,1.4-2.13,3.36-3.84,4.67-6.03.83-1.39-.68-2.73-.85-4.17-.13-1.14.32-2.03.52-3.1.17-.92.03-2,.05-2.95.04-3.16,2.2-5.29,5.52-5.01,1.9.16,3.44,1.31,4.06,3.07.28.78.6,1.57.78,2.38.24,1.07.25,2.13.76,3.14,1.96,3.86,5.97,5.39,9.66,7.03,1.7.76,3.46,1.82,4.76,3.16.72.74.97.9,1.08,2,.08.78.32,1.26.5,2.01.19.77-.06,1.56-.2-.13Z"/>
            <path class="cls-15" d="M203.92,40.98c.06.11.11.23.18.37.71,1.78,1.79,3.34,2.94,4.93.26.35.51.91.84,1.18.26.22.48.23.73.49.55.55,1.12,1.13,1.69,1.61,1.03.83,1.82,2.26,2.63,3.39.98,1.38,2.65,2.31,3.48,3.76.9,1.58,1.34,3.39,2.45,4.86l.75,1.04c.63.9.4,1.66.7,2.92-.47.66-1.44,1.64-1.49,2.48-.01.29.05.66.11.93.2.79.3,1.59.61,2.36.56,1.44,1.12,2.93,1.99,4.23.73,1.08,1.61,1.91,2.46,2.88,1.68,1.9,3.37,3.64,3.89,6.22.28,1.42.52,2.87.83,4.3.18.82.46,1.74.48,2.56.02.64-.13,1.29-.15,1.92-.02.76.43,1.44.63,2.18.22.9.07,1.64-.19,2.52-.36,1.17-1.38,1.77-1.84,2.81-.26.64-.13,1.27-.05,1.9.31,2.97-1.42,5.24-1.97,8.06-.41,2.05.39,4.14.13,6.25-.24,2.11-.84,4.17-1.34,6.23-.35,1.39-.17,2.18.12,3.49.27,1.28.41,2.91.11,4.19-.32,1.39-.66,2.72-.84,4.14-.14,1.11.1,2.22-.09,3.33-.19,1.02-.76,1.89-1.13,2.84-.83,2.09-2.14,3.86-3.04,5.91-.73,1.69-.9,3.9-2.4,5.12-.54.44-.91.57-1.51.82-.87.35-1.53,1.11-2.31,1.62-.46.29-.92.38-1.41.55-.63.23-1.21.65-1.88.78-1.09.19-2.22-.18-3.31-.14-1.26.06-2.2.77-2.91,1.75-.73,1.02-1.46,2.1-2.13,3.16-1.04,1.63-1.37,3.85-2.67,5.31-.5.55-1.2.74-1.83,1.03-.76.34-1.59.8-2.3,1.22-.77.45-1.38,1.06-1.92,1.75-.37.49-.54,1.01-.77,1.62-.11.26-.06.58-.15.85-.17.48-.55.81-.81,1.26-.25.45-.89,1.45-.79,1.99.2,1.14,2.1.23,1.98,1.14-.07.65-1.17,1.01-1.6,1.4-.55.5-1.12,1.28-1.48,1.95-.76,1.35-.72,2.01-2.19,2.59-1.19.47-2.33.7-3.6.82-1.54.13-2.44,1.14-3.78,1.68-.72.3-1.26.88-1.91,1.31-.63.42-1.3.5-1.98.8-.48.22-1.24.64-1.52,1.1-.2.33-.09.83-.16,1.2-.16.73-.64,1.1-1.1,1.65-.67.86-1.33,1.43-2.21,2.07,9.19-2.81,18.07-7.17,26.28-13.13,37.64-27.29,47.77-78.43,24.68-117.71-1.14-1.95-2.36-3.87-3.68-5.74,0,0,0-.01-.02-.02-.34-.52-.7-1.02-1.07-1.52-3.93-5.43-8.37-10.28-13.2-14.55Z"/>
            <circle class="cls-19" cx="117.71" cy="71.19" r="44.72" transform="translate(-18.05 48.97) rotate(-21.87)"/>
            <circle class="cls-17" cx="117.71" cy="71.19" r="21.19"/>
            <path class="cls-11" d="M137.46,147.01c.5.46,1.01.92,1.63,1.19,1.16.51,2.49.29,3.73.06,1.1-.2,2.2-.41,3.3-.61.7-.13,1.43-.28,1.95-.76.88-.83.74-2.32.09-3.35-1.14-1.79-3.35-2.53-5.42-2.98-2.13-.46-5.87-.78-7.8.64-2.72,2,.97,4.39,2.52,5.81Z"/>
            <path class="cls-11" d="M143.37,134.87c-1.48.1-2.96-.16-4.43-.43-3.33-.61-6.67-1.21-10-1.82-.98-.18-2.03-.4-2.69-1.14-.92-1.04-.69-2.62-.52-3.99.09-.76.14-1.57-.21-2.25-.34-.68-1.21-1.16-1.89-.82-.73.36-.85,1.34-.82,2.15.09,2.36.64,4.7,1.6,6.85.39.87.87,1.73,1.65,2.27,1.58,1.09,3.7.45,5.6.14,4.6-.76,9.13.64,13.63,1.38,1.38.23,3.45.85,2.58-1.22-.7-1.68-3.1-1.21-4.49-1.12Z"/>
            <path class="cls-11" d="M108.56,54.38c.9-1.6,1.79-3.21,2.69-4.81.25-.45.51-.91.92-1.21.65-.48,1.53-.47,2.34-.53,4.25-.29,8.01-2.87,12.2-3.63.78-.14,1.69-.18,2.27.36-.88.83-1.77,1.67-2.65,2.5-.57.54-1.15,1.08-1.85,1.44-1.12.58-2.42.62-3.68.69-2.46.13-5.09.49-6.9,2.16-1.44,1.33-2.07,3.23-3.33,4.7-2,2.33-3.42.86-2-1.67Z"/>
            <path class="cls-11" d="M130.97,43.22c-.43.04-.65-.56-.49-.97.23-.56.95-.88,1.5-.64.56.24.81,1.02.47,1.53-.34.5-1.19.55-1.56.07h.07Z"/>
            <path class="cls-11" d="M139.24,22.76c2.22.46,4.31,1.42,6.32,2.47,3.3,1.73,6.46,3.72,9.45,5.95.16.12.33.26.34.46,0,.16-.09.3-.2.41-1.26,1.39-3.53.86-5.26.14-1.73-.72-3.43-1.53-5.08-2.43-2.33-1.27-4.76-2.76-7.41-2.57-1.03.07-2.03.4-3.05.51-2.11.22-4.67-1.61-2.91-3.72,1.55-1.86,5.77-1.63,7.8-1.22Z"/>
            <path class="cls-11" d="M158.71,29.36c.47-.07.95.02,1.41.11,1.49.3,2.99.6,4.48.9.42.08.94.29.92.72,0,.2-.15.36-.28.51-.74.85-1.52,1.69-2.49,2.28-.97.59-2.15.89-3.24.6-2.13-.57-4-4.63-.8-5.13Z"/>
            <path class="cls-11" d="M156.51,137.59c2.22-.9,4.45-1.8,6.67-2.69.7-.28,1.43-.57,2.19-.53.84.04,1.61.48,2.42.72,1.25.37,2.58.25,3.87.44,2.96.45,6.04,2.51,8.68,1.1.52-.28.99-.69,1.57-.81.58-.13,1.32.2,1.33.8,0,.28-.15.53-.31.75-1.91,2.7-5.08,4.48-8.39,4.69-1.2.08-2.51-.08-3.42-.87-.52-.46-.86-1.09-1.34-1.6-1.18-1.25-3.08-1.58-4.79-1.35-1.71.24-3.3.95-4.93,1.52-1.19.42-5.8,2.27-6.86,1.35-1.75-1.51,2.43-3.15,3.31-3.51Z"/>
            <path class="cls-11" d="M162.55,142.51c.73-.37,1.65-.43,2.37-.04.72.39,1.18,1.28.96,2.07-.29,1.05-1.5,1.5-2.54,1.8-.61.17-1.22.35-1.82.52-.4.11-.81.23-1.23.24-.38.01-.76-.06-1.14-.09-.9-.08-1.83.09-2.65.47-.23.11-.46.23-.72.24-.3.01-.58-.13-.84-.28-.82-.48-1.6-1.04-2.3-1.68-.11-.1-.23-.23-.23-.38,0-.19.2-.32.38-.4,1.78-.77,3.69-.23,5.54-.26,2.61-.04,2.26-1.23,4.22-2.2Z"/>
          </g>
          <g id="planet-2">
            <path class="cls-7" d="M90.43,95.4c0,1.08-.03,2.17-.12,3.24-1.65,23.46-21.21,41.98-45.09,41.98-11.64,0-22.27-4.4-30.28-11.64-1.31-1.17-2.53-2.42-3.68-3.73-1.8-2.04-3.42-4.25-4.83-6.6-.71-1.21-1.4-2.46-2-3.73-.17-.33-.31-.66-.46-.99-.67-1.48-1.26-3-1.76-4.55-.37-1.15-.7-2.31-.97-3.49-.8-3.36-1.23-6.88-1.23-10.48,0-1.72.1-3.43.29-5.09.13-1.24.31-2.44.55-3.65.23-1.19.52-2.37.85-3.53,5.35-19.01,22.81-32.95,43.53-32.95,9.72,0,18.74,3.08,26.12,8.3,1.74,1.24,3.4,2.6,4.96,4.08.32.29.64.6.95.92,3.81,3.81,6.93,8.29,9.17,13.26,1.13,2.48,2.03,5.07,2.7,7.76h0c.5,2.04.87,4.12,1.08,6.26.07.62.11,1.24.15,1.88h0c.07.93.09,1.84.09,2.76Z"/>
            <path class="cls-13" d="M85.41,95.4c0,.96-.03,1.93-.11,2.88-1.47,20.86-18.85,37.32-40.09,37.32-10.35,0-19.8-3.91-26.92-10.35-1.16-1.04-2.25-2.15-3.27-3.31-1.6-1.82-3.04-3.78-4.3-5.86-.64-1.07-1.24-2.18-1.78-3.31-.15-.3-.28-.59-.41-.88-.6-1.32-1.12-2.67-1.57-4.05-.33-1.02-.63-2.05-.86-3.11-.71-2.99-1.09-6.11-1.09-9.32,0-1.53.09-3.05.26-4.52.12-1.1.28-2.17.49-3.24.21-1.06.47-2.1.75-3.14,4.75-16.9,20.28-29.29,38.7-29.29,8.64,0,16.66,2.74,23.22,7.38,1.55,1.1,3.03,2.31,4.41,3.63.29.26.57.54.84.81,3.38,3.38,6.16,7.37,8.16,11.79,1,2.2,1.81,4.51,2.4,6.9h0c.45,1.82.77,3.66.96,5.57.06.56.1,1.1.13,1.67h0c.06.82.08,1.64.08,2.45Z"/>
            <path class="cls-2" d="M83.75,95.4c0,.92-.03,1.85-.1,2.76-1.41,20-18.07,35.78-38.43,35.78-9.92,0-18.98-3.75-25.81-9.92-1.11-1-2.16-2.06-3.14-3.18-1.53-1.74-2.91-3.62-4.12-5.62-.61-1.03-1.19-2.09-1.7-3.18-.14-.29-.27-.56-.39-.85-.57-1.27-1.07-2.56-1.5-3.88-.31-.98-.6-1.97-.83-2.98-.68-2.86-1.05-5.86-1.05-8.93,0-1.47.09-2.92.25-4.34.11-1.06.27-2.08.47-3.11.2-1.02.45-2.02.72-3.01,4.56-16.2,19.44-28.08,37.1-28.08,8.29,0,15.97,2.63,22.26,7.08,1.48,1.06,2.9,2.22,4.22,3.48.28.25.54.51.81.78,3.24,3.24,5.91,7.07,7.82,11.3.96,2.11,1.73,4.32,2.3,6.61h0c.43,1.74.74,3.51.92,5.34.06.53.1,1.06.12,1.6h0c.06.79.08,1.57.08,2.35Z"/>
            <path class="cls-6" d="M79.3,95.4c0,.82-.03,1.63-.09,2.44-1.25,17.69-15.99,31.65-33.99,31.65-8.78,0-16.79-3.32-22.83-8.78-.98-.88-1.91-1.83-2.78-2.81-1.35-1.54-2.57-3.21-3.64-4.97-.54-.91-1.05-1.85-1.51-2.81-.13-.25-.24-.5-.34-.75-.5-1.12-.95-2.26-1.33-3.43-.28-.87-.53-1.74-.73-2.63-.61-2.53-.93-5.18-.93-7.9,0-1.3.08-2.58.22-3.84.1-.93.24-1.84.41-2.75.18-.9.4-1.78.64-2.66,4.03-14.33,17.2-24.84,32.82-24.84,7.33,0,14.13,2.32,19.69,6.26,1.31.93,2.57,1.96,3.74,3.08.24.22.48.45.72.69,2.87,2.87,5.23,6.25,6.92,10,.85,1.87,1.53,3.82,2.04,5.85h0c.38,1.54.66,3.1.82,4.72.05.47.08.93.11,1.41h0c.05.7.07,1.39.07,2.08Z"/>
            <path class="cls-12" d="M79.3,95.4c0,.82-.03,1.63-.09,2.44-6.04-2.37-12.65-3.32-19.15-3.1-7.99.27-15.87,2.23-23.36,5.06-7.72,2.91-15.35,6.99-20.73,13.14-.54-.91-1.05-1.85-1.51-2.81.43-.37.84-.71,1.19-1,5.22-4.48,11.33-7.83,17.65-10.54,7.79-3.34,16-5.78,24.43-6.68,7.19-.77,14.53-.4,21.51,1.42h0c.05.7.07,1.39.07,2.08Z"/>
            <path class="cls-16" d="M79.12,91.91c-6.02-2.35-12.6-3.28-19.07-3.07-7.99.27-15.87,2.23-23.36,5.06-8.66,3.26-17.22,8-22.58,15.47-.5-1.12-.95-2.26-1.33-3.43.77-1.03,2.02-1.99,2.86-2.72,5.22-4.49,11.33-7.83,17.65-10.54,7.79-3.34,16-5.78,24.43-6.68,6.87-.73,13.88-.42,20.58,1.19h0c.38,1.54.66,3.1.82,4.72Z"/>
            <path class="cls-8" d="M74.83,110.24c-.79,1.63-2.1,2.95-3.41,4.21-4.33,4.1-9.07,7.75-14.14,10.88-1.45.88-2.96,1.75-4.64,2.02-1.29.2-2.61.04-3.9-.15-5.23-.8-10.37-2.15-15.31-4.05-.8-.3-1.63-.66-2.14-1.35-.73-1.02-.52-2.43-.05-3.59,1.07-2.63,3.25-4.69,5.7-6.11,2.46-1.43,5.19-2.28,7.92-3.08,8.07-2.36,16.44-4.38,24.83-3.66-.66,4.32-3.68,7.88-6.85,10.87-1.19,1.13-2.43,2.2-3.79,3.11-5.42,3.62-12.76,4.11-18.62,1.25-.27-.13-.56-.3-.64-.59-.13-.45.32-.82.72-1.07,4.8-3.01,9.98-5.42,15.37-7.16.57-.19,1.2-.36,1.75-.12.56.24.82,1.1.33,1.45-4.34,0-8.63,2.1-11.33,5.5,3.56,1.53,7.81,1.03,11.18-.87,3.38-1.89,5.93-5.07,7.53-8.6.07-.15.13-.32.07-.47-.08-.19-.31-.24-.5-.26-5.95-.82-12.01.03-17.85,1.41-2.97.71-5.96,1.57-8.57,3.16s-4.82,4.02-5.59,6.98c-.08.29-.13.59-.06.87.11.42.49.7.84.93,4.22,2.76,9.44,3.33,14.46,3.84.82.08,1.64.16,2.45.03.69-.12,1.35-.39,1.99-.66,6.29-2.72,12.2-6.34,17.48-10.73,1.75-1.46,3.48-3.06,4.43-5.13.95-2.07.95-4.73-.56-6.45-1.53-1.73-4.11-2.04-6.42-2.08-4.59-.08-9.18.44-13.72,1.17-3.69.6-7.37,1.33-11.01,2.23-2.97.73-6.33,2.6-8.96,4.16-5.21,3.09-8.1,7.67-11.44,12.57-.98-.88-1.91-1.83-2.78-2.81,6.66-7.2,15.49-12.28,24.89-15.17,9.78-3.02,20.16-3.77,30.37-3.13.87,3.52,1.56,7.38-.03,10.64Z"/>
            <path class="cls-12" d="M76.27,81.34c-11.26-2.4-23.23-1.16-34.32,2.15-6.66,1.99-13.16,4.74-18.84,8.75-3.78,2.68-7.1,5.91-9.84,9.65-.46.64-.87,1.13-1.22,1.41-.61-2.53-.93-5.18-.93-7.9,0-1.3.08-2.58.22-3.84.31-.46.65-.91,1-1.35,4.26-5.26,10.14-8.97,16.3-11.74,12.69-5.7,26.77-7.65,40.71-7.14,2.87,2.87,5.23,6.25,6.92,10Z"/>
            <path class="cls-8" d="M68.64,70.65c-10.31-2.68-21.38-2.38-31.51.92-10.19,3.32-18.38,9.45-25.37,17.24.18-.9.4-1.78.64-2.66,4.17-5.75,10.87-10.54,16.63-13.35,3.96-1.94,8.2-3.28,12.51-4.27,7.64-1.75,15.69-2.35,23.37-.96,1.31.93,2.57,1.96,3.74,3.08Z"/>
            <path class="cls-3" d="M35.29,80.79c-.15.43-.25.87-.29,1.32,0,.11-.01.23.05.32.09.13.27.15.43.16.56.03,1.11.06,1.67.09.16,0,.33.02.48-.02.21-.05.38-.19.53-.35.64-.74.48-2.05-.36-2.54-.84-.5-2.12.07-2.26,1.04l-.24-.02Z"/>
            <ellipse class="cls-18" cx="38.16" cy="83.39" rx="18.89" ry="17.81"/>
            <ellipse class="cls-20" cx="72.53" cy="112.96" rx="26.72" ry="18.89" transform="translate(-61.31 123.44) rotate(-61.77)"/>
            <path class="cls-8" d="M43.52,96.4c9.76-2.73,20.1-4.49,30.02-2.37,2.22.47,4.64,1.34,5.61,3.38-4.97-1.62-10.06-3.13-15.28-3.32-5.24-.2-10.44.93-15.56,2.05-2.82.62-5.66,1.24-8.37,2.23-2.66.98-5.18,2.31-7.8,3.4-2.37.98-4.84,1.76-7.06,3.03-1.36.78-2.6,1.73-3.78,2.76-.62.54-2.39,2.78-3.13,2.56,2.03-2.94,5.67-5.27,8.7-7.06,3.32-1.95,6.88-3.48,10.52-4.75,2.02-.71,4.08-1.34,6.14-1.91Z"/>
            <path class="cls-14" d="M31.15,94.54c3.08-1.43,6.17-2.86,9.44-3.78,2.74-.78,5.58-1.18,8.34-1.88,3.12-.79,6.15-1.94,9.32-2.45,2.23-.36,4.49-.39,6.75-.42,2.04-.03,4.08-.05,6.12-.08-7.58-.36-15.26-.7-22.68.9-4.14.9-8.13,2.39-12.22,3.5-2.31.63-4.68,1.14-6.81,2.22-1.92.97-3.58,2.35-5.23,3.73-.98.82-1.96,1.63-2.94,2.45-.79.66-1.8,1.84-2.74,2.13,1.74-1.41,4.24-2.32,6.27-3.31,1.98-.97,4.25-2.47,6.38-3.01Z"/>
            <path class="cls-16" d="M73.27,86.24c1.23-.11,2.49.16,3.57.76-1.27.46-2.66-.16-3.79-.9l.22.14Z"/>
            <path class="cls-8" d="M25.57,89.81c1.65-.94,3.49-1.48,5.27-2.15,6.84-2.58,13.03-7.35,20.31-8,2.89-.26,5.79.16,8.69.17,4.93.03,10.12-1.05,14.6,1-3.38-.92-6.92-1.02-10.42-.9-13.05.42-26.13,3.76-37.44,10.38-2.84,1.66-6.95,3.75-8.96,6.37,3.04-1.52,4.92-5.13,7.95-6.87Z"/>
            <path class="cls-16" d="M17.73,80.63c2.45-1.72,3.71-4.73,6.02-6.64,1.45-1.2,3.23-1.9,4.98-2.58,2.4-.94,4.81-1.88,7.28-2.62,3.31-1,6.72-1.64,10.14-2.19,3.35-.54,6.75-1.01,10.12-.62,1.28.15,2.54.42,3.8.69-4.59-.53-9.23.13-13.8.8-2.74.4-5.49.8-8.16,1.54-3.9,1.09-7.55,2.9-11.16,4.74-2.95,1.51-5.99,3.13-7.94,5.81l-1.27,1.07Z"/>
            <path class="cls-12" d="M35.02,105.5c3.4-1.77,7.23-2.47,10.92-3.52,2.74-.78,5.42-1.75,8.19-2.42,5.73-1.38,11.78-1.41,17.52-.08-12.14-.5-24.39,1.7-35.61,6.38-2.17.91-4.25,1.93-6.2,3.25,1.59-1.37,3.31-2.63,5.18-3.6Z"/>
          </g>
        </g>
      </g>
    </g>
  </g>
</svg>