<?xml version="1.0" encoding="UTF-8"?>
<svg xmlns="http://www.w3.org/2000/svg" xmlns:xlink="http://www.w3.org/1999/xlink" viewBox="0 0 76.96 76.96">
  <defs>
    <style>
      .cls-1 {
        fill: url(#_Áåçûìÿííûé_ãðàäèåíò_188);
      }

      .cls-1, .cls-2, .cls-3, .cls-4, .cls-5, .cls-6, .cls-7, .cls-8, .cls-9, .cls-10 {
        fill-rule: evenodd;
      }

      .cls-2 {
        fill: #fff;
      }

      .cls-3 {
        fill: url(#_Áåçûìÿííûé_ãðàäèåíò_188-2);
      }

      .cls-4 {
        fill: url(#_Áåçûìÿííûé_ãðàäèåíò_470);
      }

      .cls-4, .cls-6 {
        mix-blend-mode: screen;
        opacity: .5;
      }

      .cls-5 {
        fill: url(#_Áåçûìÿííûé_ãðàäèåíò_171);
      }

      .cls-11 {
        isolation: isolate;
      }

      .cls-6 {
        fill: url(#_Áåçûìÿííûé_ãðàäèåíò_471);
      }

      .cls-12 {
        mix-blend-mode: multiply;
        opacity: .2;
      }

      .cls-7 {
        fill: #fff066;
      }

      .cls-8 {
        fill: #ffac31;
      }

      .cls-9 {
        fill: url(#_Áåçûìÿííûé_ãðàäèåíò_110);
      }

      .cls-10 {
        fill: #772666;
      }
    </style>
    <radialGradient id="_Áåçûìÿííûé_ãðàäèåíò_471" data-name="Áåçûìÿííûé ãðàäèåíò 471" cx="38.48" cy="38.48" fx="38.48" fy="38.48" r="38.48" gradientUnits="userSpaceOnUse">
      <stop offset=".32" stop-color="red"/>
      <stop offset=".4" stop-color="#fa0000"/>
      <stop offset=".48" stop-color="#ed0000"/>
      <stop offset=".57" stop-color="#d70000"/>
      <stop offset=".66" stop-color="#b80000"/>
      <stop offset=".75" stop-color="#910000"/>
      <stop offset=".85" stop-color="#610000"/>
      <stop offset=".94" stop-color="#290000"/>
      <stop offset="1" stop-color="#000"/>
    </radialGradient>
    <radialGradient id="_Áåçûìÿííûé_ãðàäèåíò_470" data-name="Áåçûìÿííûé ãðàäèåíò 470" cx="38.48" cy="38.48" fx="38.48" fy="38.48" r="30.4" gradientUnits="userSpaceOnUse">
      <stop offset=".65" stop-color="#ffd100"/>
      <stop offset=".69" stop-color="#facd00"/>
      <stop offset=".74" stop-color="#edc200"/>
      <stop offset=".78" stop-color="#d7b000"/>
      <stop offset=".83" stop-color="#b89700"/>
      <stop offset=".87" stop-color="#917700"/>
      <stop offset=".92" stop-color="#614f00"/>
      <stop offset=".97" stop-color="#292100"/>
      <stop offset="1" stop-color="#000"/>
    </radialGradient>
    <radialGradient id="_Áåçûìÿííûé_ãðàäèåíò_171" data-name="Áåçûìÿííûé ãðàäèåíò 171" cx="58.08" cy="56.74" fx="58.08" fy="56.74" r="2.72" gradientUnits="userSpaceOnUse">
      <stop offset="0" stop-color="#cf5236"/>
      <stop offset="1" stop-color="#bb471f"/>
    </radialGradient>
    <radialGradient id="_Áåçûìÿííûé_ãðàäèåíò_110" data-name="Áåçûìÿííûé ãðàäèåíò 110" cx="33.2" cy="28.89" fx="33.2" fy="28.89" r="32.61" gradientUnits="userSpaceOnUse">
      <stop offset="0" stop-color="#ffc827"/>
      <stop offset=".37" stop-color="#ff9e25"/>
      <stop offset=".87" stop-color="#ff741f"/>
      <stop offset="1" stop-color="#ff9543"/>
    </radialGradient>
    <radialGradient id="_Áåçûìÿííûé_ãðàäèåíò_188" data-name="Áåçûìÿííûé ãðàäèåíò 188" cx="35.29" cy="14.06" fx="35.29" fy="14.06" r="7.91" gradientUnits="userSpaceOnUse">
      <stop offset="0" stop-color="#ffc727"/>
      <stop offset="1" stop-color="#ffab1f"/>
    </radialGradient>
    <radialGradient id="_Áåçûìÿííûé_ãðàäèåíò_188-2" data-name="Áåçûìÿííûé ãðàäèåíò 188" cx="14.85" cy="23.39" fx="14.85" fy="23.39" r="4.61" xlink:href="#_Áåçûìÿííûé_ãðàäèåíò_188"/>
  </defs>
  <g class="cls-11">
    <g id="Layer_2" data-name="Layer 2">
      <g id="Layer_1-2" data-name="Layer 1">
        <g>
          <path class="cls-6" d="M76.96,38.48c0,.92-.03,1.84-.1,2.75-1.41,19.97-18.05,35.73-38.38,35.73-9.91,0-18.95-3.74-25.77-9.91-1.11-1-2.16-2.06-3.13-3.17-1.53-1.74-2.91-3.62-4.11-5.61-.61-1.03-1.19-2.09-1.7-3.17-.14-.28-.27-.56-.39-.85-.57-1.26-1.07-2.56-1.5-3.88-.31-.98-.6-1.97-.83-2.97-.68-2.86-1.04-5.85-1.04-8.92,0-1.46.09-2.92.25-4.33.11-1.05.27-2.08.47-3.11.2-1.02.45-2.01.72-3C5.98,11.86,20.85,0,38.48,0c8.27,0,15.95,2.62,22.23,7.07,1.48,1.05,2.9,2.21,4.22,3.48.28.25.54.51.81.78,3.24,3.24,5.9,7.06,7.81,11.29.96,2.11,1.73,4.31,2.3,6.6h0c.43,1.74.74,3.51.92,5.33.06.53.09,1.05.12,1.6h0c.06.79.08,1.57.08,2.35Z"/>
          <path class="cls-4" d="M68.88,38.48c0,.73-.02,1.46-.08,2.18-1.11,15.77-14.26,28.22-30.32,28.22-7.83,0-14.97-2.96-20.36-7.83-.88-.79-1.7-1.63-2.48-2.51-1.21-1.37-2.3-2.86-3.25-4.43-.48-.81-.94-1.65-1.34-2.51-.11-.23-.21-.44-.31-.67-.45-1-.85-2.02-1.19-3.06-.25-.77-.47-1.55-.65-2.35-.54-2.26-.83-4.62-.83-7.05,0-1.16.07-2.3.2-3.42.09-.83.21-1.64.37-2.45.16-.8.35-1.59.57-2.37,3.59-12.78,15.34-22.15,29.27-22.15,6.54,0,12.6,2.07,17.56,5.58,1.17.83,2.29,1.75,3.33,2.75.22.2.43.41.64.62,2.56,2.56,4.66,5.58,6.17,8.91.76,1.67,1.37,3.41,1.82,5.22h0c.34,1.37.59,2.77.73,4.21.04.42.07.83.1,1.26h0c.04.62.06,1.24.06,1.85Z"/>
          <path class="cls-7" d="M17.94,18.05s-.74,6.17-6.83,9.92l3.42,2.27,6.8-7.04-3.38-5.15Z"/>
          <path class="cls-7" d="M27.07,64.9s13.02,2.88,26.37-2.83c0,0,3.61-8.06-8.76-10.98-12.37-2.92-17.61,13.81-17.61,13.81Z"/>
          <path class="cls-5" d="M57.07,60.42s-1.37-2.75-.51-3.8c.86-1.06,2.86,0,2.86,0l2.02-1.15s-1.29-1.27-3.9-.47c-2.61.8-.48,5.43-.48,5.43Z"/>
          <path class="cls-7" d="M24.59,13.33s13.28-3.38,21.32-2,5.82,9.82,5.82,9.82l-16.45,2.04h-6.63s-4.3-6.47-4.05-9.86Z"/>
          <path class="cls-9" d="M66.59,39c0,1.72-.15,3.41-.44,5.05-.68,3.87-2.14,7.47-4.2,10.65-.17.26-.34.51-.51.76-1.32-.32-3.39-.6-4.37.36-1.52,1.48,0,4.59,0,4.59-.73.67-1.49,1.28-2.29,1.86v-.02s-2.59-8.01-11.03-8.48c-8.43-.46-18.68,11.12-18.68,11.12-9.57-4.69-16.16-14.53-16.16-25.91,0-3.9.78-7.63,2.19-11.03,0,0,2.43,2.17,5.58-1.53,3.15-3.71,1.25-8.39,1.25-8.39,1.97-1.87,4.21-3.46,6.65-4.72l-.03.03s.47,2.49,3.5,3.61c2.34.87,15.04-2.12,16.52-2.95,1.43-.81,1.33-2.56,1.32-2.68,11.96,3.51,20.68,14.57,20.68,27.66Z"/>
          <path class="cls-8" d="M25.08,64.9h1.99s7.81-8.39,15.6-9.01c7.79-.63,10.78,6.19,10.78,6.19l1.34.2s-2.46-9.08-10.79-9.17c-8.33-.09-18.91,11.79-18.91,11.79Z"/>
          <path class="cls-1" d="M45.91,11.34s-6.85-2.12-21.32,2c0,0,12.81-3.23,16.4-1.27,3.59,1.96-8.15,3.48-11.82,3.58-3.67.09-4.47-1.76-4.47-1.76,0,0,.71,2.74,3.98,3.22,6.59.95,18.31-1.1,17.22-5.76Z"/>
          <path class="cls-3" d="M16.21,22.74s1.18-1.92,1.42-2.06c.24-.14.45,2.26-.97,4.31-1.43,2.05-4.24,2.89-4.31,2.75-.07-.14.55-1.06.55-1.06l-1.8,1.3s2.15,2.27,5.56-1.07c3.41-3.34,1.28-8.85,1.28-8.85,0,0-.66,3.09-1.73,4.69Z"/>
          <path class="cls-8" d="M23.45,53.88c-.14.08-.29.16-.45.22-3.27,1.21-9.95-3.25-10.4-8.38-.48-5.38,1.57-9.33,4.09-9.92,1-.23,1.9-.22,2.7-.01,6.5,1.71,6.79,16.43,4.07,18.09Z"/>
          <path class="cls-7" d="M23.45,53.88c-.14.08-.29.16-.45.22-3.34-.86-7.4-4.42-7.75-8.38-.47-5.38,1.57-9.33,4.09-9.92.02,0,.03,0,.04-.01,6.5,1.71,6.79,16.43,4.07,18.09Z"/>
          <path class="cls-8" d="M42.55,44.24c-.5,1.42,1.55,3.52,3.42,3.52s3.26-4.11,3.16-4.65-5.38-2.3-6.58,1.13Z"/>
          <path class="cls-8" d="M59.68,37.51c-.53.23-1.28.33-2.12.26-2.09-.18-4.76-1.43-6.17-4.52-1.83-4.02-1.69-8.64.15-10.16.15-.12.31-.23.48-.31,2.69-1.26,10.46,1.73,10.77,4.99.31,3.26-1.27,8.95-3.11,9.74Z"/>
          <path class="cls-7" d="M57.56,37.77c-2.09-.18-4.76-1.43-6.17-4.52-1.83-4.02-1.69-8.64.15-10.16,3.37.22,7.13,1.93,7.85,5.84.53,2.93-.21,7.37-1.83,8.83Z"/>
          <path class="cls-7" d="M42.55,44.24s.29,2.13,2.72,1.99c2.43-.14,3.15-3.58,3.15-3.58,0,0-4.53-1.79-5.87,1.59Z"/>
          <g class="cls-12">
            <path class="cls-10" d="M52.74,43.4c.05.32-.17.61-.19.93-.02.31.01.62,0,.93,0,.37-.03.41.25.58.28.17.41.17.77.16.54-.01,1.04.36,1.58.19.51-.15.68-.88.77-1.31.12-.52.48-.85.52-1.39.04-.59-.23-.91-.74-1.21-.53-.32-1.06-.53-1.67-.23-.55.27-.93.88-1.3,1.35h0Z"/>
            <path class="cls-10" d="M58.86,42.48c-.05-.01-.1-.02-.15-.03-.08-.21-.09-.53.05-.72.23-.3.29-.12.52-.04.47.18.7.56.7,1.06,0,.41-.32.99-.82.82-.44-.15-.67-.71-.66-1.1h.37Z"/>
            <path class="cls-10" d="M66.15,44.05c-.68,3.87-2.14,7.47-4.2,10.65-.23-.21-.44-.45-.59-.64-.31-.39-.61-.8-.84-1.24-.19-.36-.4-.77-.52-1.17-.07-.24-.18-.5-.21-.74-.03-.23-.08-.48-.14-.7-.07-.24-.04-.49-.05-.75,0-.25.1-.44.09-.7,0-.49.06-.97.19-1.43.27-.94.97-1.57,1.75-2.11.2-.14.42-.28.65-.37.22-.09.42-.21.65-.28.5-.14.98-.36,1.48-.44.12-.02.25.03.37.01.14-.03.22-.09.37-.1.23-.01.47,0,.7,0h.29Z"/>
            <path class="cls-10" d="M33.47,41.92c-1.03.02-2.02.85-2.41,1.76-.12.29-.29.55-.4.85-.13.34-.18.74-.24,1.09-.03.17.01.33,0,.5-.02.14-.08.26-.1.4-.04.31,0,.7.05,1,.03.16.04.29.05.46,0,.18.06.29.09.47.05.3.08.59.19.88.08.22.18.5.33.69.14.18.3.41.49.54.44.32,1.06.35,1.58.35h1.48c.47,0,1.03.09,1.48,0,.46-.08.94-.27,1.34-.52.38-.24.71-.65.98-1.01.32-.43.62-.83.9-1.28.28-.44.42-.89.6-1.37.19-.5.45-.93.44-1.48,0-.57.04-1.13-.11-1.67-.15-.53-.62-.85-1.01-1.18-.45-.39-.94-.74-1.48-1.02-.16-.08-.28-.09-.44-.14-.05-.01-.04-.06-.11-.08-.08-.02-.16.02-.24,0-.13-.02-.18-.08-.32-.1-.13-.02-.29,0-.42,0-.15,0-.19.07-.32.1-.13.03-.29-.03-.42,0-.17.04-.24.09-.42.08-.15,0-.21.06-.33.08-.13.03-.28-.03-.41,0-.1.02-.21.11-.32.14-.26.08-.48.25-.51.42Z"/>
            <path class="cls-10" d="M30.5,38.49c-.21-.05-.17-.21-.21-.37-.04-.17-.11-.26-.05-.44.09-.29.33-.43.63-.39.27.04.44.2.62.4.23.25.41.56.48.87.13.58-.19,1.29-.88,1.15-.26-.05-.41-.34-.46-.56-.03-.12-.12-.24-.14-.37-.04-.16,0-.39,0-.56v.28Z"/>
            <path class="cls-10" d="M24.75,57.49c-.25,0-.38-.13-.63-.07-.2.04-.38.18-.57.28-.53.29-.88.74-.73,1.37.09.38.51.73.81.97.31.25.78.49,1.16.51.23,0,.52.04.74,0,.24-.05.48-.18.69-.27.44-.19.84-.41,1.19-.76.28-.28.62-.6.67-.99.06-.47-.08-.93-.46-1.23-.48-.38-.92-.44-1.53-.44-.15,0-.32-.02-.46,0-.14.03-.28.12-.42.16-.15.03-.24.03-.37.11-.08.05-.19.17-.28.19l.19.19Z"/>
            <path class="cls-10" d="M44.12,51.28c-.32-.24-.18-.44.07-.67.19-.18.32-.27.55-.37.24-.1.52-.13.74.05.19.15.37.34.49.53.09.14.06.22.09.37.03.2.13.26-.02.44-.17.21-.41.29-.67.3-.32.01-.52,0-.79-.14-.26-.13-.33-.26-.46-.51h0Z"/>
            <path class="cls-10" d="M41.27,18.07s.03,0,.04,0c-.09.08-.06.41,0,.49.03.05.11.1.15.13.04.03.12.09.16.11.29.15.66.15.85-.13.17-.27.17-.6-.06-.83-.18-.18-.76-.37-.85.02l-.28.21Z"/>
            <path class="cls-10" d="M46.97,17.73s-.04,0-.06-.01c-.06-.2.01-.39.05-.58.05-.24-.01-.38.28-.38.32,0,.67.19.95.34.15.08.33.2.44.33.1.12.24.32.28.48.1.43-.09.85-.29,1.22-.19.35-.44.53-.75.76-.29.21-.63.44-.97.49-.35.05-.68-.09-.92-.33-.25-.25-.23-.63-.14-.94.06-.18.08-.35.17-.52.06-.13.12-.31.21-.42.21-.29.52-.41.82-.57l-.07.14Z"/>
            <path class="cls-10" d="M50.24,17.66s0-.08,0-.12c-.05.31.24.26.45.26.12,0,.21,0,.31-.03.14-.06.14-.08.14-.24,0-.23-.12-.32-.35-.35-.16-.02-.51,0-.56.21v.28Z"/>
            <path class="cls-10" d="M11.38,35.25c.03.14-.08.23-.12.35-.04.11-.06.22-.1.33-.1.25-.2.51-.26.78-.06.28-.12.58-.14.87-.02.26-.12.53-.07.8.04.25.13.43.34.57.2.14.38.26.64.26.23,0,.41,0,.63-.08.24-.1.38-.27.54-.47.15-.18.2-.4.31-.61.05-.1.14-.18.18-.29.05-.13.07-.26.12-.38.09-.23.22-.43.3-.66.04-.11.07-.23.1-.35.04-.14.14-.28.18-.42.03-.11.07-.24.09-.35,0-.04-.01-.09,0-.14.01-.08.06-.13.08-.21.02-.11-.03-.24,0-.35.02-.13.07-.21.07-.35,0-.41-.13-.92-.5-1.17-.23-.16-.41-.05-.61.05-.22.11-.46.23-.64.4-.18.17-.36.33-.52.52-.07.09-.15.18-.21.27-.09.14-.08.29-.36.61Z"/>
            <path class="cls-10" d="M10.48,42.89c-.13-.02-.26-.37-.28-.48-.03-.11.03-.24,0-.35-.02-.13-.07-.21-.07-.35,0-.22-.04-.48.02-.7.04-.16.05-.52.26-.47.2.05.3.32.36.47.04.11.11.23.13.35,0,.05-.02.1,0,.14.01.06.06.06.07.11.04.19.02.48-.03.65-.04.14-.05.45-.24.49l-.21.14Z"/>
            <path class="cls-10" d="M11.38,32.53s0-.08,0-.12c.01.08-.06.17-.07.25-.01.1-.02.25.07.32.18.14.42-.16.51-.3.04-.07.09-.15.12-.23.02-.06.09-.22.07-.28-.04-.23-.32-.27-.49-.28l-.21.63Z"/>
          </g>
          <path class="cls-2" d="M32.43,27.29c-.1-.03-.2.19-.24.27-.06.12-.09.26-.13.38-.02.06-.04.07-.05.14,0,.05,0,.13,0,.19.01.12.08.19.16.28.34.34.96.18,1.34,0,.44-.21.9-.52,1.06-1.01.07-.21-.03-.46-.22-.6-.09-.07-.19-.1-.29-.15-.05-.02-.1-.06-.15-.07-.04,0-.06,0-.09-.01-.04,0-.07-.03-.1-.04-.31-.06-.64.04-.91.19-.15.08-.56.28-.58.49-.01,0-.02,0,.19-.04Z"/>
        </g>
      </g>
    </g>
  </g>
</svg>