<?xml version="1.0" encoding="UTF-8"?>
<svg xmlns="http://www.w3.org/2000/svg" xmlns:xlink="http://www.w3.org/1999/xlink" viewBox="0 0 180.5 180.5">
  <defs>
    <style>
      .cls-1 {
        fill: url(#_Áåçûìÿííûé_ãðàäèåíò_376);
      }

      .cls-1, .cls-2, .cls-3, .cls-4, .cls-5, .cls-6, .cls-7, .cls-8, .cls-9 {
        fill-rule: evenodd;
      }

      .cls-1, .cls-4, .cls-7, .cls-9 {
        mix-blend-mode: screen;
        opacity: .5;
      }

      .cls-2 {
        fill: url(#_Áåçûìÿííûé_ãðàäèåíò_188);
      }

      .cls-3 {
        fill: #fff;
      }

      .cls-4 {
        fill: url(#_Áåçûìÿííûé_ãðàäèåíò_43);
      }

      .cls-10 {
        isolation: isolate;
      }

      .cls-11 {
        mix-blend-mode: multiply;
        opacity: .2;
      }

      .cls-5 {
        fill: #fff066;
      }

      .cls-6 {
        fill: #ffac31;
      }

      .cls-7 {
        fill: url(#_Áåçûìÿííûé_ãðàäèåíò_464);
      }

      .cls-8 {
        fill: url(#_Áåçûìÿííûé_ãðàäèåíò_110);
      }

      .cls-9 {
        fill: url(#_Áåçûìÿííûé_ãðàäèåíò_167);
      }
    </style>
    <radialGradient id="_Áåçûìÿííûé_ãðàäèåíò_167" data-name="Áåçûìÿííûé ãðàäèåíò 167" cx="90.25" cy="90.25" fx="90.25" fy="90.25" r="90.25" gradientUnits="userSpaceOnUse">
      <stop offset=".04" stop-color="red"/>
      <stop offset=".15" stop-color="#fa0000"/>
      <stop offset=".27" stop-color="#ed0000"/>
      <stop offset=".39" stop-color="#d70000"/>
      <stop offset=".52" stop-color="#b80000"/>
      <stop offset=".65" stop-color="#910000"/>
      <stop offset=".78" stop-color="#610000"/>
      <stop offset=".91" stop-color="#290000"/>
      <stop offset="1" stop-color="#000"/>
    </radialGradient>
    <radialGradient id="_Áåçûìÿííûé_ãðàäèåíò_464" data-name="Áåçûìÿííûé ãðàäèåíò 464" cx="90.25" cy="90.25" fx="90.25" fy="90.25" r="75.42" gradientUnits="userSpaceOnUse">
      <stop offset=".65" stop-color="#ff2000"/>
      <stop offset=".69" stop-color="#fa1f00"/>
      <stop offset=".74" stop-color="#ed1d00"/>
      <stop offset=".78" stop-color="#d71b00"/>
      <stop offset=".83" stop-color="#b81700"/>
      <stop offset=".87" stop-color="#911200"/>
      <stop offset=".92" stop-color="#610c00"/>
      <stop offset=".97" stop-color="#290500"/>
      <stop offset="1" stop-color="#000"/>
    </radialGradient>
    <radialGradient id="_Áåçûìÿííûé_ãðàäèåíò_376" data-name="Áåçûìÿííûé ãðàäèåíò 376" cx="90.25" cy="90.25" fx="90.25" fy="90.25" r="65.53" gradientUnits="userSpaceOnUse">
      <stop offset=".83" stop-color="#06a2ff"/>
      <stop offset=".85" stop-color="#059ffa"/>
      <stop offset=".87" stop-color="#0596ed"/>
      <stop offset=".89" stop-color="#0588d7"/>
      <stop offset=".91" stop-color="#0475b8"/>
      <stop offset=".94" stop-color="#035c91"/>
      <stop offset=".96" stop-color="#023d61"/>
      <stop offset=".98" stop-color="#001a29"/>
      <stop offset="1" stop-color="#000"/>
    </radialGradient>
    <radialGradient id="_Áåçûìÿííûé_ãðàäèåíò_110" data-name="Áåçûìÿííûé ãðàäèåíò 110" cx="74.13" cy="68.29" fx="74.13" fy="68.29" r="80.88" gradientTransform="translate(.48 5.83) rotate(-3.78)" gradientUnits="userSpaceOnUse">
      <stop offset="0" stop-color="#ffc827"/>
      <stop offset=".37" stop-color="#ff9e25"/>
      <stop offset=".87" stop-color="#ff741f"/>
      <stop offset="1" stop-color="#ff9543"/>
    </radialGradient>
    <radialGradient id="_Áåçûìÿííûé_ãðàäèåíò_188" data-name="Áåçûìÿííûé ãðàäèåíò 188" cx="119.95" cy="35.26" fx="119.95" fy="35.26" r="9.43" gradientTransform="translate(.48 5.83) rotate(-3.78)" gradientUnits="userSpaceOnUse">
      <stop offset="0" stop-color="#ffc727"/>
      <stop offset="1" stop-color="#ffab1f"/>
    </radialGradient>
    <linearGradient id="_Áåçûìÿííûé_ãðàäèåíò_43" data-name="Áåçûìÿííûé ãðàäèåíò 43" x1="91.24" y1="160.61" x2="91.24" y2="23.34" gradientUnits="userSpaceOnUse">
      <stop offset="0" stop-color="#ff0097"/>
      <stop offset="1" stop-color="#000"/>
    </linearGradient>
  </defs>
  <g class="cls-10">
    <g id="Layer_2" data-name="Layer 2">
      <g id="Layer_1-2" data-name="Layer 1">
        <g>
          <path class="cls-9" d="M180.5,90.25c0,2.16-.07,4.32-.25,6.46-3.3,46.83-42.33,83.79-90,83.79-23.24,0-44.45-8.78-60.44-23.24-2.61-2.34-5.06-4.83-7.35-7.44-3.59-4.08-6.82-8.49-9.65-13.17-1.43-2.41-2.78-4.9-3.99-7.44-.33-.67-.62-1.31-.91-1.98-1.34-2.96-2.52-5.99-3.52-9.09-.74-2.29-1.4-4.61-1.94-6.97-1.6-6.71-2.45-13.72-2.45-20.92,0-3.43.2-6.84.58-10.16.27-2.47.62-4.88,1.09-7.29.47-2.38,1.05-4.72,1.69-7.04C14.04,27.83,48.9,0,90.25,0c19.4,0,37.41,6.15,52.13,16.58,3.48,2.47,6.79,5.19,9.89,8.15.65.58,1.27,1.2,1.89,1.83,7.6,7.6,13.83,16.55,18.31,26.47,2.25,4.95,4.05,10.11,5.39,15.48v.02c1,4.05,1.74,8.2,2.16,12.48.13,1.25.22,2.47.29,3.74v.02c.13,1.83.18,3.65.18,5.48Z"/>
          <path class="cls-7" d="M165.67,90.25c0,1.81-.06,3.61-.2,5.4-2.76,39.14-35.37,70.02-75.22,70.02-19.42,0-37.14-7.34-50.51-19.42-2.18-1.95-4.23-4.04-6.14-6.22-3-3.41-5.7-7.09-8.06-11-1.19-2.01-2.33-4.1-3.33-6.22-.28-.56-.52-1.1-.76-1.66-1.12-2.48-2.1-5.01-2.94-7.6-.61-1.92-1.17-3.85-1.62-5.83-1.34-5.6-2.05-11.47-2.05-17.48,0-2.87.17-5.72.48-8.49.22-2.07.52-4.08.91-6.09.39-1.99.88-3.95,1.41-5.88C26.56,38.08,55.69,14.83,90.25,14.83c16.22,0,31.26,5.14,43.57,13.85,2.9,2.07,5.68,4.34,8.27,6.81.54.48,1.06,1.01,1.58,1.53,6.35,6.35,11.56,13.83,15.3,22.12,1.88,4.13,3.39,8.45,4.51,12.94v.02c.84,3.39,1.45,6.85,1.81,10.43.11,1.04.19,2.07.24,3.13v.02c.11,1.53.15,3.05.15,4.58Z"/>
          <path class="cls-1" d="M155.78,90.25c0,1.57-.05,3.14-.18,4.69-2.39,34-30.74,60.84-65.35,60.84-16.87,0-32.27-6.37-43.89-16.87-1.89-1.7-3.67-3.51-5.34-5.4-2.6-2.96-4.95-6.16-7-9.56-1.04-1.75-2.02-3.56-2.9-5.4-.24-.49-.45-.95-.66-1.44-.97-2.15-1.83-4.35-2.56-6.6-.53-1.67-1.02-3.35-1.41-5.06-1.16-4.87-1.78-9.96-1.78-15.19,0-2.49.15-4.97.42-7.38.19-1.8.45-3.54.79-5.29.34-1.73.76-3.43,1.23-5.11,7.75-27.55,33.07-47.75,63.09-47.75,14.09,0,27.16,4.46,37.85,12.04,2.52,1.8,4.93,3.77,7.18,5.92.47.42.92.87,1.37,1.33,5.52,5.52,10.05,12.02,13.3,19.22,1.63,3.59,2.94,7.34,3.91,11.24v.02c.73,2.94,1.26,5.95,1.57,9.06.1.91.16,1.8.21,2.72v.02c.1,1.33.13,2.65.13,3.98Z"/>
          <g>
            <path class="cls-5" d="M111.07,26.23s8.4,9.95,22.72,11.82l-6.39,5.07-19.02-1.51,2.69-15.38Z"/>
            <path class="cls-5" d="M155.91,89.44s-7.44,20.18-9.23,40.21l-8.64-19.23,2.92-22.46,14.96,1.48Z"/>
            <path class="cls-6" d="M148.86,94.29s-3.78,2.94-3.31,12.7c.48,9.76,1.09,16.53,1.09,16.53l.05,9.01s-10.72-29.78,2.17-38.23Z"/>
            <path class="cls-8" d="M133.79,38.06s0,0-.02.01c0,0-.02,0-.05.01-3.68,1-12.7,3.09-16.37.72-4.34-2.8-6.04-11.27-6.26-12.43-.02-.09-.02-.14-.02-.14-7.65-2.3-15.83-3.3-24.27-2.74-37.83,2.5-66.46,35.18-63.96,73.01,2.5,37.83,35.18,66.46,73.01,63.96,21.07-1.39,39.28-12.14,50.86-27.95,0,0-.01-.02-.01-.03-.65-1.29-1.21-3.2-1.64-5.46-.11-.53-.21-1.09-.3-1.67-1.59-9.87-1.24-24.83,1.85-28.73.58-.74,1.27-1.44,2.03-2.12.06-.06.12-.13.19-.18,2.21-1.96,4.92-3.65,7.1-4.87h0c2.23-1.25,3.89-2,3.89-2-1.33-20.2-11.28-37.78-26.02-49.4ZM62.1,115.96l-1.3,3.16s0,.02,0,.02c-8.88-11.12-2.16-28.53-2.16-28.53.01.02.03.04.04.06.01,0,.02,0,.02.02,2.26,2.68,4.16,5.47,5.31,8.06.06.13.11.25.15.38.68,1.78,1.11,3.67.95,5.52-.52,3-1.6,7.14-3.01,11.3Z"/>
            <path class="cls-6" d="M77.75,35.34c-1.45,6.67-11.33,26.65-21.24,30.12-11.35,3.97-17.97,4.35-19.41,1.28-.19-.41-.34-.97-.44-1.68-.67-4.65,1.05-15.1,10.36-21.55,10.71-7.42,29.01-13.46,30.81-10.15.17.32.14,1.01-.07,1.98Z"/>
            <path class="cls-6" d="M95.2,34.87c-.31,2.31-1.32,5.02-3.11,6.27-2.29,1.59-6.81,2.36-9.13,1.89-.91-.2-1.48-.58-1.45-1.19.46-8.17,12-11.75,13.23-10.72.54.45.7,1.99.46,3.75Z"/>
            <path class="cls-6" d="M73.55,77.22c-.13,3.17-1.24,9.04-7.39,8.78-1.09-.05-2.21-.28-3.32-.68,0,0,0,0-.02,0-5.23-1.82-10.36-6.85-10.97-9.82,0,0,2.74-3.83,6.85-4.27.73-.08,1.68-.04,2.74.09,4.88.63,12.2,3.3,12.1,5.9Z"/>
            <path class="cls-6" d="M60.8,119.13l1.3-3.16c-.11.31-.22.62-.32.93-1.07,3.05-2.32,6.07-3.64,8.65h0c-2.11,4.11-4.44,7.1-6.64,7.24-5.61.37-16.54-4.22-21.13-13.46-4.59-9.26-7.34-32.11-4.84-35.61,2.69-3.76,8.35-6.69,15.54-6.01,2.33.23,5.83,2.19,9.46,5.07h.01c2.8,2.22,5.66,4.97,8.11,7.85,0,0-6.72,17.41,2.16,28.53,0,0,0,0,0-.02Z"/>
            <path class="cls-6" d="M65.11,104.66c.16-1.85-.27-3.75-.95-5.52.85,2.02,1.23,3.91.95,5.52Z"/>
            <path class="cls-6" d="M133.8,112.49c-2.25,6.03-10.78,12.58-14.92,12.86-4.13.27-11.27-1.06-11.91-4.35-1.76-9.19,1.59-28.66,9.6-30.68,4.37-1.1,9.07-1.53,12.82-1.27,3.12.22,5.59.94,6.65,2.15,2.34,2.66.01,15.27-2.25,21.3Z"/>
            <path class="cls-6" d="M120.11,145.69c-.5,1.88-11.07,5.75-19.04,5.78-7.97.03-18.98-1.93-19.13-5.54-.02-.43.99-1.18,2.64-2.04h0c4.37-2.26,13.29-5.26,19.91-4.96,6.17.28,11.36,2.42,13.92,4.35,1.23.92,1.85,1.8,1.69,2.41Z"/>
            <path class="cls-6" d="M151.91,86.31c-1.39,1.24-4.86,1.93-7.39,1.42-.77-.16-1.44-.42-1.95-.81-2.18-1.68-6.37-11.25-4.03-13.32,1.58-1.4,3.39-2.29,5.18-2.76,3.8-1.03,7.39-.23,8.01,1.37.9,2.34,1.99,12.48.18,14.09Z"/>
            <path class="cls-2" d="M111.07,26.23l2.68,2.62s2,7.28,6.67,9.09c4.68,1.81,8.51-.87,8.51-.87l4.86.98s-9.29,3.85-15.03,2.32-7.69-14.14-7.69-14.14Z"/>
            <path class="cls-5" d="M60.79,119.15l-2.65,6.39h0c-.35.29-8.77,7.06-17.45,1.15-8.86-6.04-16.1-36.37-10.88-42.1,5.23-5.73,13.83-6.14,13.83-6.14l6.88,4.33h.01c2.8,2.22,5.66,4.97,8.11,7.85,0,0-6.72,17.41,2.16,28.53Z"/>
            <path class="cls-5" d="M65.11,104.66c.16-1.85-.27-3.75-.95-5.52.85,2.02,1.23,3.91.95,5.52Z"/>
            <path class="cls-5" d="M77.75,35.34c-1.45,6.67-11.33,26.65-21.24,30.12-11.35,3.97-17.97,4.35-19.41,1.28-.19-.41-.34-.97-.44-1.68,0,0,1.8-10.09,14.2-19.93,9.78-7.78,22.15-9.44,26.9-9.79Z"/>
            <path class="cls-5" d="M73.55,77.22c-.13,3.17-1.24,9.04-7.39,8.78-1.09-.05-2.21-.28-3.32-.68,0,0,0,0-.02,0-1.55-.71-2.88-1.34-3.29-1.57-1.19-.65-4.8-7.45-3.28-9.54.76-1.04,3.07-2.09,5.2-2.89,4.88.63,12.2,3.3,12.1,5.9Z"/>
            <path class="cls-5" d="M95.2,34.87c-.31,2.31-1.32,5.02-3.11,6.27-2.29,1.59-6.81,2.36-9.13,1.89h0c1.53-7.63,12.24-8.16,12.24-8.16Z"/>
            <path class="cls-5" d="M144.52,87.74c-.77-.16-1.44-.42-1.95-.81-2.18-1.68-6.37-11.25-4.03-13.32,1.58-1.4,3.39-2.29,5.18-2.76,1.47.32,2.96,1.15,3.8,3.04,1.96,4.46,2.76,12.07-3,13.85Z"/>
            <path class="cls-5" d="M131.62,109.62c-3.33,12.28-18.43,17.43-24.64,11.37-1.76-9.19,1.59-28.66,9.6-30.68,4.37-1.1,9.07-1.53,12.82-1.27l.06.02s5.51,8.28,2.16,20.57Z"/>
            <path class="cls-5" d="M118.42,143.28c-2.16,1.98-7.08,5.02-17.19,5.31-15.16.43-16.64-4.7-16.64-4.7h0c4.37-2.26,13.29-5.26,19.91-4.96,6.17.28,11.36,2.42,13.92,4.35Z"/>
            <path class="cls-5" d="M64,98.76c-1.16-2.59-3.05-5.39-5.31-8.06.5.52,3.61,3.92,5.31,8.06Z"/>
            <path class="cls-5" d="M65.11,104.66c-.37,4.51-2.17,9.44-3.33,12.23-.52,1.27-.92,2.09-.99,2.24l1.3-3.16c1.41-4.17,2.49-8.3,3.01-11.3Z"/>
            <g class="cls-11">
              <path class="cls-5" d="M116.48,68.77c.13.56-.24,1.1-.23,1.67,0,.55.09,1.1.12,1.65.03.65-.01.73.52,1.01.52.27.76.25,1.38.2.95-.08,1.89.52,2.85.16.89-.33,1.1-1.65,1.23-2.42.15-.95.76-1.58.76-2.54,0-1.06-.52-1.59-1.46-2.07-.97-.5-1.96-.82-3.01-.22-.95.54-1.55,1.68-2.15,2.56h0Z"/>
              <path class="cls-5" d="M127.28,66.39c-.09-.01-.19-.03-.28-.04-.16-.37-.22-.94,0-1.29.38-.56.5-.26.92-.13.87.27,1.31.91,1.37,1.82.05.72-.45,1.81-1.37,1.56-.8-.21-1.28-1.18-1.31-1.88l.66-.04Z"/>
              <path class="cls-5" d="M93.1,91.26c-1.84.15-3.5,1.75-4.09,3.42-.18.53-.45,1.02-.61,1.57-.18.63-.23,1.34-.31,1.98-.04.3.06.59.05.89-.01.25-.12.47-.13.73-.03.56.07,1.24.21,1.77.08.29.11.51.14.82.02.33.14.52.21.82.12.53.22,1.03.45,1.54.18.39.39.87.68,1.19.27.3.59.69.95.91.83.51,1.93.49,2.86.43.88-.06,1.76-.12,2.64-.17.83-.05,1.84.03,2.64-.17.82-.2,1.64-.6,2.33-1.09.65-.46,1.19-1.24,1.62-1.91.52-.8,1-1.55,1.46-2.39.44-.82.65-1.63.91-2.51.27-.92.69-1.72.61-2.7-.07-1.01-.06-2.02-.39-2.96-.33-.93-1.21-1.44-1.93-1.99-.85-.64-1.76-1.21-2.75-1.64-.29-.12-.52-.12-.81-.19-.09-.02-.07-.1-.2-.12-.14-.02-.29.06-.43.04-.23-.02-.34-.12-.58-.14-.23-.02-.52.03-.75.05-.26.03-.34.14-.56.21-.23.07-.51-.01-.75.06-.29.08-.42.18-.73.2-.28.02-.37.14-.58.19-.23.06-.51-.01-.74.05-.18.06-.36.22-.55.29-.46.18-.82.5-.86.8Z"/>
              <path class="cls-5" d="M87.4,85.49c-.37-.06-.32-.35-.41-.64-.09-.3-.22-.45-.14-.78.12-.52.54-.81,1.08-.78.48.03.8.3,1.16.63.44.42.79.94.95,1.49.3,1.02-.19,2.32-1.43,2.16-.47-.06-.77-.55-.89-.94-.07-.22-.23-.42-.3-.64-.09-.28-.04-.7-.06-1l.03.5Z"/>
              <path class="cls-5" d="M79.39,120.05c-.44.04-.68-.18-1.13-.05-.35.1-.66.36-.99.57-.91.58-1.48,1.43-1.13,2.52.21.66,1,1.25,1.56,1.64.58.41,1.45.79,2.13.77.41,0,.93,0,1.32-.1.42-.12.83-.37,1.2-.56.77-.4,1.44-.83,2.03-1.5.47-.54,1.04-1.13,1.08-1.85.05-.85-.25-1.64-.97-2.13-.91-.63-1.69-.68-2.79-.61-.26.02-.57,0-.83.07-.25.07-.48.25-.72.33-.26.08-.43.09-.65.25-.14.1-.31.32-.47.36l.35.31Z"/>
              <path class="cls-5" d="M102.04,83.83c-.59-.39-.38-.77.05-1.21.32-.33.53-.51.94-.72.42-.22.92-.28,1.32,0,.35.24.69.56.93.89.17.23.13.38.2.65.08.35.26.44.02.79-.27.39-.7.56-1.16.61-.57.06-.92.05-1.42-.16-.47-.2-.62-.43-.89-.85h0Z"/>
              <path class="cls-5" d="M104.21,47.83s.05,0,.07-.01c-.14.16-.06.73.04.88.06.09.2.16.28.21.07.05.23.15.3.19.53.23,1.2.19,1.49-.34.28-.5.24-1.08-.21-1.47-.34-.29-1.41-.57-1.52.13l-.47.4Z"/>
              <path class="cls-5" d="M114.33,46.54s-.07,0-.1-.01c-.12-.35-.02-.7.02-1.04.06-.43-.07-.68.46-.71.57-.03,1.21.27,1.73.49.28.12.61.31.82.54.18.2.47.54.55.82.23.76-.06,1.52-.37,2.21-.29.65-.71.99-1.24,1.44-.49.41-1.07.87-1.67.99-.62.12-1.22-.08-1.68-.48-.48-.41-.49-1.1-.35-1.65.08-.33.11-.63.24-.95.1-.23.19-.56.32-.77.35-.55.88-.8,1.39-1.12l-.11.26Z"/>
              <path class="cls-5" d="M120.15,46.03c0-.07,0-.14-.01-.21-.05.55.46.43.84.41.21-.01.38-.01.55-.1.25-.12.24-.17.22-.45-.03-.41-.25-.56-.66-.58-.3-.01-.92.06-.97.44l.03.5Z"/>
              <path class="cls-5" d="M67.68,120.1c.06.24-.12.42-.18.63-.06.2-.08.41-.14.6-.15.45-.3.93-.38,1.42-.07.5-.14,1.05-.14,1.57,0,.47-.15.96-.04,1.43.11.43.28.75.67.99.38.23.71.42,1.17.39.41-.03.74-.05,1.11-.22.42-.2.64-.53.91-.91.25-.35.32-.74.48-1.12.08-.18.22-.34.28-.54.07-.23.09-.47.17-.7.13-.41.33-.8.46-1.21.06-.21.09-.42.14-.63.06-.26.21-.51.27-.76.04-.19.1-.44.11-.63,0-.08-.04-.17-.03-.25.01-.14.1-.24.11-.38.02-.2-.08-.42-.05-.62.02-.23.11-.39.09-.63-.06-.72-.35-1.62-1.03-2.02-.44-.26-.73-.04-1.08.17-.38.22-.79.46-1.1.79-.31.32-.61.63-.87.99-.12.17-.24.33-.34.51-.14.26-.12.53-.58,1.13Z"/>
              <path class="cls-5" d="M66.96,133.84c-.24-.02-.5-.63-.56-.83-.06-.19.02-.43-.03-.63-.06-.23-.16-.36-.17-.61-.02-.4-.13-.85-.05-1.24.05-.29.03-.94.41-.88.35.06.58.53.71.8.09.19.22.4.26.61.02.08-.02.18,0,.26.03.1.11.1.13.18.1.33.09.85.03,1.17-.05.25-.04.8-.38.9l-.36.27Z"/>
              <path class="cls-5" d="M67.36,115.26c0-.07-.01-.14-.01-.21.03.15-.09.3-.1.46-.01.19-.01.44.16.56.33.22.73-.34.87-.59.07-.13.15-.28.19-.42.03-.11.13-.4.1-.51-.1-.4-.6-.45-.91-.43l-.3,1.14Z"/>
              <path class="cls-5" d="M82.69,114.15c-.16-.62.55-1.54.93-1.99.52-.63.98-1.33,1.61-1.86.1-.08.28-.05.38-.14.13-.11.19-.32.33-.42.14-.09.32,0,.45-.07.14-.07.24-.23.37-.26.84-.21,1.58-.03,2.34.07.41.05.8.12,1.21.23.14.04.26.14.43.17.19.03.37-.03.57.01.39.08.57.17,1.06.12.55-.05.97.16,1.5.15,1.49-.02,3.16-.02,4.26,1.21.49.55.78,1.47.95,2.17.2.8.12,1.88-.09,2.63-.34,1.21-1,2.36-1.96,3.29-.5.49-1.33.94-1.98,1.07-.16.03-.34-.01-.51.02-.24.05-.36.19-.53.23-.33.1-.82.2-1.18.15-1.59-.23-2.84-.9-4.28-1.54-.64-.29-1.27-.72-1.93-.99-.72-.3-1.33-.46-1.93-.99-1-.88-2.35-2.55-2.03-3.99.07-.02.14-.04,0,.7Z"/>
              <path class="cls-5" d="M120.1,134.09c-.66-.03.17-1.05.41-1.22.59-.44,1.03-.28,1.52.16.89.8,1.43,1.79,1.44,2.96,0,.63-.24,1.03-.92,1.19-.7.16-.98-.13-1.52-.41-.37-.19-1.13-.3-1.3-.64-.31-.61.33-1.27.15-1.77l.23-.26Z"/>
              <path class="cls-5" d="M136.62,124.04c.05-.05.1-.11.15-.16-.46.23-.71.74-1.07,1.09-.6.59-1.23,1.2-1.72,1.88-.85,1.18-1.72,2.64-2,4.09-.27,1.36.07,2.92.83,4.07.88,1.33,1.99,1.41,3.42,1.7.62.12,1.12-.16,1.66-.36.56-.2,1.15-.57,1.74-.88,1.15-.59,2.23-1.25,2.83-2.48.57-1.19.59-2.49.49-3.89-.05-.71.17-1.3.12-2-.06-.82-.08-1.47-.4-2.22-.48-1.12-1.11-2.41-2.64-2.32-.76.05-1.38.7-1.98,1.07-.65.41-1.58.88-1.41.41Z"/>
              <path class="cls-5" d="M135.94,117.61c-.07-.01-.15-.03-.22-.04.28-.76.73-1.71,1.37-2.28.41-.37.91-.47,1.15.17.16.43.34.91.39,1.35.1.81.32,2.37-.84,2.43-.61.03-1.74-.99-1.6-1.65l-.25.02Z"/>
              <path class="cls-5" d="M67.45,143.54c-.73-.07-1.11-.4-1.72.16-.6.55-.86,1.28-1.18,2.02-.27.64-.56,1.33-.56,2.03,0,.76.18,1.05.78,1.5,1.05.78,2.66,1.31,3.91,1.67,1.25.36,2.55,1.16,3.81,1.25,1.23.09,1.73-1.09,2.31-1.95.36-.53.67-1.15,1.01-1.71.15-.25.28-.54.44-.78.06-.09.19-.15.24-.24.09-.15.11-.39.2-.52.31-.48.57-.74.61-1.33.04-.66-.06-1.35-.35-1.88-.61-1.09-1.86-1.78-3.03-2.1-1.66-.45-3.09-.4-4.73.05-.73.2-1.41.55-2.06.92-.51.29-.87,1.13.31.92Z"/>
              <path class="cls-5" d="M58.85,145.35c-.7-.04-.07-1.24.2-1.51.49-.5.99-.28,1.4.22.4.48.56,1.11-.03,1.51-.72.5-.69-.16-1.32-.23l-.25.02Z"/>
              <path class="cls-5" d="M134.75,46.73c-.07.02-.13.04-.2.06,0,.5-.42.96-.46,1.48-.05.57-.16,1.18-.12,1.75.09,1.12.29,2.08,1.41,2.58.46.21.94.34,1.4.5.58.2,1.07.06,1.64.17.93.18,2.37.1,2.65-1.12.1-.45-.05-1.12-.09-1.59-.04-.56,0-1.2-.17-1.73-.3-.91-.53-1.67-1.04-2.48-.45-.72-1.15-1.32-1.97-1.5-.8-.18-2.23.07-2.36,1.1l-.69.79Z"/>
            </g>
            <path class="cls-3" d="M75.59,67.18c-.19-.04-.34.36-.4.51-.1.22-.12.47-.18.7-.03.11-.06.13-.07.25,0,.1,0,.24.02.33.04.21.16.33.32.47.65.57,1.74.2,2.39-.17.76-.43,1.54-1.03,1.76-1.93.1-.39-.11-.82-.47-1.05-.17-.11-.35-.16-.53-.23-.08-.03-.18-.09-.28-.11-.07-.01-.11,0-.17,0-.07,0-.14-.05-.19-.05-.56-.08-1.13.15-1.59.44-.26.16-.97.57-.97.94-.02,0-.04.01.34-.09Z"/>
          </g>
          <path class="cls-4" d="M155.91,89.44c2.23-1.24,3.89-1.99,3.89-1.99-1.33-20.2-11.28-37.78-26.02-49.4l-4.83-.98c-7.09-1.95-12.3-5.69-15.21-8.23h0l-2.68-2.62c-7.65-2.3-15.83-3.3-24.27-2.74-37.83,2.5-66.46,35.18-63.96,73.01,2.5,37.83,35.18,66.46,73.01,63.96,21.07-1.39,39.28-12.14,50.86-27.95,0,0-.01-.02-.01-.03-.64-1.27-1.19-3.15-1.63-5.37.87,3.27,1.64,5.4,1.64,5.4v-2.86c1.77-20.03,9.22-40.21,9.22-40.21h0ZM62.1,115.96l-1.3,3.16s0,.02,0,.02c-8.88-11.12-2.16-28.53-2.16-28.53.01.02.03.04.04.06.01,0,.02,0,.02.02,2.26,2.68,4.16,5.47,5.31,8.06.06.13.11.25.15.38.68,1.78,1.11,3.67.95,5.52-.52,3-1.6,7.14-3.01,11.3Z"/>
        </g>
      </g>
    </g>
  </g>
</svg>