<?xml version="1.0" encoding="UTF-8"?>
<svg xmlns="http://www.w3.org/2000/svg" xmlns:xlink="http://www.w3.org/1999/xlink" viewBox="0 0 604.47 82.85">
  <defs>
    <style>
      .cls-1 {
        fill: url(#_Áåçûìÿííûé_ãðàäèåíò_60-3);
      }

      .cls-1, .cls-2, .cls-3, .cls-4, .cls-5, .cls-6, .cls-7, .cls-8, .cls-9, .cls-10 {
        fill-rule: evenodd;
      }

      .cls-2 {
        fill: url(#_Áåçûìÿííûé_ãðàäèåíò_149-6);
      }

      .cls-2, .cls-3, .cls-5, .cls-6, .cls-7, .cls-8 {
        mix-blend-mode: multiply;
        opacity: .5;
      }

      .cls-3 {
        fill: url(#_Áåçûìÿííûé_ãðàäèåíò_149-3);
      }

      .cls-4 {
        fill: #ff9ca7;
        opacity: .2;
      }

      .cls-5 {
        fill: url(#_Áåçûìÿííûé_ãðàäèåíò_149-2);
      }

      .cls-11 {
        isolation: isolate;
      }

      .cls-6 {
        fill: url(#_Áåçûìÿííûé_ãðàäèåíò_149-5);
      }

      .cls-7 {
        fill: url(#_Áåçûìÿííûé_ãðàäèåíò_149);
      }

      .cls-8 {
        fill: url(#_Áåçûìÿííûé_ãðàäèåíò_149-4);
      }

      .cls-9 {
        fill: url(#_Áåçûìÿííûé_ãðàäèåíò_60);
      }

      .cls-10 {
        fill: url(#_Áåçûìÿííûé_ãðàäèåíò_60-2);
      }
    </style>
    <linearGradient id="_Áåçûìÿííûé_ãðàäèåíò_60" data-name="Áåçûìÿííûé ãðàäèåíò 60" x1="324.37" y1="82.85" x2="324.37" y2="24.41" gradientUnits="userSpaceOnUse">
      <stop offset="0" stop-color="#db3d61"/>
      <stop offset=".61" stop-color="#a31855"/>
      <stop offset="1" stop-color="#7d004d"/>
    </linearGradient>
    <linearGradient id="_Áåçûìÿííûé_ãðàäèåíò_149" data-name="Áåçûìÿííûé ãðàäèåíò 149" x1="290.25" y1="82.85" x2="290.25" y2="29.85" gradientUnits="userSpaceOnUse">
      <stop offset="0" stop-color="#c77cbd"/>
      <stop offset="1" stop-color="#974577"/>
    </linearGradient>
    <linearGradient id="_Áåçûìÿííûé_ãðàäèåíò_149-2" data-name="Áåçûìÿííûé ãðàäèåíò 149" x1="237.89" y1="70.98" x2="342.38" y2="70.98" xlink:href="#_Áåçûìÿííûé_ãðàäèåíò_149"/>
    <linearGradient id="_Áåçûìÿííûé_ãðàäèåíò_60-2" data-name="Áåçûìÿííûé ãðàäèåíò 60" x1="526.91" x2="526.91" y2="0" xlink:href="#_Áåçûìÿííûé_ãðàäèåíò_60"/>
    <linearGradient id="_Áåçûìÿííûé_ãðàäèåíò_149-3" data-name="Áåçûìÿííûé ãðàäèåíò 149" x1="526.91" x2="526.91" y2="2.75" xlink:href="#_Áåçûìÿííûé_ãðàäèåíò_149"/>
    <linearGradient id="_Áåçûìÿííûé_ãðàäèåíò_149-4" data-name="Áåçûìÿííûé ãðàäèåíò 149" x1="556.29" x2="556.29" y2="59.1" xlink:href="#_Áåçûìÿííûé_ãðàäèåíò_149"/>
    <linearGradient id="_Áåçûìÿííûé_ãðàäèåíò_60-3" data-name="Áåçûìÿííûé ãðàäèåíò 60" x1="69.43" x2="69.43" y2="37.85" xlink:href="#_Áåçûìÿííûé_ãðàäèåíò_60"/>
    <linearGradient id="_Áåçûìÿííûé_ãðàäèåíò_149-5" data-name="Áåçûìÿííûé ãðàäèåíò 149" x1="69.43" x2="69.43" y2="45.97" xlink:href="#_Áåçûìÿííûé_ãðàäèåíò_149"/>
    <linearGradient id="_Áåçûìÿííûé_ãðàäèåíò_149-6" data-name="Áåçûìÿííûé ãðàäèåíò 149" x1="55.01" y1="64.41" x2="138.87" y2="64.41" xlink:href="#_Áåçûìÿííûé_ãðàäèåíò_149"/>
  </defs>
  <g class="cls-11">
    <g id="Layer_2" data-name="Layer 2">
      <g id="Layer_1-2" data-name="Layer 1">
        <g id="stone-1">
          <g>
            <polygon class="cls-9" points="433.33 82.85 365.1 59.1 357.71 60.35 246.81 25.69 224.59 24.41 215.41 29.85 232.71 60.19 229.28 63.52 235.18 82.85 433.33 82.85"/>
            <polygon class="cls-7" points="215.41 29.85 240.15 59.1 342.38 67.85 357.71 60.35 365.1 59.1 334.99 74.19 340.48 82.85 324.37 82.85 252.94 64.85 232.71 60.19 215.41 29.85"/>
            <polygon class="cls-4" points="215.41 29.85 240.15 59.1 342.38 67.85 357.71 60.35 246.81 25.69 224.59 24.41 215.41 29.85"/>
            <polygon class="cls-5" points="342.38 67.85 342.29 70.53 334.99 74.19 340.48 82.85 324.37 82.85 237.89 61.38 240.15 59.1 342.38 67.85"/>
          </g>
          <g>
            <polygon class="cls-10" points="478.54 82.85 477.22 77.35 480.37 72.85 468.19 67.88 449.35 54.52 449.35 48.14 583.33 0 594.37 2.75 604.47 59.1 578.17 70.85 573.77 76.1 572.6 82.85 478.54 82.85"/>
            <polygon class="cls-3" points="594.37 2.75 592.8 24.85 572.13 41.43 499.8 59.1 545.28 53.63 572.13 53.63 590.95 59.1 574.58 67.52 494.78 65.19 449.35 54.52 468.19 67.88 480.37 72.85 518.82 69.48 543.13 72.85 477.22 77.35 478.54 82.85 572.6 82.85 573.77 76.1 578.17 70.85 604.47 59.1 594.37 2.75"/>
            <polygon class="cls-4" points="449.35 54.52 485.89 63.1 502.24 58.81 572.13 41.43 592.8 24.85 594.37 2.75 583.33 0 449.35 48.14 449.35 54.52"/>
            <polygon class="cls-8" points="543.13 72.85 540.81 82.85 572.6 82.85 573.77 76.1 578.17 70.85 593.76 63.89 590.95 59.1 574.58 67.52 519.28 65.9 518.82 69.48 543.13 72.85"/>
          </g>
          <g>
            <polygon class="cls-1" points="3.3 82.85 7.09 75.19 3.53 67.85 0 59.18 134 37.85 138.87 45.97 123.58 71.85 119.6 75.85 91.18 78.48 91.27 82.85 3.3 82.85"/>
            <polygon class="cls-6" points="138.87 45.97 111.94 67.85 20.41 67.85 0 59.18 7.09 75.19 23.19 72.35 79.98 70.6 55.01 75.19 32.46 82.85 91.27 82.85 91.18 78.48 119.6 75.85 123.58 71.85 138.87 45.97"/>
            <polygon class="cls-4" points="0 59.18 20.41 67.85 111.94 67.85 138.87 45.97 134 37.85 0 59.18"/>
            <polygon class="cls-2" points="111.94 67.85 75.59 67.85 66.48 71.02 79.98 70.6 55.01 75.19 60.05 82.85 91.27 82.85 91.18 78.48 119.6 75.85 123.58 71.85 138.87 45.97 111.94 67.85"/>
          </g>
        </g>
      </g>
    </g>
  </g>
</svg>