<?xml version="1.0" encoding="UTF-8"?>
<svg xmlns="http://www.w3.org/2000/svg" xmlns:xlink="http://www.w3.org/1999/xlink" viewBox="0 0 1000 230.85">
  <defs>
    <style>
      .cls-1 {
        fill: url(#_Áåçûìÿííûé_ãðàäèåíò_6-6);
      }

      .cls-1, .cls-2, .cls-3, .cls-4, .cls-5, .cls-6, .cls-7, .cls-8, .cls-9, .cls-10, .cls-11, .cls-12, .cls-13, .cls-14, .cls-15, .cls-16, .cls-17, .cls-18, .cls-19, .cls-20, .cls-21, .cls-22 {
        fill-rule: evenodd;
      }

      .cls-1, .cls-3, .cls-4, .cls-5, .cls-6, .cls-7, .cls-8, .cls-9, .cls-10, .cls-11, .cls-12, .cls-13, .cls-14, .cls-15, .cls-16, .cls-17, .cls-18, .cls-19, .cls-20, .cls-21, .cls-22 {
        mix-blend-mode: multiply;
        opacity: .2;
      }

      .cls-2 {
        fill: url(#_Áåçûìÿííûé_ãðàäèåíò_153);
      }

      .cls-3 {
        fill: url(#_Áåçûìÿííûé_ãðàäèåíò_6-20);
      }

      .cls-4 {
        fill: url(#_Áåçûìÿííûé_ãðàäèåíò_6-11);
      }

      .cls-5 {
        fill: url(#_Áåçûìÿííûé_ãðàäèåíò_6-4);
      }

      .cls-6 {
        fill: url(#_Áåçûìÿííûé_ãðàäèåíò_6-17);
      }

      .cls-7 {
        fill: url(#_Áåçûìÿííûé_ãðàäèåíò_6-15);
      }

      .cls-23 {
        isolation: isolate;
      }

      .cls-8 {
        fill: url(#_Áåçûìÿííûé_ãðàäèåíò_6-9);
      }

      .cls-9 {
        fill: url(#_Áåçûìÿííûé_ãðàäèåíò_6-19);
      }

      .cls-10 {
        fill: url(#_Áåçûìÿííûé_ãðàäèåíò_6-2);
      }

      .cls-11 {
        fill: url(#_Áåçûìÿííûé_ãðàäèåíò_6-13);
      }

      .cls-12 {
        fill: url(#_Áåçûìÿííûé_ãðàäèåíò_6-5);
      }

      .cls-13 {
        fill: url(#_Áåçûìÿííûé_ãðàäèåíò_6-10);
      }

      .cls-14 {
        fill: url(#_Áåçûìÿííûé_ãðàäèåíò_6-7);
      }

      .cls-15 {
        fill: url(#_Áåçûìÿííûé_ãðàäèåíò_6);
      }

      .cls-16 {
        fill: url(#_Áåçûìÿííûé_ãðàäèåíò_6-18);
      }

      .cls-17 {
        fill: url(#_Áåçûìÿííûé_ãðàäèåíò_6-16);
      }

      .cls-18 {
        fill: url(#_Áåçûìÿííûé_ãðàäèåíò_6-8);
      }

      .cls-19 {
        fill: url(#_Áåçûìÿííûé_ãðàäèåíò_6-12);
      }

      .cls-20 {
        fill: url(#_Áåçûìÿííûé_ãðàäèåíò_6-14);
      }

      .cls-21 {
        fill: url(#_Áåçûìÿííûé_ãðàäèåíò_6-3);
      }

      .cls-22 {
        fill: url(#_Áåçûìÿííûé_ãðàäèåíò_6-21);
      }
    </style>
    <linearGradient id="_Áåçûìÿííûé_ãðàäèåíò_153" data-name="Áåçûìÿííûé ãðàäèåíò 153" x1="500" y1="230.85" x2="500" y2="0" gradientUnits="userSpaceOnUse">
      <stop offset="0" stop-color="#ff774d"/>
      <stop offset=".1" stop-color="#ef6655"/>
      <stop offset=".3" stop-color="#c63a6d"/>
      <stop offset=".46" stop-color="#a41581"/>
      <stop offset=".78" stop-color="#6c0866"/>
      <stop offset="1" stop-color="#450054"/>
    </linearGradient>
    <linearGradient id="_Áåçûìÿííûé_ãðàäèåíò_6" data-name="Áåçûìÿííûé ãðàäèåíò 6" x1="600" y1="230.85" x2="600" y2="5.52" gradientUnits="userSpaceOnUse">
      <stop offset="0" stop-color="#fff"/>
      <stop offset="1" stop-color="#974577"/>
    </linearGradient>
    <linearGradient id="_Áåçûìÿííûé_ãðàäèåíò_6-2" data-name="Áåçûìÿííûé ãðàäèåíò 6" x1="938.64" x2="938.64" y2="98.31" xlink:href="#_Áåçûìÿííûé_ãðàäèåíò_6"/>
    <linearGradient id="_Áåçûìÿííûé_ãðàäèåíò_6-3" data-name="Áåçûìÿííûé ãðàäèåíò 6" x1="914.75" x2="914.75" y2="58.6" xlink:href="#_Áåçûìÿííûé_ãðàäèåíò_6"/>
    <linearGradient id="_Áåçûìÿííûé_ãðàäèåíò_6-4" data-name="Áåçûìÿííûé ãðàäèåíò 6" x1="876.65" y1="225.35" x2="876.65" y2="103.52" xlink:href="#_Áåçûìÿííûé_ãðàäèåíò_6"/>
    <linearGradient id="_Áåçûìÿííûé_ãðàäèåíò_6-5" data-name="Áåçûìÿííûé ãðàäèåíò 6" x1="826.61" y1="150.75" x2="826.61" y2="113.82" xlink:href="#_Áåçûìÿííûé_ãðàäèåíò_6"/>
    <linearGradient id="_Áåçûìÿííûé_ãðàäèåíò_6-6" data-name="Áåçûìÿííûé ãðàäèåíò 6" x1="843.39" x2="843.39" y2="159.99" xlink:href="#_Áåçûìÿííûé_ãðàäèåíò_6"/>
    <linearGradient id="_Áåçûìÿííûé_ãðàäèåíò_6-7" data-name="Áåçûìÿííûé ãðàäèåíò 6" x1="726.04" x2="726.04" y2="164.02" xlink:href="#_Áåçûìÿííûé_ãðàäèåíò_6"/>
    <linearGradient id="_Áåçûìÿííûé_ãðàäèåíò_6-8" data-name="Áåçûìÿííûé ãðàäèåíò 6" x1="697.17" x2="697.17" y2="151.52" xlink:href="#_Áåçûìÿííûé_ãðàäèåíò_6"/>
    <linearGradient id="_Áåçûìÿííûé_ãðàäèåíò_6-9" data-name="Áåçûìÿííûé ãðàäèåíò 6" x1="789.92" x2="789.92" y2="153.48" xlink:href="#_Áåçûìÿííûé_ãðàäèåíò_6"/>
    <linearGradient id="_Áåçûìÿííûé_ãðàäèåíò_6-10" data-name="Áåçûìÿííûé ãðàäèåíò 6" x1="532.08" y1="207.1" x2="532.08" y2="99.61" xlink:href="#_Áåçûìÿííûé_ãðàäèåíò_6"/>
    <linearGradient id="_Áåçûìÿííûé_ãðàäèåíò_6-11" data-name="Áåçûìÿííûé ãðàäèåíò 6" x1="568.77" x2="568.77" y2="39.84" xlink:href="#_Áåçûìÿííûé_ãðàäèåíò_6"/>
    <linearGradient id="_Áåçûìÿííûé_ãðàäèåíò_6-12" data-name="Áåçûìÿííûé ãðàäèåíò 6" x1="370.78" x2="370.78" y2="113.96" xlink:href="#_Áåçûìÿííûé_ãðàäèåíò_6"/>
    <linearGradient id="_Áåçûìÿííûé_ãðàäèåíò_6-13" data-name="Áåçûìÿííûé ãðàäèåíò 6" x1="255.59" x2="255.59" y2="185.85" xlink:href="#_Áåçûìÿííûé_ãðàäèåíò_6"/>
    <linearGradient id="_Áåçûìÿííûé_ãðàäèåíò_6-14" data-name="Áåçûìÿííûé ãðàäèåíò 6" x1="313.55" x2="313.55" y2="121.69" xlink:href="#_Áåçûìÿííûé_ãðàäèåíò_6"/>
    <linearGradient id="_Áåçûìÿííûé_ãðàäèåíò_6-15" data-name="Áåçûìÿííûé ãðàäèåíò 6" x1="452.31" y1="208.18" x2="452.31" y2="139.19" xlink:href="#_Áåçûìÿííûé_ãðàäèåíò_6"/>
    <linearGradient id="_Áåçûìÿííûé_ãðàäèåíò_6-16" data-name="Áåçûìÿííûé ãðàäèåíò 6" x1="490.83" y1="207.18" x2="490.83" y2="161.73" xlink:href="#_Áåçûìÿííûé_ãðàäèåíò_6"/>
    <linearGradient id="_Áåçûìÿííûé_ãðàäèåíò_6-17" data-name="Áåçûìÿííûé ãðàäèåíò 6" x1="120.75" x2="120.75" y2="59.24" xlink:href="#_Áåçûìÿííûé_ãðàäèåíò_6"/>
    <linearGradient id="_Áåçûìÿííûé_ãðàäèåíò_6-18" data-name="Áåçûìÿííûé ãðàäèåíò 6" x1="102.53" y1="166" x2="102.53" y2="89.59" xlink:href="#_Áåçûìÿííûé_ãðàäèåíò_6"/>
    <linearGradient id="_Áåçûìÿííûé_ãðàäèåíò_6-19" data-name="Áåçûìÿííûé ãðàäèåíò 6" x1="163" x2="163" y2="109.88" xlink:href="#_Áåçûìÿííûé_ãðàäèåíò_6"/>
    <linearGradient id="_Áåçûìÿííûé_ãðàäèåíò_6-20" data-name="Áåçûìÿííûé ãðàäèåíò 6" x1="204.17" x2="204.17" y2="95.86" xlink:href="#_Áåçûìÿííûé_ãðàäèåíò_6"/>
    <linearGradient id="_Áåçûìÿííûé_ãðàäèåíò_6-21" data-name="Áåçûìÿííûé ãðàäèåíò 6" x1="39.63" y1="125.02" x2="39.63" y2="59.24" xlink:href="#_Áåçûìÿííûé_ãðàäèåíò_6"/>
  </defs>
  <g class="cls-23">
    <g id="Layer_2" data-name="Layer 2">
      <g id="Layer_1-2" data-name="Layer 1">
        <g id="stone-2">
          <polygon class="cls-2" points="200 230.85 1000 230.85 1000 77.01 971.25 94.98 969.5 99.53 965.88 102.15 949.26 188.43 948.55 195.87 950.25 120.25 943.75 58.6 929.51 54.23 890.81 143.86 889.19 186.52 871.94 103.52 844.85 93.2 840.8 94.12 836.89 132.6 834.68 135.7 836.89 116.49 835.58 113.82 815.28 115.7 780.85 150.43 782.83 155.97 756.57 198.85 735.32 191.13 736.5 164.02 731.82 157.39 730.55 139.02 731.54 125.85 730.55 111.68 730.55 107.23 727.18 115.2 726.42 128.35 717.33 137.96 715.63 152.96 706.83 179.85 703.77 180.52 708.4 151.52 706.83 149.18 697.7 137.96 693.91 122.77 685.57 127.67 674.74 177.46 673.32 178.34 660.22 224.85 648.65 209.18 648.65 179.89 632.67 144.27 626.49 126.5 629.09 66.71 626.49 54.63 619.2 47.38 615 17.3 605.36 5.52 596.37 0 588.24 39.84 588.24 24.37 585.24 15.52 581 18.11 559.25 39.84 555.91 50.45 538 161.06 534.64 164.02 540.53 99.61 532 77.71 529.8 75.22 529.8 56.28 523.67 43.08 520.67 42.91 510 85.46 513 89.84 505.33 154.75 502.33 207.02 501 207.18 492.83 127.19 479.2 108.84 470.55 125.49 443.32 141.94 426.75 184.1 429.12 186.6 423.33 203.18 412.35 204.85 418.59 116.45 407.51 96.48 405.4 97.8 387.52 59.16 364.8 51.79 358.06 56.28 338.83 161.06 338.16 166.09 330.31 167.15 323.01 128.09 312.91 117.51 307.58 107.81 303.94 98.77 289.17 96.07 283.25 98.77 284.82 177.68 284.82 182.18 279.08 220.52 272.52 224.85 269.3 193.18 240 131.45 234.62 133.08 221.33 163.46 221.33 169.88 225.67 177.68 209.33 161.66 200 95.86 191.02 96.88 188 102.45 177.67 141.14 173.01 143.07 179.33 112.06 173.01 104.25 164.33 102.19 134.33 130.25 120.33 178.43 117 181.18 128 132.02 124.33 102.19 111.67 91.05 109 109.88 105.67 112.06 109 89.59 107 87.52 96.06 99.44 79.33 193.97 78 204.52 78 120.64 56.67 104.94 33.11 59.24 .42 19.36 0 230.85 200 230.85 200 230.85"/>
          <polygon class="cls-15" points="1000 77.01 991.5 194.35 983 224.35 970 230.85 970 148 971.25 94.98 969.5 99.53 967.25 155.94 959.5 209.6 948 223.6 948.55 195.87 950.02 118.12 943.75 58.6 946 98.31 927.25 150.85 919.5 155.94 905.98 155.94 921.5 93.76 931.5 58.6 903.49 144.73 890.81 143.86 889.19 186.52 871.94 103.52 864.12 106 865.6 152.64 862.35 153.09 856.24 212.85 850.25 220.35 848.36 155.94 836.89 132.6 834.68 135.7 836.89 116.49 835.58 113.82 827.04 129.4 816.34 150.35 780.85 150.43 782.83 155.97 806.72 153.48 773.5 190.85 756.57 198.85 735.32 191.13 736.5 164.02 731.82 157.39 730.74 141.77 731.54 125.85 730.74 115.81 730.74 129.4 728.25 158.98 722.47 175.35 720.36 177.48 722.47 146.68 720.94 149.55 717.19 186.6 709.16 209.1 706.83 179.85 703.77 180.52 708.4 151.52 703.32 153.48 697.5 190.18 686.67 218.02 680.29 224.68 690.67 168.18 698.42 151.77 706.84 149.06 697.7 137.96 700.01 142.59 693.71 150.75 687.63 177.35 678.61 211.85 670.73 217.6 669.58 217.48 674.74 177.46 673.32 178.34 668.21 219.98 664.63 223.48 660.22 224.85 648.65 209.18 648.65 179.89 638.01 155.85 636.31 165.2 638.01 182.87 632.4 219.85 613 226.85 609.89 186.1 617.51 138.2 626.09 143.19 629.09 66.71 626.49 54.63 624.14 86.33 609.89 132.68 604.84 136.89 615.22 61.45 619.2 47.38 615 17.3 605.36 5.52 604.84 20.1 607 18.1 604.84 65.1 596.62 161.73 578.85 215.35 571.83 219.6 574.43 153.48 588.24 39.84 588.24 24.37 583 41.14 578.85 47.31 583.25 44.65 573.24 111 549.3 155.94 538 161.06 534.64 164.02 540.53 99.61 532 77.71 527.75 87.9 523.75 100.15 529.8 75.22 529.8 56.28 523.75 65.5 518.5 81.08 510 85.46 513 89.84 522.97 91.72 525.75 172.85 524.75 207.1 545.61 217.85 502.33 207.02 501 207.18 492.83 127.19 490.8 124.45 490.8 161.73 480.67 205.18 472.9 208.18 474.73 163.46 477.88 157.69 470.55 125.49 468.35 126.82 469.53 139.19 456.07 182.87 426.75 184.1 429.12 186.6 443.87 188.52 448.06 207.85 423.33 203.18 412.35 204.85 418.59 116.45 407.51 96.48 405.28 113.96 384.34 175.52 403.7 94.13 388.53 57.6 381.05 155.4 365.34 175.85 338.16 166.09 330.31 167.15 323.01 128.09 313.08 121.69 305.57 99.69 299.17 100.15 305.28 137.53 309.9 190.85 299.17 224.85 299.17 212.85 286.58 225.85 279.08 220.52 272.52 224.85 269.3 193.18 240 131.45 248.33 156.88 245 185.52 221.33 169.88 225.67 177.68 238.67 185.85 243.33 222.18 239.67 224.52 200 218.52 200 230.85 304.74 230.85 312.59 207.18 338.22 182.87 362.33 182.87 346.16 216.18 318.23 230.85 374.38 230.85 381.05 222.52 455.08 211.52 460.37 211.52 524.67 230.85 568.21 230.85 579.81 224.18 599.8 167.85 607.49 155.4 604.84 190.85 604.41 230.85 778.8 230.85 788.98 200.35 839.09 159.99 842.73 172.6 841.19 206.85 816.34 230.85 1000 230.85 1000 77.01"/>
          <polygon class="cls-10" points="927.25 150.85 934.19 209.18 934.19 230.85 942.33 230.85 949.03 190.85 950.02 118.12 946 98.31 927.25 150.85"/>
          <polygon class="cls-21" points="905.98 155.94 902.43 230.85 897.99 230.85 903.49 144.73 931.5 58.6 905.98 155.94"/>
          <polygon class="cls-5" points="865.6 152.64 875.27 172.6 883.46 225.35 889.19 186.52 871.94 103.52 864.12 106 865.6 152.64"/>
          <polygon class="cls-12" points="836.89 116.49 835.58 113.82 816.34 150.35 819.92 150.75 834.68 135.7 836.89 116.49"/>
          <polygon class="cls-1" points="839.09 159.99 848.36 164.58 849.75 230.85 837.03 230.85 841.19 206.85 842.73 170.58 839.09 159.99"/>
          <polygon class="cls-14" points="736.5 164.02 729.2 167.85 715.58 230.85 731 230.85 735.32 191.13 736.5 164.02"/>
          <polygon class="cls-18" points="703.77 180.52 706.83 179.85 709.16 209.1 707.71 230.85 685.17 230.85 686.67 218.02 697.5 190.18 703.32 153.48 708.4 151.52 703.77 180.52"/>
          <polygon class="cls-8" points="806.72 153.48 811.5 182.21 788.98 200.35 778.8 230.85 768.34 230.85 773.5 190.85 806.72 153.48"/>
          <polygon class="cls-13" points="540.53 99.61 523.63 111 525.75 172.85 524.75 207.1 534.64 164.02 540.53 99.61"/>
          <polygon class="cls-4" points="588.24 39.84 583.25 44.65 573.24 108.88 549.3 155.94 550.57 194.18 568.21 230.85 571.83 228.77 571.83 219.6 574.43 153.48 588.24 39.84"/>
          <polygon class="cls-19" points="405.28 113.96 418.59 116.45 412.35 204.85 423.33 203.18 381.05 222.52 374.38 230.85 318.23 230.85 346.16 216.18 362.33 182.87 350.1 182.87 349.85 170.29 365.34 175.85 384.34 178.85 405.28 113.96"/>
          <polygon class="cls-11" points="269.3 193.18 246.5 187.35 238.67 185.85 243.33 222.18 241.5 230.85 271.98 230.85 272.52 224.85 269.3 193.18"/>
          <polygon class="cls-20" points="296.79 230.85 309.9 190.85 304.74 132.7 313.08 121.69 323.01 128.09 330.31 167.15 321.56 198.67 312.59 207.18 304.74 230.85 296.79 230.85"/>
          <polygon class="cls-7" points="456.07 182.87 426.75 184.1 429.12 186.6 443.87 188.52 448.06 207.85 472.9 208.18 474.73 163.46 477.88 157.69 469.53 139.19 456.07 182.87"/>
          <polygon class="cls-17" points="490.8 161.73 501 207.18 480.67 205.18 490.8 161.73"/>
          <polygon class="cls-6" points="200 95.86 199.3 152.99 192.69 193.97 189.91 163.88 191.02 143.07 191.02 134.66 186.5 157.8 188.75 168.46 181.75 215.85 161.75 222.35 173.01 143.07 179.33 112.06 173.01 104.25 175.5 109.88 167.75 146.65 150.75 181.85 144.25 184.83 154.75 145.82 161.25 130.77 151.5 145.82 153 146.27 140.25 185.85 122.75 190.1 120.33 178.43 117 181.18 128 132.02 124.33 102.19 119.25 132.02 101.25 193.97 79.2 195 78 204.52 78 120.64 63.5 112.06 59.25 115.09 44.75 170.02 52.25 120.64 47.75 116.42 33.75 172.4 17.25 193.97 32.25 125.02 56.67 104.94 33.11 59.24 24.75 98.49 17.84 148.19 0 192.55 0 230.85 241.5 230.85 225.67 177.68 209.33 161.66 200 95.86"/>
          <polygon class="cls-16" points="109 89.59 105.67 112.06 103.99 117.19 96.06 166 103.99 98.49 109 89.59"/>
          <polygon class="cls-9" points="175.5 109.88 179.33 112.06 173.01 143.07 161.75 222.35 161.75 230.85 146.67 230.85 150.75 181.85 167.75 146.65 175.5 109.88"/>
          <polygon class="cls-3" points="200 95.86 199.3 152.99 192.69 230.85 215.65 230.85 209.33 161.66 200 95.86"/>
          <polygon class="cls-22" points="56.67 104.94 32.25 125.02 22.6 113.96 33.11 59.24 56.67 104.94"/>
        </g>
      </g>
    </g>
  </g>
</svg>