<?xml version="1.0" encoding="UTF-8"?>
<svg xmlns="http://www.w3.org/2000/svg" viewBox="0 0 1097 366.57">
  <defs>
    <style>
      .cls-1 {
        isolation: isolate;
      }

      .cls-2 {
        fill: #9786b3;
        fill-rule: evenodd;
        mix-blend-mode: soft-light;
      }
    </style>
  </defs>
  <g class="cls-1">
    <g id="Layer_2" data-name="Layer 2">
      <g id="Layer_1-2" data-name="Layer 1">
        <g id="solar-wind">
          <path class="cls-2" d="M0,179.02s29.5-31.14,149.96-39.08c120.46-7.94,335.95,61.56,458.89,46.31,122.94-15.25,207.31-95.07,303.65-126.16,96.35-31.09,156.58-28.09,156.58-28.09v75.85s-119.28-23.8-243.34,22.18c-124.06,45.97-202.43,88.9-291.54,80.94s-218.85-63.96-350.37-59.95C52.31,155.01,13.91,218.97,13.91,218.97L0,179.02Z"/>
          <path class="cls-2" d="M14.99,248s79.02-57.48,219.29-64.54c140.28-7.05,230.14,37.54,334.91,38.54,104.77,1,174.26-62.07,281.66-83.04,107.4-20.96,185.84-17.18,185.84-17.18l21.41,78.2s-153.12-21.93-298.75,16.04c-145.63,37.97-184.35,40.93-392.66,12.95C158.38,201,28.78,309.08,28.78,309.08l-13.79-61.08Z"/>
          <path class="cls-2" d="M19.53,148.98s104.24-29.88,225.74-31.93c121.51-2.05,256.25,17.64,423.78-9.2,167.53-26.85,260.81-81.83,341.26-99.85L913.49,0s-128.83,86.35-296.15,104.13c-167.33,17.78-432.49-26.14-587.86,26.87l-9.94,17.98Z"/>
          <path class="cls-2" d="M18.32,366.57s105.12-27.66,226.65-27.13c121.53.53,255.62,23.08,423.92-.2,168.3-23.28,256.98-23.95,363.31-27.69l-2.29-12.86s-257.05,28.27-424.87,42.49c-167.82,14.22-419.27-42.07-576.24,7.61l-10.49,17.77Z"/>
          <path class="cls-2" d="M22.39,320.48s95.35-56.12,262.39-68.46c167.04-12.34,434.67,19.97,618.52-1.02,183.85-21,193.71-32.99,193.71-32.99v30s-90.83,48.49-337.64,34.74c-246.81-13.75-522.55-79.41-724.99,56.42l-11.98-18.69Z"/>
        </g>
      </g>
    </g>
  </g>
</svg>